<?xml version="1.0" encoding="UTF-8" standalone="no"?>
<svg
   width="116.77534mm"
   height="181.54816mm"
   viewBox="0 0 116.77534 181.54816"
   version="1.1"
   id="svg1"
   xml:space="preserve"
   xmlns="http://www.w3.org/2000/svg"><defs id="defs1"/><g
     id="layer1"
     transform="translate(-46.001338,-39.202046)"><path
       style="opacity:0.384787;fill:#1a1a1a;stroke-width:0.264583"
       d="m 101.08069,164.50094 c 0.007,-1.54156 0.0223,-4.6247 0.067,-7.13442 0.0447,-2.50972 0.11916,-4.44595 0.37237,-6.59076 0.25321,-2.14482 0.68513,-4.49809 1.43731,-7.0674 0.75217,-2.5693 1.82455,-5.3545 2.74056,-7.39504 0.91601,-2.04054 1.67561,-3.33633 3.01612,-5.25028 1.34051,-1.91395 3.26185,-4.44595 5.71945,-7.49188 2.45761,-3.04593 5.45132,-6.60562 7.54399,-9.39089 2.09267,-2.78527 3.2842,-4.79597 4.22255,-6.76949 0.93835,-1.97353 1.62348,-3.90976 2.115,-5.74178 0.49151,-1.832029 0.78939,-3.559743 0.84897,-5.756689 0.0596,-2.196946 -0.11915,-4.862985 -0.58088,-7.246108 -0.46174,-2.383123 -1.20644,-4.483185 -2.11501,-6.344997 -0.90856,-1.861812 -1.98094,-3.485268 -3.15761,-4.885353 -1.17667,-1.400084 -2.45756,-2.576717 -4.08106,-3.686359 -1.62351,-1.109641 -3.58953,-2.152226 -5.42156,-2.904397 -1.83202,-0.75217 -3.52995,-1.213888 -5.59284,-1.452196 -2.0629,-0.238309 -4.49063,-0.253202 -6.99291,0.08193 -2.502283,0.335131 -5.07896,1.020259 -7.26845,1.936274 -2.189491,0.916015 -3.991674,2.062859 -5.458781,3.23208 -1.467108,1.16922 -2.599059,2.360748 -3.693806,3.872544 -1.094747,1.511797 -2.152226,3.343769 -2.949081,5.248407 -0.796855,1.904638 -1.333042,3.881826 -1.636516,5.080828 -0.303473,1.199002 -0.374219,1.619761 -0.450553,2.005156 -0.07633,0.385394 -0.158252,0.735406 -0.336988,1.046329 -0.178735,0.310922 -0.454276,0.58274 -0.81547,0.739131 -0.361193,0.156392 -0.808014,0.197351 -1.223199,0.167561 -0.415186,-0.02979 -0.798707,-0.130325 -1.105906,-0.301612 -0.307198,-0.171288 -0.538058,-0.413318 -0.675831,-0.698176 -0.137773,-0.284858 -0.182454,-0.612528 -0.208517,-1.048195 -0.02606,-0.435667 -0.03351,-0.979297 0.08565,-1.828288 0.119159,-0.848991 0.364911,-2.003283 0.733551,-3.254424 0.36864,-1.25114 0.860145,-2.599055 1.522954,-4.084786 0.662808,-1.48573 1.496876,-3.109185 2.405442,-4.516715 0.908567,-1.40753 1.891577,-2.599057 2.941642,-3.693804 1.050065,-1.094747 2.16712,-2.092649 3.433157,-3.031004 1.266036,-0.938355 2.680975,-1.817106 4.371506,-2.613962 1.690531,-0.796856 3.656549,-1.511772 5.726888,-2.025631 2.07034,-0.513859 4.244876,-0.826636 6.523746,-0.923448 2.27886,-0.09681 4.66191,0.02234 7.06738,0.476626 2.40546,0.454286 4.8332,1.243674 7.08227,2.271399 2.24907,1.027725 4.31935,2.293724 6.25563,3.991704 1.93629,1.69798 3.73847,3.827831 5.21302,6.039669 1.47456,2.211837 2.6214,4.505528 3.41081,7.31315 0.78941,2.807622 1.22134,6.129003 1.14686,9.53985 -0.0745,3.410848 -0.65535,6.910957 -1.66073,10.150517 -1.00539,3.23955 -2.43522,6.21836 -4.31938,9.2345 -1.88416,3.01615 -4.22253,6.06943 -6.46416,8.80257 -2.24162,2.73315 -4.38637,5.14599 -6.1886,7.44719 -1.80224,2.3012 -3.26186,4.49063 -4.52044,7.00037 -1.25859,2.50973 -2.31607,5.3396 -3.05335,8.01316 -0.73727,2.67357 -1.15431,5.19067 -1.35538,10.86551 -0.20107,5.67485 -0.18617,14.50704 -0.17755,19.38492 0.009,4.87789 0.011,5.80126 -0.0458,6.42884 -0.0568,0.62757 -0.17262,0.95932 -0.39116,1.29108 -0.21854,0.33176 -0.53976,0.66351 -0.88731,0.84781 -0.34756,0.18431 -0.72143,0.22118 -3.23597,0.24224 -2.514545,0.0211 -7.169558,0.0263 -9.773578,-0.008 -2.604019,-0.0342 -3.156938,-0.10795 -3.751998,-0.32649 -0.595059,-0.21854 -1.232227,-0.58189 -1.740393,-0.92681 -0.508166,-0.34492 -0.887312,-0.67141 -1.266464,-1.09796 -0.379152,-0.42654 -0.758296,-0.95313 -1.074256,-1.52449 -0.31596,-0.57136 -0.568722,-1.18747 -0.755664,-1.86152 -0.186942,-0.67405 -0.308056,-1.406 -0.402843,-2.35651 -0.09479,-0.95052 -0.163244,-2.11954 -0.360721,-3.79151 -0.197477,-1.67196 -0.52396,-3.84676 -0.958407,-5.88207 -0.434447,-2.03531 -0.976831,-3.93102 -1.669312,-5.88997 -0.692482,-1.95896 -1.53502,-3.98105 -2.430241,-5.80308 -0.895222,-1.82204 -1.843073,-3.44392 -3.217507,-5.37918 -1.374433,-1.93527 -3.175356,-4.18379 -4.939468,-6.26386 -1.764111,-2.08007 -3.491309,-3.99157 -5.408139,-6.18224 -1.916831,-2.19066 -4.023175,-4.66035 -5.784652,-6.98002 -1.761477,-2.31968 -3.177991,-4.48921 -4.315445,-6.44289 -1.137454,-1.95369 -1.995788,-3.69142 -2.925241,-6.0664 -0.929452,-2.37498 -1.929965,-5.38705 -2.606643,-7.82784 -0.676678,-2.44079 -1.029489,-4.31016 -1.253293,-5.81887 -0.223805,-1.50871 -0.31859,-2.65667 -0.360719,-3.6888 -0.04213,-1.032135 -0.0316,-1.948395 0.06582,-2.527653 0.09742,-0.579258 0.281726,-0.821486 0.516064,-1.005796 0.234339,-0.18431 0.518695,-0.31069 0.866252,-0.363349 0.347556,-0.05266 0.758293,-0.0316 1.134812,0.08426 0.376519,0.115853 0.7188,0.326487 0.939972,0.566091 0.221172,0.239603 0.321223,0.508162 0.402846,0.918912 0.08162,0.41075 0.144813,0.963666 0.242234,1.885222 0.09742,0.921557 0.229067,2.211687 0.473938,3.783597 0.24487,1.5719 0.602948,3.42548 1.174312,5.52662 0.571364,2.10114 1.355976,4.44971 2.206438,6.54822 0.850463,2.0985 1.766719,3.94681 2.75673,5.74252 0.990011,1.79571 2.053715,3.53871 3.58876,5.61352 1.535046,2.07481 3.541333,4.4813 5.510821,6.69829 1.969488,2.21699 3.902054,4.24434 5.52135,6.04532 1.619297,1.80097 2.92523,3.37546 3.983696,4.76042 1.058466,1.38496 1.869403,2.5803 2.654038,3.80202 0.784636,1.22171 1.542921,2.46972 2.201171,3.6572 0.658251,1.18749 1.216429,2.31438 1.816754,3.73621 0.600325,1.42182 1.24276,3.13849 1.758829,4.73936 0.516069,1.60087 0.90574,3.08583 1.2296,4.47606 0.32386,1.39023 0.581884,2.68562 0.784626,4.02319 0.202741,1.33757 0.350185,2.71722 0.458138,3.9995 0.107953,1.28227 0.176409,2.46708 0.265931,3.25435 0.08952,0.78726 0.200106,1.17694 0.431812,1.60612 0.231705,0.42918 0.584518,0.89784 0.995267,1.25329 0.410749,0.35546 0.87941,0.59769 1.411277,0.72407 0.531867,0.12638 1.126909,0.13692 2.996355,0.16588 1.869447,0.029 5.01316,0.0764 6.656139,0.0974 1.642978,0.0211 1.785168,0.0158 1.879958,-0.0105 0.0948,-0.0263 0.14218,-0.0737 0.15509,-2.37121 0.0129,-2.29749 -0.009,-6.84489 -0.0194,-9.11864 -0.0108,-2.27374 -0.0111,-2.27376 -0.004,-3.81533 z"
       id="path1" /><path
       style="opacity:0.384787;fill:#1a1a1a;stroke-width:0.264583"
       d="m 106.96768,43.536264 c -1.32187,-0.0074 -3.96562,-0.02235 -6.84026,0.18618 -2.87465,0.208524 -5.980064,0.640453 -8.769061,1.228789 -2.788997,0.588335 -5.261414,1.333038 -7.86051,2.371934 -2.599096,1.038896 -5.324713,2.371916 -7.942424,3.887436 -2.617712,1.51552 -5.127365,3.213445 -7.406225,5.108776 -2.278861,1.89533 -4.326795,3.987947 -6.274254,6.359903 -1.947459,2.371957 -3.794325,5.023103 -5.246537,7.536553 -1.452213,2.513451 -2.509692,4.889055 -3.306546,6.985457 -0.796855,2.096402 -1.333042,3.913479 -1.750087,5.551875 -0.417046,1.638397 -0.714927,3.098016 -0.882489,4.118286 -0.167562,1.02027 -0.204797,1.601142 -0.323954,2.074041 -0.119157,0.472899 -0.320227,0.837804 -0.666527,1.102182 -0.3463,0.264378 -0.837803,0.428212 -1.325599,0.457999 -0.487797,0.02979 -0.971852,-0.07447 -1.333044,-0.279272 -0.361191,-0.204801 -0.599497,-0.510129 -0.740994,-0.841533 -0.141497,-0.331404 -0.186178,-0.688862 -0.126599,-1.519236 0.05958,-0.830375 0.223413,-2.133606 0.528752,-3.686363 0.305339,-1.552757 0.752161,-3.354939 1.407522,-5.455071 0.655362,-2.100132 1.51922,-4.498079 2.662377,-6.955676 1.143158,-2.457596 2.565544,-4.974696 4.405021,-7.618474 1.839477,-2.643779 4.095931,-5.414078 6.66524,-7.983382 2.569309,-2.569304 5.451312,-4.937462 8.128601,-6.802997 2.67729,-1.865535 5.149707,-3.228343 7.819552,-4.472035 2.669846,-1.243691 5.536956,-2.368194 8.82865,-3.302824 3.291695,-0.934629 7.007767,-1.679333 10.723951,-2.062864 3.716184,-0.383531 7.432254,-0.405874 10.999494,-0.175007 3.56724,0.230868 6.98543,0.714925 9.83772,1.310707 2.8523,0.595782 5.13854,1.30325 7.43975,2.155963 2.3012,0.852714 4.61723,1.850619 7.12323,3.194853 2.50601,1.344235 5.20184,3.034713 7.53655,4.732689 2.33472,1.697976 4.30818,3.403345 6.16627,5.250267 1.85809,1.846923 3.6007,3.835285 5.32102,6.199796 1.72031,2.36451 3.41824,5.105018 4.74385,7.603573 1.32561,2.498554 2.27883,4.755008 3.09803,7.059937 0.81919,2.304929 1.50432,4.65819 2.02935,7.339209 0.52503,2.681019 0.88994,5.689622 1.04633,8.471172 0.15639,2.781549 0.10426,5.335885 -0.0745,7.782313 -0.17874,2.44642 -0.48407,4.78479 -1.03517,7.33176 -0.5511,2.54696 -1.34793,5.30237 -2.23788,7.76741 -0.88995,2.46504 -1.87296,4.63957 -3.07942,6.89237 -1.20646,2.2528 -2.63629,4.58372 -4.1816,6.78811 -1.54531,2.20439 -3.206,4.28211 -4.688,6.05083 -1.482,1.76873 -2.78524,3.22835 -4.1034,4.72525 -1.31816,1.4969 -2.65119,3.03099 -3.99914,4.67684 -1.34795,1.64584 -2.71076,3.40334 -4.05127,5.45134 -1.34051,2.048 -2.65863,4.38637 -3.73848,6.79183 -1.07986,2.40547 -1.92137,4.87789 -2.53204,7.12324 -0.61067,2.24535 -0.99047,4.26349 -1.28464,6.345 -0.29417,2.08152 -0.50269,4.22626 -0.65908,5.63006 -0.15639,1.40381 -0.26065,2.06659 -0.48779,2.7294 -0.22715,0.66281 -0.57715,1.32559 -0.97931,1.92509 -0.40215,0.59951 -0.85642,1.1357 -1.41869,1.63094 -0.56227,0.49524 -1.2325,0.94951 -1.88041,1.23995 -0.64791,0.29044 -1.27347,0.41705 -2.10756,0.48035 -0.8341,0.0633 -1.87668,0.0633 -3.05707,0.0708 -1.1804,0.007 -2.49852,0.0223 -3.31027,-0.0558 -0.81174,-0.0782 -1.11707,-0.24948 -1.35538,-0.45428 -0.23832,-0.2048 -0.4096,-0.44311 -0.5027,-0.72983 -0.0931,-0.28672 -0.10799,-0.62183 -0.0931,-0.9309 0.0149,-0.30906 0.0596,-0.59205 0.17129,-0.8527 0.11171,-0.26065 0.29043,-0.49896 0.50268,-0.66652 0.21225,-0.16756 0.458,-0.26437 0.93835,-0.32395 0.48035,-0.0596 1.19527,-0.0819 2.27141,-0.0931 1.07613,-0.0112 2.51341,-0.0112 3.44431,-0.0856 0.9309,-0.0745 1.35538,-0.22342 1.77615,-0.52876 0.42077,-0.30534 0.83781,-0.76705 1.16176,-1.37401 0.32396,-0.60695 0.55482,-1.3591 0.741,-2.68472 0.18618,-1.32562 0.32767,-3.22461 0.50268,-4.8779 0.17501,-1.65329 0.38353,-3.06078 0.69259,-4.63216 0.30906,-1.57137 0.71865,-3.30653 1.34422,-5.2391 0.62558,-1.93257 1.46709,-4.06242 2.35704,-6.00616 0.88995,-1.94373 1.82828,-3.70123 3.08314,-5.6338 1.25487,-1.93256 2.82619,-4.04007 4.24117,-5.81624 1.41498,-1.77617 2.67353,-3.2209 4.01777,-4.72524 1.34423,-1.50435 2.77406,-3.06823 4.15925,-4.65822 1.38519,-1.58999 2.72565,-3.206 4.00286,-4.9077 1.2772,-1.7017 2.49107,-3.48899 3.56348,-5.25771 1.0724,-1.76873 2.00328,-3.51878 2.99377,-5.76413 0.99048,-2.24536 2.04052,-4.98587 2.79269,-7.62965 0.75217,-2.64378 1.20644,-5.19067 1.48944,-6.98172 0.28299,-1.79106 0.39469,-2.8262 0.47289,-4.472051 0.0782,-1.645851 0.12288,-3.902304 0.0112,-6.062009 -0.11172,-2.159705 -0.37981,-4.222536 -0.77452,-6.27798 -0.3947,-2.055444 -0.916,-4.103382 -1.58625,-6.177442 -0.67026,-2.074061 -1.48943,-4.17413 -2.36076,-6.11414 -0.87133,-1.94001 -1.79476,-3.719853 -2.95654,-5.600287 -1.16177,-1.880435 -2.56182,-3.861348 -3.99169,-5.622624 -1.42988,-1.761276 -2.8895,-3.302814 -4.39012,-4.728962 -1.50062,-1.426149 -3.04216,-2.736827 -4.84812,-4.062441 -1.80597,-1.325613 -3.87625,-2.666083 -6.20724,-3.928393 -2.331,-1.262309 -4.92257,-2.446388 -7.5589,-3.403358 -2.63633,-0.956971 -5.31726,-1.686779 -7.92381,-2.18202 -2.60654,-0.495241 -5.13853,-0.755886 -6.40456,-0.886212 -1.26602,-0.130326 -1.266,-0.130359 -2.58788,-0.137807 z"
       id="path2" /><path
       style="opacity:0.384787;fill:#1a1a1a;stroke-width:0.264583"
       d="m 107.45449,198.41337 c 3.14115,-0.008 9.42343,-0.0237 12.73836,-0.0316 3.31492,-0.008 3.66247,-0.008 4.00739,0.10532 0.34493,0.11322 0.68721,0.33966 0.92944,0.67668 0.24223,0.33702 0.38441,0.78462 0.38967,1.20327 0.005,0.41865 -0.12637,0.80832 -0.37651,1.12691 -0.25014,0.3186 -0.61875,0.56609 -1.13218,0.68984 -0.51344,0.12375 -1.17167,0.12375 -7.58836,0.13955 -6.41669,0.0158 -18.591344,0.0474 -24.813073,0.0421 -6.221729,-0.005 -6.490298,-0.0474 -6.779926,-0.15798 -0.289628,-0.11059 -0.600314,-0.28963 -0.816218,-0.5108 -0.215903,-0.22117 -0.337021,-0.48447 -0.389681,-0.82939 -0.05266,-0.34493 -0.03686,-0.77146 0.05529,-1.10848 0.09216,-0.33703 0.260661,-0.58452 0.463403,-0.7741 0.202742,-0.18957 0.439706,-0.32122 0.716173,-0.39758 0.276467,-0.0764 0.592413,-0.0974 3.841572,-0.11586 3.24916,-0.0184 9.431268,-0.0342 12.522387,-0.0421 3.09112,-0.008 3.09112,-0.008 6.23226,-0.0158 z"
       id="path4" /><path
       style="opacity:0.384787;fill:#1a1a1a;stroke-width:0.264583"
       d="m 107.45449,198.41337 c 3.14115,-0.008 9.42343,-0.0237 12.73836,-0.0316 3.31492,-0.008 3.66247,-0.008 4.00739,0.10532 0.34493,0.11322 0.68721,0.33966 0.92944,0.67668 0.24223,0.33702 0.38441,0.78462 0.38967,1.20327 0.005,0.41865 -0.12637,0.80832 -0.37651,1.12691 -0.25014,0.3186 -0.61875,0.56609 -1.13218,0.68984 -0.51344,0.12375 -1.17167,0.12375 -7.58836,0.13955 -6.41669,0.0158 -18.591344,0.0474 -24.813073,0.0421 -6.221729,-0.005 -6.490298,-0.0474 -6.779926,-0.15798 -0.289628,-0.11059 -0.600314,-0.28963 -0.816218,-0.5108 -0.215903,-0.22117 -0.337021,-0.48447 -0.389681,-0.82939 -0.05266,-0.34493 -0.03686,-0.77146 0.05529,-1.10848 0.09216,-0.33703 0.260661,-0.58452 0.463403,-0.7741 0.202742,-0.18957 0.439706,-0.32122 0.716173,-0.39758 0.276467,-0.0764 0.592413,-0.0974 3.841572,-0.11586 3.24916,-0.0184 9.431268,-0.0342 12.522387,-0.0421 3.09112,-0.008 3.09112,-0.008 6.23226,-0.0158 z"
       id="path4-2"
       transform="translate(-0.021528,9.0131646)" /><path
       style="opacity:0.384787;fill:#1a1a1a;stroke-width:0.264583"
       d="m 107.45449,198.41337 c 3.14115,-0.008 9.42343,-0.0237 12.73836,-0.0316 3.31492,-0.008 3.66247,-0.008 4.00739,0.10532 0.34493,0.11322 0.68721,0.33966 0.92944,0.67668 0.24223,0.33702 0.38441,0.78462 0.38967,1.20327 0.005,0.41865 -0.12637,0.80832 -0.37651,1.12691 -0.25014,0.3186 -0.61875,0.56609 -1.13218,0.68984 -0.51344,0.12375 -1.17167,0.12375 -7.58836,0.13955 -6.41669,0.0158 -18.591344,0.0474 -24.813073,0.0421 -6.221729,-0.005 -6.490298,-0.0474 -6.779926,-0.15798 -0.289628,-0.11059 -0.600314,-0.28963 -0.816218,-0.5108 -0.215903,-0.22117 -0.337021,-0.48447 -0.389681,-0.82939 -0.05266,-0.34493 -0.03686,-0.77146 0.05529,-1.10848 0.09216,-0.33703 0.260661,-0.58452 0.463403,-0.7741 0.202742,-0.18957 0.439706,-0.32122 0.716173,-0.39758 0.276467,-0.0764 0.592413,-0.0974 3.841572,-0.11586 3.24916,-0.0184 9.431268,-0.0342 12.522387,-0.0421 3.09112,-0.008 3.09112,-0.008 6.23226,-0.0158 z"
       id="path4-22"
       transform="translate(0.09119749,-9.1720831)" /><path
       style="opacity:0.384787;fill:#1a1a1a;stroke-width:0.264583"
       d="m 106.02742,216.45192 c 1.87205,0.005 5.61614,0.0158 7.61984,0.0184 2.00369,0.003 2.26699,-0.003 2.4513,-0.005 0.18431,-0.003 0.28963,-0.003 0.27646,0.15008 -0.0132,0.15272 -0.14481,0.45814 -0.5108,0.98737 -0.36599,0.52924 -0.9663,1.28225 -1.62455,1.81675 -0.65825,0.5345 -1.37441,0.85045 -2.06689,1.03213 -0.69248,0.18167 -1.36124,0.22907 -3.72043,0.2633 -2.35919,0.0342 -6.40863,0.0553 -8.657197,0.008 -2.248567,-0.0474 -2.696164,-0.16324 -3.154307,-0.32649 -0.458143,-0.16324 -0.926807,-0.37387 -1.361252,-0.66614 -0.434444,-0.29226 -0.83465,-0.66614 -1.155876,-1.05846 -0.321227,-0.39232 -0.563453,-0.80305 -0.726699,-1.12955 -0.163247,-0.32649 -0.247497,-0.56871 -0.292257,-0.74249 -0.04476,-0.17378 -0.05002,-0.2791 0.04477,-0.32386 0.09479,-0.0448 0.289627,-0.029 2.140645,-0.0237 1.851019,0.005 5.358086,0 7.111646,-0.003 1.75356,-0.003 1.75355,-0.003 3.6256,0.003 z"
       id="path5" /></g></svg>
