<?xml version="1.0" encoding="UTF-8" standalone="no"?>
<!-- Created with Inkscape (http://www.inkscape.org/) -->

<svg
   width="284mm"
   height="203mm"
   viewBox="0 0 284 203"
   version="1.1"
   id="svg1"
   xml:space="preserve"
   xmlns:inkscape="http://www.inkscape.org/namespaces/inkscape"
   xmlns:sodipodi="http://sodipodi.sourceforge.net/DTD/sodipodi-0.dtd"
   xmlns="http://www.w3.org/2000/svg"
   xmlns:svg="http://www.w3.org/2000/svg"><sodipodi:namedview
     id="namedview1"
     pagecolor="#ffffff"
     bordercolor="#000000"
     borderopacity="0.25"
     inkscape:showpageshadow="2"
     inkscape:pageopacity="0.0"
     inkscape:pagecheckerboard="0"
     inkscape:deskcolor="#d1d1d1"
     inkscape:document-units="mm"><inkscape:page
       x="0"
       y="0"
       width="284"
       height="203"
       id="page2"
       margin="0"
       bleed="0" /></sodipodi:namedview><defs
     id="defs1"><inkscape:path-effect
       effect="bspline"
       id="path-effect19"
       is_visible="true"
       lpeversion="1.3"
       weight="33.333333"
       steps="2"
       helper_size="0"
       apply_no_weight="true"
       apply_with_weight="true"
       only_selected="false"
       uniform="false" /><inkscape:path-effect
       effect="bspline"
       id="path-effect18"
       is_visible="true"
       lpeversion="1.3"
       weight="33.333333"
       steps="2"
       helper_size="0"
       apply_no_weight="true"
       apply_with_weight="true"
       only_selected="false"
       uniform="false" /><inkscape:path-effect
       effect="bspline"
       id="path-effect17"
       is_visible="true"
       lpeversion="1.3"
       weight="33.333333"
       steps="2"
       helper_size="0"
       apply_no_weight="true"
       apply_with_weight="true"
       only_selected="false"
       uniform="false" /><inkscape:path-effect
       effect="bspline"
       id="path-effect16"
       is_visible="true"
       lpeversion="1.3"
       weight="33.333333"
       steps="2"
       helper_size="0"
       apply_no_weight="true"
       apply_with_weight="true"
       only_selected="false"
       uniform="false" /><inkscape:path-effect
       effect="bspline"
       id="path-effect15"
       is_visible="true"
       lpeversion="1.3"
       weight="33.333333"
       steps="2"
       helper_size="0"
       apply_no_weight="true"
       apply_with_weight="true"
       only_selected="false"
       uniform="false" /><inkscape:path-effect
       effect="bspline"
       id="path-effect14"
       is_visible="true"
       lpeversion="1.3"
       weight="33.333333"
       steps="2"
       helper_size="0"
       apply_no_weight="true"
       apply_with_weight="true"
       only_selected="false"
       uniform="false" /><inkscape:path-effect
       effect="bspline"
       id="path-effect13"
       is_visible="true"
       lpeversion="1.3"
       weight="33.333333"
       steps="2"
       helper_size="0"
       apply_no_weight="true"
       apply_with_weight="true"
       only_selected="false"
       uniform="false" /><inkscape:path-effect
       effect="bspline"
       id="path-effect12"
       is_visible="true"
       lpeversion="1.3"
       weight="33.333333"
       steps="2"
       helper_size="0"
       apply_no_weight="true"
       apply_with_weight="true"
       only_selected="false"
       uniform="false" /><inkscape:path-effect
       effect="bspline"
       id="path-effect5"
       is_visible="true"
       lpeversion="1.3"
       weight="33.333333"
       steps="2"
       helper_size="0"
       apply_no_weight="true"
       apply_with_weight="true"
       only_selected="false"
       uniform="false" /><inkscape:path-effect
       effect="bspline"
       id="path-effect4"
       is_visible="true"
       lpeversion="1.3"
       weight="33.333333"
       steps="2"
       helper_size="0"
       apply_no_weight="true"
       apply_with_weight="true"
       only_selected="false"
       uniform="false" /><inkscape:path-effect
       effect="bspline"
       id="path-effect3"
       is_visible="true"
       lpeversion="1.3"
       weight="33.333333"
       steps="2"
       helper_size="0"
       apply_no_weight="true"
       apply_with_weight="true"
       only_selected="false"
       uniform="false" /><inkscape:path-effect
       effect="bspline"
       id="path-effect2"
       is_visible="true"
       lpeversion="1.3"
       weight="33.333333"
       steps="2"
       helper_size="0"
       apply_no_weight="true"
       apply_with_weight="true"
       only_selected="false"
       uniform="false" /><inkscape:path-effect
       effect="bspline"
       id="path-effect1"
       is_visible="true"
       lpeversion="1.3"
       weight="33.333333"
       steps="2"
       helper_size="0"
       apply_no_weight="true"
       apply_with_weight="true"
       only_selected="false"
       uniform="false" /><inkscape:path-effect
       effect="bspline"
       id="path-effect4-2"
       is_visible="true"
       lpeversion="1.3"
       weight="33.333333"
       steps="2"
       helper_size="0"
       apply_no_weight="true"
       apply_with_weight="true"
       only_selected="false"
       uniform="false" /><inkscape:path-effect
       effect="bspline"
       id="path-effect4-2-1"
       is_visible="true"
       lpeversion="1.3"
       weight="33.333333"
       steps="2"
       helper_size="0"
       apply_no_weight="true"
       apply_with_weight="true"
       only_selected="false"
       uniform="false" /><inkscape:path-effect
       effect="bspline"
       id="path-effect4-2-1-1"
       is_visible="true"
       lpeversion="1.3"
       weight="33.333333"
       steps="2"
       helper_size="0"
       apply_no_weight="true"
       apply_with_weight="true"
       only_selected="false"
       uniform="false" /><inkscape:path-effect
       effect="bspline"
       id="path-effect4-2-1-16"
       is_visible="true"
       lpeversion="1.3"
       weight="33.333333"
       steps="2"
       helper_size="0"
       apply_no_weight="true"
       apply_with_weight="true"
       only_selected="false"
       uniform="false" /><inkscape:path-effect
       effect="bspline"
       id="path-effect4-2-1-8"
       is_visible="true"
       lpeversion="1.3"
       weight="33.333333"
       steps="2"
       helper_size="0"
       apply_no_weight="true"
       apply_with_weight="true"
       only_selected="false"
       uniform="false" /><inkscape:path-effect
       effect="bspline"
       id="path-effect16-3"
       is_visible="true"
       lpeversion="1.3"
       weight="33.333333"
       steps="2"
       helper_size="0"
       apply_no_weight="true"
       apply_with_weight="true"
       only_selected="false"
       uniform="false" /><inkscape:path-effect
       effect="bspline"
       id="path-effect17-1"
       is_visible="true"
       lpeversion="1.3"
       weight="33.333333"
       steps="2"
       helper_size="0"
       apply_no_weight="true"
       apply_with_weight="true"
       only_selected="false"
       uniform="false" /><inkscape:path-effect
       effect="bspline"
       id="path-effect18-2"
       is_visible="true"
       lpeversion="1.3"
       weight="33.333333"
       steps="2"
       helper_size="0"
       apply_no_weight="true"
       apply_with_weight="true"
       only_selected="false"
       uniform="false" /><inkscape:path-effect
       effect="bspline"
       id="path-effect19-9"
       is_visible="true"
       lpeversion="1.3"
       weight="33.333333"
       steps="2"
       helper_size="0"
       apply_no_weight="true"
       apply_with_weight="true"
       only_selected="false"
       uniform="false" /></defs><g
     inkscape:groupmode="layer"
     id="layer3"
     inkscape:label="Layer 3"
     style="display:inline"><g
       inkscape:groupmode="layer"
       id="layer4"
       inkscape:label="arm"
       style="display:inline"><path
         style="display:inline;fill:#000000;fill-opacity:1;stroke:none;stroke-width:2;stroke-dasharray:none;stroke-dashoffset:1.8;stroke-opacity:1"
         d="m 141.96418,115.40542 c 2.96181,2.81184 8.64547,8.24056 11.62978,11.02991 2.9843,2.78935 3.26923,2.93931 3.66664,2.99929 0.39741,0.06 0.90728,0.03 6.93598,-2.56447 6.0287,-2.59444 18.20561,-6.04353 24.00175,-8.77289 5.79614,-2.72936 5.21128,-4.73889 5.1438,-5.09881 -0.0675,-0.35991 -0.24745,-0.77981 -0.48739,-1.02725 -0.23995,-0.24745 0.09,1.29719 -5.66129,3.74917 -5.75126,2.45198 -14.79391,5.18124 -20.50007,7.68565 -5.70616,2.50442 -8.70546,3.16427 -9.05039,2.95432 -0.34492,-0.20996 -0.82479,-0.65984 -4.29654,-3.97412 -3.47175,-3.31429 -9.93511,-9.49271 -13.22684,-12.522 -3.29172,-3.02929 -3.41169,-2.90932 -3.3967,-2.69187 0.015,0.21745 0.16496,0.53237 0.48739,1.38718 0.32243,0.85482 0.8173,2.24946 1.18472,3.04428 0.36742,0.79482 0.60736,0.98977 3.56916,3.80161 z"
         id="path6"
         inkscape:label="arm"
         sodipodi:nodetypes="ssssssssssssssss" /></g><g
       inkscape:groupmode="layer"
       id="layer6"
       inkscape:label="hand+sign"><path
         style="display:inline;fill:#806658;fill-opacity:1;stroke:#000000;stroke-width:2;stroke-dasharray:none;stroke-dashoffset:1.8;stroke-opacity:1"
         d="m 183.96183,152.24427 c 1.30469,0.22495 2.60938,0.44989 3.91408,0.67484 0.70485,-0.34493 1.40967,-0.68984 2.1145,-1.03476 0.26994,-0.77983 0.53987,-1.55963 0.80981,-2.33945 8.54816,-48.24464 17.09599,-96.487351 25.64398,-144.7310299 0.015,-0.2999356 0.03,-0.5998591 0.045,-0.8997886 -0.40491,-0.479897 -0.80981,-0.9597747 -1.21471,-1.4396622 -1.33472,-0.4948938 -2.66938,-0.9897677 -4.00406,-1.48465159 -1.4247,0.0149969 -2.84934,0.029993 -4.274,0.0449894 -0.62987,0.3599228 -1.25971,0.7198311 -1.88956,1.0797467 -0.09,0.4798969 -0.17996,0.9597746 -0.26993,1.4396621 -8.42819,48.2446431 -16.85605,96.4873541 -25.28407,144.7310341 0,0.37492 0,0.74982 0,1.12473 0.31493,0.52489 0.62985,1.04976 0.94478,1.57463 1.15475,0.41991 2.30946,0.83981 3.46419,1.25971 z"
         id="path11"
         inkscape:label="sign_stick" /><path
         style="display:inline;fill:#ffffff;fill-opacity:1;stroke:#000000;stroke-width:2;stroke-dasharray:none;stroke-dashoffset:1.8;stroke-opacity:1"
         d="m 187.17857,113.58334 c -0.0225,-0.4199 -0.0675,-1.2597 -0.06,-2.23449 0.007,-0.97478 0.0675,-2.08449 0.14246,-3.05927 0.075,-0.97478 0.16496,-1.81457 0.03,-2.59439 -0.13497,-0.77983 -0.49488,-1.49964 -1.04226,-1.95704 -0.54738,-0.4574 -1.28219,-0.65235 -1.97953,-0.51737 -0.69735,0.13497 -1.35718,0.59985 -1.72459,1.21472 -0.36742,0.61486 -0.4424,1.37967 -0.23994,2.38445 0.20246,1.00477 0.68233,2.24945 1.24471,3.3292 0.56237,1.07976 1.20721,1.99453 1.6946,2.5944 0.48739,0.59986 0.8173,0.88478 1.11723,1.04225 0.29994,0.15747 0.56987,0.18747 0.70483,0.20247 0.13497,0.015 0.13497,0.015 0.11248,-0.40493 z"
         id="path7"
         inkscape:label="thumb" /><path
         style="display:inline;fill:#ffffff;fill-opacity:1;stroke:#000000;stroke-width:2;stroke-dasharray:none;stroke-dashoffset:1.8;stroke-opacity:1"
         d="m 195.44971,121.61857 c 0.0265,0.41356 0.0795,1.24068 -0.0477,1.75498 -0.12725,0.51431 -0.43476,0.71578 -1.26719,0.83773 -0.83244,0.12195 -2.18974,0.16436 -3.25546,0.0901 -1.06572,-0.0742 -1.83981,-0.2651 -2.24276,-0.30752 -0.40295,-0.0424 -0.43475,0.0636 -0.0636,0.54613 0.37116,0.48249 1.14524,1.34141 2.15795,2.08901 1.01271,0.74759 2.26397,1.38383 3.1176,1.72846 0.85364,0.34463 1.30961,0.39765 1.91405,0.43476 0.60444,0.0371 1.35732,0.0583 1.98297,-0.17499 0.62564,-0.2333 1.12403,-0.72108 1.37322,-1.38385 0.2492,-0.66277 0.2492,-1.50047 0.0689,-2.22686 -0.18028,-0.72639 -0.54081,-1.34141 -0.97558,-1.94585 -0.43478,-0.60444 -0.94377,-1.19826 -1.42095,-1.50578 -0.47719,-0.30751 -0.92256,-0.32871 -1.14524,-0.33931 -0.22269,-0.0106 -0.22273,-0.0106 -0.19622,0.40296 z"
         id="path10"
         inkscape:label="finger_3" /><path
         style="display:inline;fill:#ffffff;fill-opacity:1;stroke:#000000;stroke-width:2;stroke-dasharray:none;stroke-dashoffset:1.8;stroke-opacity:1"
         d="m 195.90568,113.96241 c 0.16437,0.42416 0.4931,1.27249 0.68927,1.90343 0.19618,0.63095 0.2598,1.04451 -0.053,1.36794 -0.31283,0.32342 -1.00209,0.55671 -1.97768,0.7741 -0.97559,0.21738 -2.23745,0.41885 -3.18652,0.5408 -0.94908,0.12195 -1.58532,0.16436 -1.89814,0.2439 -0.31282,0.0795 -0.30222,0.19617 0.38175,0.61504 0.68398,0.41887 2.04128,1.13994 3.54178,1.63834 1.5005,0.49839 3.1441,0.77409 4.46432,0.86423 1.32023,0.0901 2.317,-0.005 3.05399,-0.29163 0.73699,-0.28631 1.21416,-0.76348 1.39973,-1.35202 0.18557,-0.58854 0.0795,-1.28839 -0.20678,-2.02008 -0.28632,-0.73169 -0.75289,-1.49518 -1.39975,-2.11552 -0.64686,-0.62035 -1.47396,-1.09752 -2.22155,-1.50048 -0.7476,-0.40296 -1.41565,-0.73168 -1.86102,-0.90135 -0.44538,-0.16966 -0.66806,-0.18026 -0.77941,-0.18556 -0.11134,-0.005 -0.11133,-0.005 0.053,0.41886 z"
         id="path9"
         inkscape:label="finger_2" /><path
         style="display:inline;fill:#ffffff;fill-opacity:1;stroke:#000000;stroke-width:2;stroke-dasharray:none;stroke-dashoffset:1.8;stroke-opacity:1"
         d="m 198.7052,106.13527 c -0.11977,0.49048 -0.26933,1.22676 -0.37062,1.78049 -0.10129,0.55372 -0.15431,0.92486 -1.00796,1.64065 -0.85365,0.71578 -2.50786,1.77617 -3.89701,2.56618 -1.38915,0.79002 -2.51316,1.30961 -2.95853,1.64364 -0.44537,0.33403 -0.21208,0.48249 0.88016,0.63625 1.09224,0.15376 3.04336,0.31282 4.8885,0.13254 1.84513,-0.18027 3.58417,-0.69987 4.74532,-1.23538 1.16116,-0.53551 1.74437,-1.08692 2.03599,-1.65954 0.29161,-0.57263 0.29161,-1.16645 0.0856,-1.93741 -0.20603,-0.77096 -0.61806,-1.71898 -1.14045,-2.40629 -0.5224,-0.68731 -1.15507,-1.11381 -1.66701,-1.42717 -0.51193,-0.31336 -0.90308,-0.51354 -1.14365,-0.49131 -0.24057,0.0222 -0.33055,0.26687 -0.45032,0.75735 z"
         id="path8"
         inkscape:label="finger_1"
         sodipodi:nodetypes="cccccccccccccc" /><path
         style="display:inline;fill:#ffffff;fill-opacity:1;stroke:#000000;stroke-width:2;stroke-dasharray:none;stroke-dashoffset:1.8;stroke-opacity:1"
         d="m 160.43002,6.4191176 c 23.84673,4.0784184 71.04066,12.1465264 94.92255,16.2630614 23.8819,4.116535 24.45176,4.281495 24.6767,4.708899 0.22495,0.427404 0.10498,1.117233 -1.76962,12.634751 -1.87459,11.517518 -5.50367,33.861829 -7.39323,45.20667 -1.88956,11.344841 -2.03952,11.689755 -2.36944,11.847217 -0.32992,0.157463 -0.8398,0.127469 -24.70845,-3.717054 -23.86865,-3.844524 -71.09323,-11.503118 -95.06643,-15.37635 -23.9732,-3.873232 -24.69212,-3.960634 -25.01797,-4.3951 -0.32585,-0.434465 -0.25858,-1.21594 1.69155,-12.955994 1.95013,-11.740054 5.78297,-34.437728 7.79487,-46.009484 2.0119,-11.5717558 2.20277,-12.0171198 2.54798,-12.195442 0.34521,-0.1783221 0.84475,-0.089593 24.69149,3.9888256 z"
         id="path12"
         inkscape:path-effect="#path-effect12"
         inkscape:original-d="m 137.08283,2.4294298 c 47.19392,8.0681062 94.38785,16.1362132 141.58176,24.2043192 0.56988,0.164965 1.13974,0.329922 1.7096,0.494885 -0.11996,0.68985 -0.23995,1.379675 -0.35991,2.069512 -3.62921,22.345203 -7.25829,44.689514 -10.88745,67.034269 -0.14996,0.344927 -0.29993,0.689838 -0.44989,1.034757 -0.50988,-0.02999 -1.01976,-0.05999 -1.52964,-0.08998 -47.22742,-7.659054 -94.452,-15.317649 -141.67943,-22.976704 -0.71897,-0.08741 -1.43789,-0.17481 -2.15685,-0.262217 0.0673,-0.781521 0.13452,-1.562999 0.20179,-2.344522 3.833,-22.698584 7.66584,-45.396259 11.49876,-68.0943918 0.19087,-0.4453816 0.38174,-0.8907454 0.57262,-1.3361182 0.49955,0.088732 0.99909,0.1774606 1.49864,0.2661908 z"
         inkscape:label="sign"
         sodipodi:nodetypes="ccccccccccccc" /></g><path
       style="display:inline;fill:#603d2b;fill-opacity:1;stroke:#000000;stroke-width:2;stroke-dasharray:none;stroke-dashoffset:1.8;stroke-opacity:1"
       d="m 48.524421,166.31491 c 5.344473,1.06041 15.694088,2.69345 27.295116,3.50996 11.601028,0.81652 24.452953,0.81652 36.032753,0.0742 11.57979,-0.74231 21.88678,-2.22685 27.31609,-3.05398 5.42931,-0.82712 5.98072,-0.99678 6.23522,-1.42095 0.25449,-0.42417 0.21208,-1.10283 -0.0106,-5.02642 -0.22269,-3.92359 -0.62564,-11.09169 -1.5164,-18.40867 -0.89076,-7.31699 -2.26924,-14.78198 -3.87049,-21.90808 -1.60125,-7.12611 -3.42509,-13.91247 -5.14299,-18.42992 -1.7179,-4.517441 -3.32969,-6.765465 -6.68064,-8.483343 -3.35095,-1.717878 -8.44083,-2.905517 -14.29437,-3.859894 -5.85353,-0.954377 -12.47036,-1.675442 -20.317496,-1.336096 -7.847137,0.339345 -16.924076,1.73906 -23.456249,3.732659 -6.532174,1.993599 -10.51924,4.58095 -12.767317,6.171573 -2.248078,1.590623 -2.757065,2.184441 -3.923535,5.991391 -1.16647,3.80694 -2.990307,10.82659 -4.549143,17.62396 -1.558835,6.79737 -2.852484,13.37165 -3.870499,20.46595 -1.018015,7.09429 -1.76027,14.70771 -1.961754,18.75858 -0.201483,4.05087 0.13784,4.53865 5.482314,5.59906 z"
       id="path1"
       inkscape:path-effect="#path-effect1"
       inkscape:original-d="m 43.519279,165.74229 c 10.349616,1.63303 20.69923,3.26607 31.048844,4.8991 12.852442,0 25.704367,0 38.556557,0 10.3074,-1.48461 20.61439,-2.96916 30.92159,-4.45373 0.55142,-0.16967 1.10283,-0.33933 1.65424,-0.509 -0.0424,-0.67867 -0.0848,-1.35733 -0.12725,-2.03599 -0.40296,-7.16852 -0.8059,-14.33662 -1.20887,-21.50514 -1.37856,-7.46545 -2.75704,-14.93044 -4.1356,-22.39588 -1.82394,-6.78677 -3.64778,-13.57313 -5.47172,-20.359902 -1.61186,-2.248119 -3.22365,-4.496145 -4.83548,-6.744216 -5.09007,-1.187685 -10.17995,-2.375323 -15.26992,-3.562982 -6.6171,-0.721096 -13.23393,-1.442159 -19.850899,-2.163239 -9.077304,1.39977 -18.154243,2.799485 -27.231364,4.199229 -3.987226,2.587455 -7.974293,5.174805 -11.961439,7.76221 -0.509008,0.593842 -1.017995,1.18766 -1.526992,1.78149 -1.823943,7.02006 -3.64778,14.03971 -5.471724,21.05977 -1.293726,6.57468 -2.587376,13.14896 -3.881103,19.72364 -0.742304,7.61391 -1.484559,15.22733 -2.226864,22.84127 0.339339,0.4878 0.678662,0.97558 1.017994,1.46337 z"
       sodipodi:nodetypes="ccccccccccccccccccc"
       inkscape:label="torso" /><g
       inkscape:groupmode="layer"
       id="layer7"
       inkscape:label="head"
       style="display:inline"><path
         style="display:inline;fill:#603d2b;fill-opacity:1;stroke:#000000;stroke-width:2;stroke-dasharray:none;stroke-dashoffset:1.8;stroke-opacity:1"
         d="m 99.951541,115.41292 c 5.323749,-0.62986 10.902439,-2.00953 15.791339,-3.98909 4.88889,-1.97957 9.08782,-4.55891 12.55203,-7.25831 3.46422,-2.69939 6.19347,-5.518618 8.45048,-9.192829 2.25702,-3.674211 4.04153,-8.202967 4.70139,-13.271877 0.65986,-5.068911 0.19498,-10.677371 -0.72732,-15.461344 -0.9223,-4.783972 -2.30192,-8.742886 -4.56643,-12.926986 -2.26451,-4.184099 -5.41365,-8.592891 -9.29032,-12.349585 -3.87667,-3.756694 -8.4804,-6.86084 -13.78926,-9.110357 -5.30886,-2.249518 -11.32221,-3.644135 -17.365912,-3.831595 -6.043702,-0.18746 -12.117036,0.832261 -17.991913,3.129341 -5.874878,2.29708 -11.550599,5.871247 -16.10576,10.38785 -4.555161,4.516604 -7.989218,9.975106 -10.430054,15.783784 -2.440836,5.808679 -3.888159,11.966838 -3.892019,17.850503 -0.0039,5.883665 1.435745,11.492122 3.632773,16.223606 2.197028,4.731485 5.151275,8.585504 8.548016,11.742289 3.39674,3.15678 7.23576,5.61615 11.479812,7.6107 4.244052,1.99455 8.892868,3.52416 13.751778,4.34897 4.85891,0.82481 9.92762,0.94478 15.25137,0.31493 z"
         id="path2"
         inkscape:path-effect="#path-effect2"
         inkscape:original-d="m 99.696602,116.16274 c 5.578688,-1.37968 11.157378,-2.75936 16.736078,-4.13903 4.19909,-2.57945 8.39802,-5.15879 12.59704,-7.73819 2.72941,-2.81939 5.45866,-5.638617 8.18807,-8.458011 1.78462,-4.529029 3.56913,-9.057785 5.35375,-13.586812 -0.4649,-5.608794 -0.92977,-11.217255 -1.39468,-16.826049 -1.3797,-3.95915 -2.75932,-7.918064 -4.13902,-11.877214 -3.14932,-4.409052 -6.29846,-8.817843 -9.44779,-13.226895 -4.60401,-3.104332 -9.20774,-6.208479 -13.81175,-9.312814 -6.01371,-1.394701 -12.02706,-2.789318 -18.040769,-4.184019 -6.073695,1.019781 -12.147029,2.039502 -18.220724,3.059283 -5.67606,3.574379 -11.351781,7.148546 -17.027841,10.722925 -3.434262,5.458828 -6.868319,10.91733 -10.302581,16.376158 -1.44741,6.158529 -2.894733,12.316688 -4.342144,18.47522 1.439692,5.608798 2.879296,11.217255 4.318987,16.826051 2.954365,3.854173 5.908612,7.708192 8.862918,11.562287 3.839176,2.45947 7.678198,4.91884 11.517297,7.37827 4.649002,1.52967 9.297818,3.05928 13.946727,4.58892 5.068911,0.11998 10.137621,0.23995 15.206432,0.35992 z"
         sodipodi:nodetypes="ccccccccccccccccccc"
         inkscape:label="head" /><path
         style="display:inline;fill:#000000;fill-opacity:1;stroke:none;stroke-width:2;stroke-dasharray:none;stroke-dashoffset:1.8;stroke-opacity:1"
         d="m 70.549164,61.970436 c 0.148458,0.286312 0.445373,0.858934 0.71578,1.2831 0.270407,0.424167 0.514297,0.699868 0.890748,0.911952 0.376452,0.212084 0.885439,0.360539 1.415649,0.392351 0.53021,0.03181 1.081615,-0.05302 1.611826,-0.286314 0.530211,-0.233294 1.039198,-0.615034 1.39974,-1.092225 0.360542,-0.477192 0.572619,-1.049803 0.625639,-1.606523 0.05302,-0.55672 -0.05302,-1.097521 -0.349939,-1.633034 -0.29692,-0.535512 -0.7847,-1.065708 -1.304307,-1.405042 -0.519608,-0.339333 -1.07101,-0.487786 -1.664846,-0.482483 -0.593836,0.0053 -1.230072,0.164363 -1.717864,0.42947 -0.487793,0.265106 -0.827117,0.636243 -1.092222,1.028599 -0.265104,0.392356 -0.455975,0.805908 -0.556714,1.171753 -0.100739,0.365846 -0.111342,0.683962 -0.116643,0.843023 -0.0053,0.159061 -0.0053,0.159061 0.143153,0.445373 z"
         id="path4"
         inkscape:path-effect="#path-effect4"
         inkscape:original-d="m 70.400706,61.684124 c 0.296915,0.572625 0.59383,1.145246 0.890746,1.717868 0.243898,0.275712 0.487788,0.551413 0.731684,0.827119 0.509008,0.148461 1.017995,0.296916 1.526992,0.445374 0.551424,-0.08483 1.102828,-0.169664 1.654241,-0.254498 0.509008,-0.381757 1.017995,-0.763497 1.526993,-1.145243 0.212087,-0.572636 0.424164,-1.145247 0.636246,-1.717869 -0.106042,-0.540818 -0.212082,-1.081619 -0.318122,-1.622427 -0.487799,-0.530217 -0.975579,-1.060413 -1.463368,-1.59062 -0.551426,-0.14846 -1.102828,-0.296912 -1.654241,-0.44537 -0.636259,0.159065 -1.272495,0.318122 -1.908741,0.477184 -0.339339,0.371152 -0.678664,0.742288 -1.017995,1.113433 -0.190879,0.413567 -0.381749,0.827119 -0.572622,1.240681 -0.01061,0.31813 -0.02122,0.636246 -0.03181,0.954368 z"
         inkscape:label="eye_l" /><path
         style="display:inline;fill:#000000;fill-opacity:1;stroke:none;stroke-width:2;stroke-dasharray:none;stroke-dashoffset:1.8;stroke-opacity:1"
         d="m 70.549164,61.970436 c 0.148458,0.286312 0.445373,0.858934 0.71578,1.2831 0.270407,0.424167 0.514297,0.699868 0.890748,0.911952 0.376452,0.212084 0.885439,0.360539 1.415649,0.392351 0.53021,0.03181 1.081615,-0.05302 1.611826,-0.286314 0.530211,-0.233294 1.039198,-0.615034 1.39974,-1.092225 0.360542,-0.477192 0.572619,-1.049803 0.625639,-1.606523 0.05302,-0.55672 -0.05302,-1.097521 -0.349939,-1.633034 -0.29692,-0.535512 -0.7847,-1.065708 -1.304307,-1.405042 -0.519608,-0.339333 -1.07101,-0.487786 -1.664846,-0.482483 -0.593836,0.0053 -1.230072,0.164363 -1.717864,0.42947 -0.487793,0.265106 -0.827117,0.636243 -1.092222,1.028599 -0.265104,0.392356 -0.455975,0.805908 -0.556714,1.171753 -0.100739,0.365846 -0.111342,0.683962 -0.116643,0.843023 -0.0053,0.159061 -0.0053,0.159061 0.143153,0.445373 z"
         id="path4-5"
         inkscape:path-effect="#path-effect4-2"
         inkscape:original-d="m 70.400706,61.684124 c 0.296915,0.572625 0.59383,1.145246 0.890746,1.717868 0.243898,0.275712 0.487788,0.551413 0.731684,0.827119 0.509008,0.148461 1.017995,0.296916 1.526992,0.445374 0.551424,-0.08483 1.102828,-0.169664 1.654241,-0.254498 0.509008,-0.381757 1.017995,-0.763497 1.526993,-1.145243 0.212087,-0.572636 0.424164,-1.145247 0.636246,-1.717869 -0.106042,-0.540818 -0.212082,-1.081619 -0.318122,-1.622427 -0.487799,-0.530217 -0.975579,-1.060413 -1.463368,-1.59062 -0.551426,-0.14846 -1.102828,-0.296912 -1.654241,-0.44537 -0.636259,0.159065 -1.272495,0.318122 -1.908741,0.477184 -0.339339,0.371152 -0.678664,0.742288 -1.017995,1.113433 -0.190879,0.413567 -0.381749,0.827119 -0.572622,1.240681 -0.01061,0.31813 -0.02122,0.636246 -0.03181,0.954368 z"
         inkscape:label="eye_r"
         transform="translate(41.281612,-0.1317993)" /><path
         style="display:inline;fill:#000000;fill-opacity:1;stroke:none;stroke-width:2;stroke-dasharray:none;stroke-dashoffset:1.8;stroke-opacity:1"
         d="m 95.025197,70.678411 c 0.592361,0.04499 1.777083,0.134968 2.646885,0.247443 0.869802,0.112475 1.42466,0.247441 1.919549,0.457395 0.494889,0.209954 0.929779,0.494881 1.255959,0.826682 0.32617,0.331801 0.54361,0.710457 0.66734,1.126612 0.12372,0.416155 0.15372,0.869792 -0.0225,1.477158 -0.17621,0.607366 -0.55861,1.36842 -1.076,2.041393 -0.51738,0.672973 -1.169714,1.257823 -1.968285,1.788329 -0.798572,0.530505 -1.74333,1.006634 -2.301231,1.276572 -0.5579,0.269938 -0.728892,0.333663 -0.878874,0.367407 -0.149982,0.03374 -0.278883,0.03749 -0.393953,0.03749 -0.11507,0 -0.216292,-0.0037 -0.59496,-0.11997 -0.378668,-0.116224 -1.03475,-0.344915 -1.675857,-0.627978 -0.641106,-0.283062 -1.267194,-0.620476 -1.868934,-1.047881 -0.601741,-0.427405 -1.179094,-0.944774 -1.65711,-1.499649 -0.478016,-0.554875 -0.856669,-1.147223 -1.068495,-1.595246 -0.211826,-0.448023 -0.256815,-0.751696 -0.269937,-1.085371 -0.01312,-0.333676 0.0056,-0.697334 0.110603,-1.042256 0.104977,-0.344922 0.296179,-0.671089 0.650476,-1.01162 0.354297,-0.34053 0.871653,-0.695395 1.465902,-0.935344 0.594249,-0.239949 1.265327,-0.364953 2.022657,-0.466823 0.75733,-0.10187 1.600867,-0.180601 2.022642,-0.219967 0.421775,-0.03937 0.421752,-0.03937 1.014113,0.0056 z"
         id="path5"
         inkscape:path-effect="#path-effect5"
         inkscape:original-d="m 94.432836,70.633422 c 1.184722,0.08998 2.369444,0.179959 3.554166,0.269936 0.554882,0.134972 1.109739,0.269939 1.66461,0.404905 0.434908,0.284941 0.869798,0.569868 1.304698,0.8548 0.21745,0.378669 0.4349,0.757322 0.65234,1.135984 0.03,0.453651 0.06,0.907288 0.09,1.360932 -0.38242,0.761087 -0.76482,1.522142 -1.14723,2.283213 -0.65236,0.584875 -1.304693,1.169726 -1.957039,1.754587 -0.944798,0.47615 -1.889556,0.952278 -2.834335,1.428417 -0.171021,0.06374 -0.342014,0.127462 -0.513051,0.191204 -0.128928,0.0037 -0.257828,0.0075 -0.386739,0.01124 -0.101227,-0.0038 -0.202451,-0.0075 -0.303678,-0.01124 -0.656109,-0.228701 -1.312191,-0.457393 -1.968289,-0.686089 -0.626115,-0.337428 -1.252204,-0.67484 -1.878308,-1.012264 -0.577377,-0.517387 -1.154729,-1.034756 -1.732093,-1.552135 -0.378669,-0.592371 -0.757322,-1.18472 -1.135983,-1.777082 -0.04499,-0.303684 -0.08998,-0.607357 -0.134969,-0.911037 0.01876,-0.36367 0.03749,-0.727329 0.05624,-1.090994 0.191209,-0.326178 0.38241,-0.652346 0.573614,-0.978519 0.51739,-0.354888 1.034746,-0.709753 1.552136,-1.064642 0.671108,-0.125009 1.342186,-0.250013 2.013278,-0.375019 0.843568,-0.07873 1.687105,-0.157465 2.530655,-0.236197 z"
         inkscape:label="nose"
         sodipodi:nodetypes="ccccccccccccccccccccccc" /><g
         inkscape:groupmode="layer"
         id="layer8"
         inkscape:label="mouth"
         style="display:inline"><path
           style="display:inline;fill:#c19e7e;fill-opacity:1;stroke:none;stroke-width:1;stroke-dashoffset:1.8"
           d="m 91.465776,64.097596 c -1.696658,0.36589 -4.207181,1.028105 -6.554688,2.048494 -2.347508,1.020389 -4.531911,2.398897 -6.684568,4.233431 -2.152656,1.834535 -4.273437,4.124978 -5.895877,6.6912 -1.622441,2.566223 -2.746455,5.408071 -3.319076,7.380447 -0.572621,1.972376 -0.593827,3.07518 -0.498388,4.464336 0.09544,1.389155 0.307518,3.064573 0.996797,4.814269 0.689279,1.749697 1.855708,3.573568 3.255468,5.196012 1.399761,1.622445 3.03276,3.043365 5.376299,4.400705 2.343539,1.35734 5.397464,2.65102 8.292414,3.43572 2.89495,0.78471 5.630757,1.06041 8.663566,0.91195 3.03281,-0.14847 6.362427,-0.72108 9.246777,-1.59063 2.88434,-0.86955 5.32324,-2.03598 7.27441,-3.27667 1.95117,-1.24069 3.41451,-2.55557 4.74003,-4.252253 1.32553,-1.696678 2.51317,-3.775045 3.16002,-5.864076 0.64685,-2.089031 0.75289,-4.188603 0.47717,-6.404886 -0.27571,-2.216284 -0.93315,-4.549141 -1.92995,-6.627565 -0.9968,-2.078425 -2.33289,-3.902296 -3.78567,-5.609574 -1.45278,-1.707279 -3.02216,-3.297865 -5.02636,-4.761245 -2.0042,-1.46338 -4.4431,-2.799474 -6.49166,-3.701549 -2.04856,-0.902075 -3.706661,-1.370087 -4.947344,-1.629937 -1.240683,-0.259849 -2.063905,-0.311525 -2.916913,-0.30258 -0.853007,0.0089 -1.7358,0.07851 -3.432457,0.444401 z"
           id="path3"
           inkscape:path-effect="#path-effect3"
           inkscape:original-d="m 92.279641,63.801271 c -2.510523,0.662215 -5.021046,1.32443 -7.531571,1.986646 -2.18449,1.378562 -4.368893,2.75707 -6.55334,4.135605 -2.120866,2.290534 -4.241647,4.580977 -6.36247,6.871464 -1.124058,2.841958 -2.248072,5.683806 -3.372107,8.525708 -0.02122,1.10285 -0.04242,2.205654 -0.06362,3.308483 0.212087,1.675482 0.424164,3.3509 0.636246,5.02635 1.166477,1.823942 2.332906,3.647813 3.499358,5.471721 1.633067,1.420982 3.266067,2.841902 4.899099,4.262852 3.054046,1.29373 6.10797,2.58741 9.161955,3.88111 2.735916,0.27571 5.471723,0.55141 8.207584,0.82712 3.329757,-0.57264 6.659375,-1.14525 9.989065,-1.71787 2.439,-1.16648 4.8779,-2.3329 7.31684,-3.49936 1.4634,-1.31493 2.92674,-2.62981 4.39011,-3.944725 1.18768,-2.078448 2.37532,-4.156813 3.56298,-6.235219 0.10604,-2.099656 0.21208,-4.199228 0.31812,-6.298842 -0.65747,-2.332953 -1.31491,-4.665811 -1.97237,-6.998716 -1.33614,-1.823945 -2.67223,-3.647816 -4.00835,-5.471721 -1.56944,-1.590651 -3.13882,-3.181236 -4.70823,-4.771853 -2.43899,-1.336143 -4.87789,-2.672236 -7.31683,-4.008353 -1.65818,-0.468033 -3.316281,-0.936046 -4.974424,-1.40407 -0.823223,-0.05168 -1.646445,-0.103351 -2.469667,-0.155026 -0.882793,0.06957 -1.765586,0.139131 -2.648378,0.208696 z"
           transform="matrix(1,0,0,0.99080029,0,0.99092427)"
           sodipodi:nodetypes="scccccccccccccccccccsss"
           inkscape:label="mouth_area" /><path
           style="display:inline;fill:#ffffff;fill-opacity:1;stroke:#000000;stroke-width:2;stroke-dasharray:none;stroke-dashoffset:1.8;stroke-opacity:1"
           d="m 94.192893,87.579446 c -0.509879,0.359915 -1.349682,1.244707 -2.24948,1.942049 -0.899799,0.697342 -1.859555,1.207212 -2.504407,1.492145 -0.644852,0.284934 -0.974768,0.344918 -1.177223,0.404907 -0.202456,0.05999 -0.277433,0.119969 8e-6,1.312213 0.27744,1.192243 0.90728,3.516652 1.304689,4.783857 0.397408,1.267204 0.562367,1.477152 1.402186,1.7021 0.839818,0.224949 2.354431,0.464888 3.869091,0.472384 1.51466,0.0075 3.029275,-0.217447 3.854082,-0.37491 0.824807,-0.157463 0.959774,-0.247441 1.334691,-1.484675 0.37492,-1.237233 0.98976,-3.621625 1.2672,-4.881333 0.27743,-1.259708 0.21745,-1.394669 -0.87732,-2.107015 -1.094762,-0.712347 -3.22422,-2.002019 -4.378951,-2.72935 -1.154731,-0.72733 -1.334686,-0.892287 -1.844566,-0.532372 z"
           id="path13"
           inkscape:path-effect="#path-effect13"
           inkscape:original-d="m 94.522815,87.05457 c -0.839803,0.88479 -1.679604,1.769583 -2.519407,2.654377 -0.959795,0.509889 -1.91955,1.019759 -2.879326,1.52964 -0.329927,0.05999 -0.659844,0.11997 -0.989766,0.179957 -0.07499,0.05999 -0.149966,0.119972 -0.224949,0.179959 0.629867,2.324499 1.259705,4.648909 1.889556,6.973363 0.164965,0.209955 0.329925,0.419902 0.494885,0.629852 1.514676,0.239947 3.029289,0.479888 4.543933,0.71983 1.514676,-0.224951 3.029291,-0.449895 4.543936,-0.674841 0.134969,-0.08998 0.269935,-0.179959 0.404905,-0.269936 0.614868,-2.384488 1.229708,-4.768881 1.844568,-7.153322 -0.06,-0.134969 -0.11997,-0.269936 -0.17996,-0.404905 -2.129542,-1.289722 -4.259001,-2.579394 -6.3885,-3.869092 -0.179962,-0.164965 -0.359916,-0.329922 -0.539875,-0.494882 z"
           inkscape:label="teeth" /><path
           style="fill:#ffffff;fill-opacity:1;stroke:#000000;stroke-width:2;stroke-dasharray:none;stroke-dashoffset:1.8;stroke-opacity:1"
           d="m 94.737146,87.961117 c 0,0.222687 0,0.445373 0.01591,2.290523 0.01591,1.84515 0.04772,5.312626 0.07953,8.78017"
           id="path14"
           inkscape:path-effect="#path-effect14"
           inkscape:original-d="m 94.737146,87.961117 c 0,0.222687 0,0.445373 0,0.66806 0.03181,3.467613 0.06363,6.935089 0.09544,10.402633"
           inkscape:label="teeth_separation"
           transform="matrix(0.97275837,0,0,1.9981378,2.582094,-98.815646)" /><path
           style="display:inline;fill:#000000;fill-opacity:1;stroke:#000000;stroke-width:2;stroke-dasharray:none;stroke-dashoffset:1.8;stroke-opacity:1"
           d="m 94.609045,70.742148 c 0.926034,0.0037 1.938296,0.04874 2.916825,0.213702 0.97853,0.164964 1.923291,0.449891 2.5569,0.81731 0.6336,0.367419 0.95602,0.817305 1.13597,1.300946 0.17996,0.483641 0.21745,1.001009 0.09,1.615871 -0.12747,0.614861 -0.4199,1.327182 -0.87355,1.987033 -0.453648,0.659852 -1.06849,1.267196 -1.765835,1.777081 -0.697345,0.509885 -1.477146,0.922279 -2.110752,1.199715 -0.633606,0.277436 -1.120982,0.4199 -1.732095,0.412401 -0.611113,-0.0075 -1.345927,-0.164959 -2.114505,-0.487388 -0.768578,-0.322429 -1.570873,-0.809806 -2.301958,-1.398424 -0.731085,-0.588619 -1.390917,-1.278442 -1.844563,-1.900802 -0.453647,-0.62236 -0.701083,-1.177217 -0.802309,-1.713348 -0.101226,-0.536131 -0.05624,-1.053497 0.221202,-1.559633 0.27744,-0.506136 0.78731,-1.00101 1.495903,-1.364677 0.708592,-0.363667 1.615862,-0.596108 2.489416,-0.731077 0.873553,-0.134969 1.713338,-0.17246 2.639371,-0.16871 z"
           id="path15"
           inkscape:path-effect="#path-effect15"
           inkscape:original-d="m 94.522815,70.700907 c 1.012264,0.04499 2.024526,0.08998 3.036787,0.134969 0.944798,0.284938 1.889559,0.569865 2.834338,0.854798 0.32243,0.449905 0.64485,0.899789 0.96727,1.349684 0.0375,0.517388 0.075,1.034756 0.11247,1.552136 -0.29243,0.712346 -0.58486,1.424665 -0.87729,2.136997 -0.614869,0.60737 -1.22971,1.214715 -1.844567,1.822074 -0.779833,0.412412 -1.559634,0.824805 -2.339451,1.237208 -0.487395,0.14247 -0.97477,0.284935 -1.462157,0.4274 -0.73484,-0.157464 -1.469654,-0.314926 -2.204482,-0.472387 -0.802327,-0.487397 -1.604623,-0.974773 -2.406935,-1.462159 -0.659858,-0.689851 -1.319689,-1.379675 -1.979536,-2.069513 -0.247446,-0.554881 -0.494882,-1.109739 -0.742326,-1.66461 0.04499,-0.51739 0.08998,-1.034756 0.13497,-1.552136 0.509889,-0.494892 1.019759,-0.989766 1.529641,-1.484651 0.907303,-0.232449 1.814573,-0.464891 2.721861,-0.697336 0.839819,-0.03749 1.679604,-0.07498 2.519407,-0.112474 z"
           inkscape:label="nose" /><path
           style="display:inline;fill:#000000;fill-opacity:1;stroke:none;stroke-width:2;stroke-dasharray:none;stroke-dashoffset:1.8;stroke-opacity:1"
           d="m 70.549164,61.970436 c 0.148458,0.286312 0.445373,0.858934 0.71578,1.2831 0.270407,0.424167 0.514297,0.699868 0.890748,0.911952 0.376452,0.212084 0.885439,0.360539 1.415649,0.392351 0.53021,0.03181 1.081615,-0.05302 1.611826,-0.286314 0.530211,-0.233294 1.039198,-0.615034 1.39974,-1.092225 0.360542,-0.477192 0.572619,-1.049803 0.625639,-1.606523 0.05302,-0.55672 -0.05302,-1.097521 -0.349939,-1.633034 -0.29692,-0.535512 -0.7847,-1.065708 -1.304307,-1.405042 -0.519608,-0.339333 -1.07101,-0.487786 -1.664846,-0.482483 -0.593836,0.0053 -1.230072,0.164363 -1.717864,0.42947 -0.487793,0.265106 -0.827117,0.636243 -1.092222,1.028599 -0.265104,0.392356 -0.455975,0.805908 -0.556714,1.171753 -0.100739,0.365846 -0.111342,0.683962 -0.116643,0.843023 -0.0053,0.159061 -0.0053,0.159061 0.143153,0.445373 z"
           id="path4-5-2"
           inkscape:path-effect="#path-effect4-2-1"
           inkscape:original-d="m 70.400706,61.684124 c 0.296915,0.572625 0.59383,1.145246 0.890746,1.717868 0.243898,0.275712 0.487788,0.551413 0.731684,0.827119 0.509008,0.148461 1.017995,0.296916 1.526992,0.445374 0.551424,-0.08483 1.102828,-0.169664 1.654241,-0.254498 0.509008,-0.381757 1.017995,-0.763497 1.526993,-1.145243 0.212087,-0.572636 0.424164,-1.145247 0.636246,-1.717869 -0.106042,-0.540818 -0.212082,-1.081619 -0.318122,-1.622427 -0.487799,-0.530217 -0.975579,-1.060413 -1.463368,-1.59062 -0.551426,-0.14846 -1.102828,-0.296912 -1.654241,-0.44537 -0.636259,0.159065 -1.272495,0.318122 -1.908741,0.477184 -0.339339,0.371152 -0.678664,0.742288 -1.017995,1.113433 -0.190879,0.413567 -0.381749,0.827119 -0.572622,1.240681 -0.01061,0.31813 -0.02122,0.636246 -0.03181,0.954368 z"
           inkscape:label="freckle_4"
           transform="matrix(0.19597844,0,0,0.20540387,68.246289,66.232722)" /><path
           style="display:inline;fill:#000000;fill-opacity:1;stroke:none;stroke-width:2;stroke-dasharray:none;stroke-dashoffset:1.8;stroke-opacity:1"
           d="m 70.549164,61.970436 c 0.148458,0.286312 0.445373,0.858934 0.71578,1.2831 0.270407,0.424167 0.514297,0.699868 0.890748,0.911952 0.376452,0.212084 0.885439,0.360539 1.415649,0.392351 0.53021,0.03181 1.081615,-0.05302 1.611826,-0.286314 0.530211,-0.233294 1.039198,-0.615034 1.39974,-1.092225 0.360542,-0.477192 0.572619,-1.049803 0.625639,-1.606523 0.05302,-0.55672 -0.05302,-1.097521 -0.349939,-1.633034 -0.29692,-0.535512 -0.7847,-1.065708 -1.304307,-1.405042 -0.519608,-0.339333 -1.07101,-0.487786 -1.664846,-0.482483 -0.593836,0.0053 -1.230072,0.164363 -1.717864,0.42947 -0.487793,0.265106 -0.827117,0.636243 -1.092222,1.028599 -0.265104,0.392356 -0.455975,0.805908 -0.556714,1.171753 -0.100739,0.365846 -0.111342,0.683962 -0.116643,0.843023 -0.0053,0.159061 -0.0053,0.159061 0.143153,0.445373 z"
           id="path4-5-2-3"
           inkscape:path-effect="#path-effect4-2-1-1"
           inkscape:original-d="m 70.400706,61.684124 c 0.296915,0.572625 0.59383,1.145246 0.890746,1.717868 0.243898,0.275712 0.487788,0.551413 0.731684,0.827119 0.509008,0.148461 1.017995,0.296916 1.526992,0.445374 0.551424,-0.08483 1.102828,-0.169664 1.654241,-0.254498 0.509008,-0.381757 1.017995,-0.763497 1.526993,-1.145243 0.212087,-0.572636 0.424164,-1.145247 0.636246,-1.717869 -0.106042,-0.540818 -0.212082,-1.081619 -0.318122,-1.622427 -0.487799,-0.530217 -0.975579,-1.060413 -1.463368,-1.59062 -0.551426,-0.14846 -1.102828,-0.296912 -1.654241,-0.44537 -0.636259,0.159065 -1.272495,0.318122 -1.908741,0.477184 -0.339339,0.371152 -0.678664,0.742288 -1.017995,1.113433 -0.190879,0.413567 -0.381749,0.827119 -0.572622,1.240681 -0.01061,0.31813 -0.02122,0.636246 -0.03181,0.954368 z"
           inkscape:label="freckle_3"
           transform="matrix(0.19597844,0,0,0.20540387,65.1579,69.357576)" /><path
           style="display:inline;fill:#000000;fill-opacity:1;stroke:none;stroke-width:2;stroke-dasharray:none;stroke-dashoffset:1.8;stroke-opacity:1"
           d="m 70.549164,61.970436 c 0.148458,0.286312 0.445373,0.858934 0.71578,1.2831 0.270407,0.424167 0.514297,0.699868 0.890748,0.911952 0.376452,0.212084 0.885439,0.360539 1.415649,0.392351 0.53021,0.03181 1.081615,-0.05302 1.611826,-0.286314 0.530211,-0.233294 1.039198,-0.615034 1.39974,-1.092225 0.360542,-0.477192 0.572619,-1.049803 0.625639,-1.606523 0.05302,-0.55672 -0.05302,-1.097521 -0.349939,-1.633034 -0.29692,-0.535512 -0.7847,-1.065708 -1.304307,-1.405042 -0.519608,-0.339333 -1.07101,-0.487786 -1.664846,-0.482483 -0.593836,0.0053 -1.230072,0.164363 -1.717864,0.42947 -0.487793,0.265106 -0.827117,0.636243 -1.092222,1.028599 -0.265104,0.392356 -0.455975,0.805908 -0.556714,1.171753 -0.100739,0.365846 -0.111342,0.683962 -0.116643,0.843023 -0.0053,0.159061 -0.0053,0.159061 0.143153,0.445373 z"
           id="path4-5-2-7"
           inkscape:path-effect="#path-effect4-2-1-16"
           inkscape:original-d="m 70.400706,61.684124 c 0.296915,0.572625 0.59383,1.145246 0.890746,1.717868 0.243898,0.275712 0.487788,0.551413 0.731684,0.827119 0.509008,0.148461 1.017995,0.296916 1.526992,0.445374 0.551424,-0.08483 1.102828,-0.169664 1.654241,-0.254498 0.509008,-0.381757 1.017995,-0.763497 1.526993,-1.145243 0.212087,-0.572636 0.424164,-1.145247 0.636246,-1.717869 -0.106042,-0.540818 -0.212082,-1.081619 -0.318122,-1.622427 -0.487799,-0.530217 -0.975579,-1.060413 -1.463368,-1.59062 -0.551426,-0.14846 -1.102828,-0.296912 -1.654241,-0.44537 -0.636259,0.159065 -1.272495,0.318122 -1.908741,0.477184 -0.339339,0.371152 -0.678664,0.742288 -1.017995,1.113433 -0.190879,0.413567 -0.381749,0.827119 -0.572622,1.240681 -0.01061,0.31813 -0.02122,0.636246 -0.03181,0.954368 z"
           inkscape:label="freckle_2"
           transform="matrix(0.19597844,0,0,0.20540387,92.048137,66.116319)" /><path
           style="display:inline;fill:#000000;fill-opacity:1;stroke:none;stroke-width:2;stroke-dasharray:none;stroke-dashoffset:1.8;stroke-opacity:1"
           d="m 70.549164,61.970436 c 0.148458,0.286312 0.445373,0.858934 0.71578,1.2831 0.270407,0.424167 0.514297,0.699868 0.890748,0.911952 0.376452,0.212084 0.885439,0.360539 1.415649,0.392351 0.53021,0.03181 1.081615,-0.05302 1.611826,-0.286314 0.530211,-0.233294 1.039198,-0.615034 1.39974,-1.092225 0.360542,-0.477192 0.572619,-1.049803 0.625639,-1.606523 0.05302,-0.55672 -0.05302,-1.097521 -0.349939,-1.633034 -0.29692,-0.535512 -0.7847,-1.065708 -1.304307,-1.405042 -0.519608,-0.339333 -1.07101,-0.487786 -1.664846,-0.482483 -0.593836,0.0053 -1.230072,0.164363 -1.717864,0.42947 -0.487793,0.265106 -0.827117,0.636243 -1.092222,1.028599 -0.265104,0.392356 -0.455975,0.805908 -0.556714,1.171753 -0.100739,0.365846 -0.111342,0.683962 -0.116643,0.843023 -0.0053,0.159061 -0.0053,0.159061 0.143153,0.445373 z"
           id="path4-5-2-79"
           inkscape:path-effect="#path-effect4-2-1-8"
           inkscape:original-d="m 70.400706,61.684124 c 0.296915,0.572625 0.59383,1.145246 0.890746,1.717868 0.243898,0.275712 0.487788,0.551413 0.731684,0.827119 0.509008,0.148461 1.017995,0.296916 1.526992,0.445374 0.551424,-0.08483 1.102828,-0.169664 1.654241,-0.254498 0.509008,-0.381757 1.017995,-0.763497 1.526993,-1.145243 0.212087,-0.572636 0.424164,-1.145247 0.636246,-1.717869 -0.106042,-0.540818 -0.212082,-1.081619 -0.318122,-1.622427 -0.487799,-0.530217 -0.975579,-1.060413 -1.463368,-1.59062 -0.551426,-0.14846 -1.102828,-0.296912 -1.654241,-0.44537 -0.636259,0.159065 -1.272495,0.318122 -1.908741,0.477184 -0.339339,0.371152 -0.678664,0.742288 -1.017995,1.113433 -0.190879,0.413567 -0.381749,0.827119 -0.572622,1.240681 -0.01061,0.31813 -0.02122,0.636246 -0.03181,0.954368 z"
           inkscape:label="freckle_1"
           transform="matrix(0.19597844,0,0,0.20540387,95.131549,69.431768)" /><path
           style="display:inline;fill:#000000;fill-opacity:1;stroke:#000000;stroke-width:0.2;stroke-dasharray:none;stroke-dashoffset:1.8;stroke-opacity:1"
           d="m 95.223902,88.805407 c 0.453642,0.333671 1.36093,1.001015 2.553165,1.630874 1.192235,0.629858 2.669363,1.222209 4.071543,1.544633 1.40218,0.322424 2.72935,0.374911 4.10154,0.198699 1.37219,-0.176212 2.78933,-0.581109 3.97406,-1.120988 1.18473,-0.539879 2.13699,-1.21471 2.92431,-1.92705 0.78732,-0.71234 1.40966,-1.462147 1.72834,-2.009524 0.31868,-0.547377 0.33368,-0.892288 0.2362,-1.143482 -0.0975,-0.251194 -0.30742,-0.408652 -0.57736,-0.446142 -0.26994,-0.03749 -0.59986,0.04499 -0.89604,0.307432 -0.29619,0.262443 -0.55862,0.70483 -1.07976,1.244709 -0.52113,0.539879 -1.30093,1.177215 -2.14449,1.702097 -0.84356,0.524881 -1.75083,0.937277 -2.82309,1.199717 -1.07226,0.26244 -2.30945,0.374912 -3.31422,0.401155 -1.00477,0.02624 -1.77708,-0.03374 -2.69562,-0.32618 -0.91855,-0.292436 -1.983275,-0.817302 -2.905566,-1.428416 -0.922291,-0.611114 -1.702092,-1.308435 -2.260715,-1.822068 -0.558623,-0.513633 -0.896038,-0.84355 -1.132233,-0.753566 -0.236196,0.08998 -0.371162,0.599856 -0.389906,1.072248 -0.01874,0.472393 0.07873,0.907283 0.12747,1.124732 0.04874,0.217449 0.04873,0.217449 0.502372,0.55112 z"
           id="path16"
           inkscape:path-effect="#path-effect16"
           inkscape:original-d="m 94.770259,88.471736 c 0.907285,0.667343 1.814573,1.334686 2.721861,2.002031 1.477182,0.592373 2.95431,1.184722 4.43146,1.777082 1.32721,0.05249 2.65438,0.104976 3.98157,0.157464 1.41719,-0.404913 2.83433,-0.80981 4.2515,-1.214715 0.95229,-0.674854 1.90455,-1.349685 2.85683,-2.024526 0.62236,-0.74984 1.2447,-1.499648 1.86706,-2.249471 0.015,-0.344927 0.03,-0.689838 0.045,-1.034757 -0.20996,-0.157466 -0.4199,-0.314928 -0.62985,-0.472389 -0.32993,0.08248 -0.65985,0.164959 -0.98977,0.247441 -0.26245,0.442404 -0.52488,0.884793 -0.78732,1.327189 -0.77983,0.637363 -1.55963,1.274699 -2.33945,1.912051 -0.9073,0.412412 -1.81457,0.824807 -2.72186,1.237211 -1.23723,0.112474 -2.47442,0.224946 -3.71163,0.33742 -0.77233,-0.05999 -1.54464,-0.119973 -2.31696,-0.179959 -1.06477,-0.524886 -2.129495,-1.049753 -3.194244,-1.574631 -0.779833,-0.697349 -1.559634,-1.394671 -2.339451,-2.092007 -0.337429,-0.32993 -0.674844,-0.659847 -1.012264,-0.989769 -0.13497,0.509891 -0.269936,1.019762 -0.404905,1.529641 0.09748,0.434906 0.194955,0.869796 0.292433,1.304694 z"
           inkscape:label="smile_right" /><path
           style="display:inline;fill:#000000;fill-opacity:1;stroke:#000000;stroke-width:0.2;stroke-dasharray:none;stroke-dashoffset:1.8;stroke-opacity:1"
           d="m 95.223902,88.805407 c 0.453642,0.333671 1.36093,1.001015 2.553165,1.630874 1.192235,0.629858 2.669363,1.222209 4.071543,1.544633 1.40218,0.322424 2.72935,0.374911 4.10154,0.198699 1.37219,-0.176212 2.78933,-0.581109 3.97406,-1.120988 1.18473,-0.539879 2.13699,-1.21471 2.92431,-1.92705 0.78732,-0.71234 1.40966,-1.462147 1.72834,-2.009524 0.31868,-0.547377 0.33368,-0.892288 0.2362,-1.143482 -0.0975,-0.251194 -0.30742,-0.408652 -0.57736,-0.446142 -0.26994,-0.03749 -0.59986,0.04499 -0.89604,0.307432 -0.29619,0.262443 -0.55862,0.70483 -1.07976,1.244709 -0.52113,0.539879 -1.30093,1.177215 -2.14449,1.702097 -0.84356,0.524881 -1.75083,0.937277 -2.82309,1.199717 -1.07226,0.26244 -2.30945,0.374912 -3.31422,0.401155 -1.00477,0.02624 -1.77708,-0.03374 -2.69562,-0.32618 -0.91855,-0.292436 -1.983275,-0.817302 -2.905566,-1.428416 -0.922291,-0.611114 -1.702092,-1.308435 -2.260715,-1.822068 -0.558623,-0.513633 -0.896038,-0.84355 -1.132233,-0.753566 -0.236196,0.08998 -0.371162,0.599856 -0.389906,1.072248 -0.01874,0.472393 0.07873,0.907283 0.12747,1.124732 0.04874,0.217449 0.04873,0.217449 0.502372,0.55112 z"
           id="path16-3"
           inkscape:path-effect="#path-effect16-3"
           inkscape:original-d="m 94.770259,88.471736 c 0.907285,0.667343 1.814573,1.334686 2.721861,2.002031 1.477182,0.592373 2.95431,1.184722 4.43146,1.777082 1.32721,0.05249 2.65438,0.104976 3.98157,0.157464 1.41719,-0.404913 2.83433,-0.80981 4.2515,-1.214715 0.95229,-0.674854 1.90455,-1.349685 2.85683,-2.024526 0.62236,-0.74984 1.2447,-1.499648 1.86706,-2.249471 0.015,-0.344927 0.03,-0.689838 0.045,-1.034757 -0.20996,-0.157466 -0.4199,-0.314928 -0.62985,-0.472389 -0.32993,0.08248 -0.65985,0.164959 -0.98977,0.247441 -0.26245,0.442404 -0.52488,0.884793 -0.78732,1.327189 -0.77983,0.637363 -1.55963,1.274699 -2.33945,1.912051 -0.9073,0.412412 -1.81457,0.824807 -2.72186,1.237211 -1.23723,0.112474 -2.47442,0.224946 -3.71163,0.33742 -0.77233,-0.05999 -1.54464,-0.119973 -2.31696,-0.179959 -1.06477,-0.524886 -2.129495,-1.049753 -3.194244,-1.574631 -0.779833,-0.697349 -1.559634,-1.394671 -2.339451,-2.092007 -0.337429,-0.32993 -0.674844,-0.659847 -1.012264,-0.989769 -0.13497,0.509891 -0.269936,1.019762 -0.404905,1.529641 0.09748,0.434906 0.194955,0.869796 0.292433,1.304694 z"
           inkscape:label="smile_right"
           transform="matrix(-0.99315389,0,0,1.0001437,188.7078,0.17051529)" /><path
           style="display:inline;fill:#000000;fill-opacity:1;stroke:#000000;stroke-width:0.2;stroke-dasharray:none;stroke-dashoffset:1.8;stroke-opacity:1"
           d="m 115.55302,73.178984 c -0.68927,0.137854 -2.0678,0.413559 -3.14413,0.66806 -1.07632,0.2545 -1.85041,0.487788 -2.36471,0.673361 -0.5143,0.185573 -0.7688,0.323428 -0.91194,0.477187 -0.14315,0.15376 -0.17495,0.323422 -0.15904,0.487783 0.0159,0.164361 0.0795,0.323431 0.228,0.418867 0.14846,0.09544 0.38174,0.127249 0.75819,0.04771 0.37646,-0.07953 0.89605,-0.270402 1.65425,-0.493091 0.75821,-0.222688 1.75497,-0.47718 3.02748,-0.75289 1.27251,-0.27571 2.82068,-0.57262 4.53326,-0.821818 1.71258,-0.249199 3.58948,-0.450674 5.27555,-0.551413 1.68606,-0.100739 3.18121,-0.100739 4.57567,-0.0053 1.39445,0.09544 2.68813,0.28631 3.69023,0.445372 1.00209,0.159063 1.71255,0.286309 2.06779,0.307519 0.35524,0.02121 0.35524,-0.06363 0.005,-0.22269 -0.34995,-0.159063 -1.04981,-0.39235 -2.12084,-0.630945 -1.07103,-0.238595 -2.51316,-0.482484 -3.8811,-0.636244 -1.36794,-0.15376 -2.66162,-0.217384 -4.74005,-0.127246 -2.07844,0.09014 -4.94149,0.334027 -6.37304,0.455975 -1.43156,0.121947 -1.4316,0.121945 -2.12087,0.259798 z"
           id="path17"
           inkscape:path-effect="#path-effect17"
           inkscape:original-d="m 116.24229,73.041131 c -1.37854,0.275706 -2.75707,0.551413 -4.13561,0.827119 -0.77411,0.233296 -1.5482,0.466582 -2.3223,0.699873 -0.2545,0.137856 -0.509,0.275707 -0.76349,0.41356 -0.0318,0.169669 -0.0636,0.339331 -0.0954,0.508997 0.0636,0.159065 0.12725,0.318125 0.19087,0.477184 0.2333,0.03181 0.46658,0.06363 0.69987,0.09544 0.51962,-0.190878 1.03921,-0.381749 1.55881,-0.572622 0.99681,-0.254502 1.99357,-0.508997 2.99036,-0.763495 1.54823,-0.296923 3.0964,-0.59383 4.6446,-0.890746 1.87696,-0.201483 3.75386,-0.402958 5.63078,-0.604435 1.49521,0 2.99036,0 4.48554,0 1.29373,0.190878 2.58741,0.381749 3.88111,0.572622 0.71049,0.127254 1.42095,0.2545 2.13143,0.381748 0,-0.08483 0,-0.169666 0,-0.254497 -0.69989,-0.233296 -1.39975,-0.466582 -2.09962,-0.699873 -1.44219,-0.243898 -2.88432,-0.487789 -4.32648,-0.731684 -1.29372,-0.06363 -2.5874,-0.127249 -3.8811,-0.190873 -2.86317,0.243898 -5.72622,0.487788 -8.58933,0.731684 z"
           inkscape:label="whisker_1" /><path
           style="display:inline;fill:#000000;fill-opacity:1;stroke:#000000;stroke-width:0.2;stroke-dasharray:none;stroke-dashoffset:1.8;stroke-opacity:1"
           d="m 115.55302,73.178984 c -0.68927,0.137854 -2.0678,0.413559 -3.14413,0.66806 -1.07632,0.2545 -1.85041,0.487788 -2.36471,0.673361 -0.5143,0.185573 -0.7688,0.323428 -0.91194,0.477187 -0.14315,0.15376 -0.17495,0.323422 -0.15904,0.487783 0.0159,0.164361 0.0795,0.323431 0.228,0.418867 0.14846,0.09544 0.38174,0.127249 0.75819,0.04771 0.37646,-0.07953 0.89605,-0.270402 1.65425,-0.493091 0.75821,-0.222688 1.75497,-0.47718 3.02748,-0.75289 1.27251,-0.27571 2.82068,-0.57262 4.53326,-0.821818 1.71258,-0.249199 3.58948,-0.450674 5.27555,-0.551413 1.68606,-0.100739 3.18121,-0.100739 4.57567,-0.0053 1.39445,0.09544 2.68813,0.28631 3.69023,0.445372 1.00209,0.159063 1.71255,0.286309 2.06779,0.307519 0.35524,0.02121 0.35524,-0.06363 0.005,-0.22269 -0.34995,-0.159063 -1.04981,-0.39235 -2.12084,-0.630945 -1.07103,-0.238595 -2.51316,-0.482484 -3.8811,-0.636244 -1.36794,-0.15376 -2.66162,-0.217384 -4.74005,-0.127246 -2.07844,0.09014 -4.94149,0.334027 -6.37304,0.455975 -1.43156,0.121947 -1.4316,0.121945 -2.12087,0.259798 z"
           id="path17-8"
           inkscape:path-effect="#path-effect17-1"
           inkscape:original-d="m 116.24229,73.041131 c -1.37854,0.275706 -2.75707,0.551413 -4.13561,0.827119 -0.77411,0.233296 -1.5482,0.466582 -2.3223,0.699873 -0.2545,0.137856 -0.509,0.275707 -0.76349,0.41356 -0.0318,0.169669 -0.0636,0.339331 -0.0954,0.508997 0.0636,0.159065 0.12725,0.318125 0.19087,0.477184 0.2333,0.03181 0.46658,0.06363 0.69987,0.09544 0.51962,-0.190878 1.03921,-0.381749 1.55881,-0.572622 0.99681,-0.254502 1.99357,-0.508997 2.99036,-0.763495 1.54823,-0.296923 3.0964,-0.59383 4.6446,-0.890746 1.87696,-0.201483 3.75386,-0.402958 5.63078,-0.604435 1.49521,0 2.99036,0 4.48554,0 1.29373,0.190878 2.58741,0.381749 3.88111,0.572622 0.71049,0.127254 1.42095,0.2545 2.13143,0.381748 0,-0.08483 0,-0.169666 0,-0.254497 -0.69989,-0.233296 -1.39975,-0.466582 -2.09962,-0.699873 -1.44219,-0.243898 -2.88432,-0.487789 -4.32648,-0.731684 -1.29372,-0.06363 -2.5874,-0.127249 -3.8811,-0.190873 -2.86317,0.243898 -5.72622,0.487788 -8.58933,0.731684 z"
           inkscape:label="whisker_2"
           transform="matrix(-1.0210964,0,0,0.76754209,191.46936,17.053988)" /><path
           style="display:inline;fill:#000000;fill-opacity:1;stroke:#000000;stroke-width:0.2;stroke-dasharray:none;stroke-dashoffset:1.8;stroke-opacity:1"
           d="m 112.74292,77.531971 c -0.22268,0.03712 -0.66805,0.111343 -1.06041,0.222688 -0.39235,0.111345 -0.73168,0.259801 -0.91725,0.440073 -0.18556,0.180272 -0.21736,0.392348 -0.12191,0.551411 0.0954,0.159063 0.31812,0.265101 0.67867,0.275706 0.36054,0.0106 0.85892,-0.07423 1.43685,-0.153759 0.57793,-0.07953 1.23537,-0.153758 2.16855,-0.185571 0.93317,-0.03181 2.14202,-0.02121 3.39862,0.111344 1.2566,0.132554 2.56088,0.387049 3.95533,0.710478 1.39446,0.323429 2.87901,0.715774 4.19393,1.10813 1.31492,0.392355 2.46014,0.7847 3.49405,1.161149 1.03391,0.37645 1.95645,0.736981 2.46013,0.927851 0.50369,0.19087 0.58854,0.212082 0.63626,0.180271 0.0477,-0.03181 0.0583,-0.116645 -0.36585,-0.37645 -0.42418,-0.259806 -1.2831,-0.694568 -2.23218,-1.155852 -0.94908,-0.461284 -1.98826,-0.949063 -3.21835,-1.405043 -1.23009,-0.455981 -2.65101,-0.880136 -3.85989,-1.230075 -1.20888,-0.349939 -2.20565,-0.625641 -3.90763,-0.816516 -1.70198,-0.190874 -4.10907,-0.296914 -5.31264,-0.349934 -1.20357,-0.05302 -1.20359,-0.05302 -1.42628,-0.0159 z"
           id="path18"
           inkscape:path-effect="#path-effect18"
           inkscape:original-d="m 112.96561,77.494857 c -0.44537,0.07423 -0.89074,0.148457 -1.33611,0.222686 -0.33934,0.148461 -0.67867,0.296916 -1.018,0.445373 -0.0318,0.212088 -0.0636,0.424164 -0.0954,0.636246 0.22269,0.106045 0.44537,0.212085 0.66806,0.318125 0.4984,-0.08483 0.99678,-0.169667 1.49517,-0.254498 0.65747,-0.07423 1.31491,-0.148457 1.97237,-0.222686 1.20889,0.01061 2.41774,0.02122 3.62661,0.03181 1.30433,0.254505 2.60861,0.508997 3.91291,0.763497 1.48461,0.392359 2.96916,0.784704 4.45373,1.177055 1.14527,0.392361 2.29049,0.784706 3.43573,1.177057 0.92258,0.360548 1.84512,0.72108 2.76768,1.081619 0.0848,0.02122 0.16966,0.04242 0.2545,0.06362 0.0106,-0.08483 0.0212,-0.169664 0.0318,-0.254498 -0.85895,-0.434776 -1.71787,-0.869537 -2.5768,-1.304306 -1.03923,-0.487799 -2.07841,-0.975579 -3.11761,-1.463368 -1.42098,-0.424172 -2.8419,-0.848328 -4.26285,-1.272492 -0.99681,-0.275714 -1.99358,-0.551416 -2.99036,-0.827122 -2.40718,-0.106042 -4.81427,-0.212082 -7.22141,-0.318124 z"
           inkscape:label="whisker_3" /><path
           style="display:inline;fill:#000000;fill-opacity:1;stroke:#000000;stroke-width:0.2;stroke-dasharray:none;stroke-dashoffset:1.8;stroke-opacity:1"
           d="m 112.74292,77.531971 c -0.22268,0.03712 -0.66805,0.111343 -1.06041,0.222688 -0.39235,0.111345 -0.73168,0.259801 -0.91725,0.440073 -0.18556,0.180272 -0.21736,0.392348 -0.12191,0.551411 0.0954,0.159063 0.31812,0.265101 0.67867,0.275706 0.36054,0.0106 0.85892,-0.07423 1.43685,-0.153759 0.57793,-0.07953 1.23537,-0.153758 2.16855,-0.185571 0.93317,-0.03181 2.14202,-0.02121 3.39862,0.111344 1.2566,0.132554 2.56088,0.387049 3.95533,0.710478 1.39446,0.323429 2.87901,0.715774 4.19393,1.10813 1.31492,0.392355 2.46014,0.7847 3.49405,1.161149 1.03391,0.37645 1.95645,0.736981 2.46013,0.927851 0.50369,0.19087 0.58854,0.212082 0.63626,0.180271 0.0477,-0.03181 0.0583,-0.116645 -0.36585,-0.37645 -0.42418,-0.259806 -1.2831,-0.694568 -2.23218,-1.155852 -0.94908,-0.461284 -1.98826,-0.949063 -3.21835,-1.405043 -1.23009,-0.455981 -2.65101,-0.880136 -3.85989,-1.230075 -1.20888,-0.349939 -2.20565,-0.625641 -3.90763,-0.816516 -1.70198,-0.190874 -4.10907,-0.296914 -5.31264,-0.349934 -1.20357,-0.05302 -1.20359,-0.05302 -1.42628,-0.0159 z"
           id="path18-9"
           inkscape:path-effect="#path-effect18-2"
           inkscape:original-d="m 112.96561,77.494857 c -0.44537,0.07423 -0.89074,0.148457 -1.33611,0.222686 -0.33934,0.148461 -0.67867,0.296916 -1.018,0.445373 -0.0318,0.212088 -0.0636,0.424164 -0.0954,0.636246 0.22269,0.106045 0.44537,0.212085 0.66806,0.318125 0.4984,-0.08483 0.99678,-0.169667 1.49517,-0.254498 0.65747,-0.07423 1.31491,-0.148457 1.97237,-0.222686 1.20889,0.01061 2.41774,0.02122 3.62661,0.03181 1.30433,0.254505 2.60861,0.508997 3.91291,0.763497 1.48461,0.392359 2.96916,0.784704 4.45373,1.177055 1.14527,0.392361 2.29049,0.784706 3.43573,1.177057 0.92258,0.360548 1.84512,0.72108 2.76768,1.081619 0.0848,0.02122 0.16966,0.04242 0.2545,0.06362 0.0106,-0.08483 0.0212,-0.169664 0.0318,-0.254498 -0.85895,-0.434776 -1.71787,-0.869537 -2.5768,-1.304306 -1.03923,-0.487799 -2.07841,-0.975579 -3.11761,-1.463368 -1.42098,-0.424172 -2.8419,-0.848328 -4.26285,-1.272492 -0.99681,-0.275714 -1.99358,-0.551416 -2.99036,-0.827122 -2.40718,-0.106042 -4.81427,-0.212082 -7.22141,-0.318124 z"
           inkscape:label="whisker_4"
           transform="matrix(-0.97150645,0,0,1.0005998,185.85141,-0.24279818)" /><path
           style="display:inline;fill:#000000;fill-opacity:1;stroke:#000000;stroke-width:0.2;stroke-dasharray:none;stroke-dashoffset:1.8;stroke-opacity:1"
           d="m 115.55913,82.270691 c -0.40116,-0.149966 -1.20347,-0.449895 -1.75459,-0.584862 -0.55112,-0.134968 -0.85105,-0.104974 -1.04976,-0.01499 -0.1987,0.08998 -0.29617,0.239936 -0.28118,0.40115 0.015,0.161213 0.14247,0.333672 0.4649,0.476139 0.32243,0.142467 0.8398,0.254938 1.43217,0.434897 0.59236,0.179959 1.25969,0.427396 2.41069,0.974776 1.15099,0.54738 2.78558,1.394669 3.96281,2.054518 1.17723,0.65985 1.89705,1.13223 2.51566,1.597125 0.61861,0.464895 1.13598,0.922282 1.42466,1.150977 0.28869,0.228695 0.34866,0.228695 0.38991,0.19495 0.0412,-0.03374 0.0637,-0.101224 -0.33742,-0.513637 -0.40117,-0.412413 -1.22596,-1.16972 -2.04327,-1.833319 -0.81732,-0.6636 -1.62711,-1.233452 -2.74811,-1.9158 -1.121,-0.682347 -2.55314,-1.477146 -3.26922,-1.874552 -0.71608,-0.397406 -0.71609,-0.397407 -1.11725,-0.547373 z"
           id="path19"
           inkscape:path-effect="#path-effect19"
           inkscape:original-d="m 115.96029,82.420657 c -0.80232,-0.299931 -1.60463,-0.59986 -2.40694,-0.899789 -0.29993,0.02999 -0.59986,0.05999 -0.89979,0.08998 -0.0975,0.149966 -0.19495,0.299929 -0.29243,0.449895 0.12747,0.172461 0.25494,0.344919 0.38241,0.517377 0.51739,0.112477 1.03476,0.224949 1.55214,0.33742 0.66735,0.247449 1.33468,0.494885 2.00203,0.742326 1.63464,0.84732 3.26923,1.694603 4.90384,2.541905 0.71985,0.472398 1.43967,0.944777 2.1595,1.417166 0.51739,0.457401 1.03476,0.914787 1.55213,1.37218 0.06,0 0.11997,0 0.17996,0 0.0225,-0.06749 0.045,-0.134969 0.0675,-0.202454 -0.82483,-0.757338 -1.64962,-1.514644 -2.47442,-2.271967 -0.80983,-0.569878 -1.61962,-1.139732 -2.42943,-1.709599 -1.43219,-0.79483 -2.86433,-1.589625 -4.29649,-2.384439 z"
           inkscape:label="whisker_5" /><path
           style="display:inline;fill:#000000;fill-opacity:1;stroke:#000000;stroke-width:0.2;stroke-dasharray:none;stroke-dashoffset:1.8;stroke-opacity:1"
           d="m 115.55913,82.270691 c -0.40116,-0.149966 -1.20347,-0.449895 -1.75459,-0.584862 -0.55112,-0.134968 -0.85105,-0.104974 -1.04976,-0.01499 -0.1987,0.08998 -0.29617,0.239936 -0.28118,0.40115 0.015,0.161213 0.14247,0.333672 0.4649,0.476139 0.32243,0.142467 0.8398,0.254938 1.43217,0.434897 0.59236,0.179959 1.25969,0.427396 2.41069,0.974776 1.15099,0.54738 2.78558,1.394669 3.96281,2.054518 1.17723,0.65985 1.89705,1.13223 2.51566,1.597125 0.61861,0.464895 1.13598,0.922282 1.42466,1.150977 0.28869,0.228695 0.34866,0.228695 0.38991,0.19495 0.0412,-0.03374 0.0637,-0.101224 -0.33742,-0.513637 -0.40117,-0.412413 -1.22596,-1.16972 -2.04327,-1.833319 -0.81732,-0.6636 -1.62711,-1.233452 -2.74811,-1.9158 -1.121,-0.682347 -2.55314,-1.477146 -3.26922,-1.874552 -0.71608,-0.397406 -0.71609,-0.397407 -1.11725,-0.547373 z"
           id="path19-5"
           inkscape:path-effect="#path-effect19-9"
           inkscape:original-d="m 115.96029,82.420657 c -0.80232,-0.299931 -1.60463,-0.59986 -2.40694,-0.899789 -0.29993,0.02999 -0.59986,0.05999 -0.89979,0.08998 -0.0975,0.149966 -0.19495,0.299929 -0.29243,0.449895 0.12747,0.172461 0.25494,0.344919 0.38241,0.517377 0.51739,0.112477 1.03476,0.224949 1.55214,0.33742 0.66735,0.247449 1.33468,0.494885 2.00203,0.742326 1.63464,0.84732 3.26923,1.694603 4.90384,2.541905 0.71985,0.472398 1.43967,0.944777 2.1595,1.417166 0.51739,0.457401 1.03476,0.914787 1.55213,1.37218 0.06,0 0.11997,0 0.17996,0 0.0225,-0.06749 0.045,-0.134969 0.0675,-0.202454 -0.82483,-0.757338 -1.64962,-1.514644 -2.47442,-2.271967 -0.80983,-0.569878 -1.61962,-1.139732 -2.42943,-1.709599 -1.43219,-0.79483 -2.86433,-1.589625 -4.29649,-2.384439 z"
           inkscape:label="whisker_6"
           transform="matrix(-1.021049,0,0,0.99972217,191.5157,-0.0548513)" /></g></g></g></svg>

