<?xml version="1.0" encoding="UTF-8" standalone="no"?>
<svg
   width="600"
   height="900"
   viewBox="0 0 200 300"
   font-family="sans-serif"
   version="1.1"
   id="svg19"
   sodipodi:docname="avatar-rig-guide.svg.2026_06_19_00_22_05.0.svg"
   inkscape:export-filename="..\public\avatars\clothing\04.svg"
   inkscape:export-xdpi="96"
   inkscape:export-ydpi="96"
   xmlns:inkscape="http://www.inkscape.org/namespaces/inkscape"
   xmlns:sodipodi="http://sodipodi.sourceforge.net/DTD/sodipodi-0.dtd"
   xmlns="http://www.w3.org/2000/svg"
   xmlns:svg="http://www.w3.org/2000/svg">
  <defs
     id="defs19">
    <linearGradient
       id="swatch19"
       inkscape:swatch="solid">
      <stop
         style="stop-color:#000000;stop-opacity:1;"
         offset="0"
         id="stop19" />
    </linearGradient>
    <inkscape:path-effect
       effect="bspline"
       id="path-effect19-8"
       is_visible="true"
       lpeversion="1.3"
       weight="33.333333"
       steps="2"
       helper_size="0"
       apply_no_weight="true"
       apply_with_weight="true"
       only_selected="false"
       uniform="false" />
  </defs>
  <sodipodi:namedview
     id="namedview19"
     pagecolor="#ffffff"
     bordercolor="#000000"
     borderopacity="0.25"
     inkscape:showpageshadow="2"
     inkscape:pageopacity="0.0"
     inkscape:pagecheckerboard="0"
     inkscape:deskcolor="#d1d1d1">
    <inkscape:page
       x="0"
       y="0"
       width="200"
       height="300"
       id="page2"
       margin="0"
       bleed="0" />
  </sodipodi:namedview>
  <!-- ================================================================
       AVATAR RIG GUIDE -- reference only, never ships as a game asset.
       Canvas: 200 x 300, shared by every layer (body, hair, hats,
       clothing).

       Head is WIDER than the body and the two are directly connected
       -- no neck segment. The torso's top edge tucks up underneath the
       head circle's curve (inside its radius), so when the head paints
       on top of the torso in z-order, it fully covers the join and the
       two read as one continuous connected shape, the way the
       Cyanide & Happiness reference does it.

       Body is otherwise simple and symmetric -- no 3/4 perspective, no
       near/far limb split. Facing direction (screen-right, per the
       Slay the Spire reference -- player left, enemies right) is sold
       through hair shape and facial feature placement (eyes/eyebrows/
       mouth angled or offset, all procedural/code-side) rather than
       any change to this rig.

       Draw your asset directly on top of this file in Inkscape, using
       the shapes/crosshairs for alignment, then delete the "guides"
       group, the "labels" group, and the backdrop rect below --
       before saving your real asset, nothing from this file should
       remain except what you drew.
       ================================================================ -->
  <!-- Backdrop -->
  <!-- Anchor point markers + labels -->
  <g
     inkscape:groupmode="layer"
     id="layer1"
     inkscape:label="Face Outline"
     style="display:inline">
    <path
       style="fill:#d2b399;fill-opacity:1;fill-rule:nonzero;stroke:#000000;stroke-width:2.73801;stroke-dasharray:none;stroke-opacity:1"
       d="m 100.25707,120.05141 c 0,0 8.22622,-0.7712 8.22622,-0.7712 0,0 11.05399,-3.72751 11.05399,-3.72751 0,0 7.58354,-4.69152 7.58354,-4.69152 2.69923,-2.50643 5.39846,-5.01285 7.92633,-8.33337 2.52788,-3.320526 4.8843,-7.454974 6.55526,-11.793066 1.67096,-4.338091 2.65638,-8.87956 2.92415,-13.399742 0.26778,-4.520183 -0.18209,-9.018806 -1.40319,-13.506855 -1.2211,-4.48805 -3.21334,-8.96525 -5.84834,-13.056975 -2.63499,-4.091725 -5.91256,-7.797734 -9.77936,-10.829035 -3.8668,-3.031301 -8.32258,-5.387724 -12.4143,-6.972994 -4.09173,-1.585269 -7.81916,-2.399305 -12.06085,-2.613526 -4.241694,-0.214222 -8.997384,0.171375 -13.613967,1.42461 -4.616584,1.253234 -9.093788,3.374015 -12.639228,5.366321 -3.545441,1.992306 -6.158928,3.856023 -8.558264,6.116117 -2.399335,2.260095 -4.584383,4.916427 -6.619534,8.504733 -2.035151,3.588305 -3.920289,8.108352 -5.002125,13.056991 -1.081837,4.94864 -1.360324,10.325567 -0.889018,15.252775 0.471306,4.927208 1.692362,9.404412 3.802503,13.828192 2.110141,4.423781 5.109223,8.793874 7.947723,12.039394 2.8385,3.24552 5.516253,5.3663 8.408317,7.16581 2.892064,1.7995 5.998255,3.27761 9.136677,4.39159 3.138422,1.11397 6.308883,1.86374 8.858172,2.22792 2.54929,0.36418 4.477272,0.34274 5.441283,0.33203 0.964011,-0.0107 0.964011,-0.0107 0.964011,-0.0107 z"
       id="fill"
       inkscape:path-effect="#path-effect19-8"
       inkscape:original-d="m 100.25707,120.05141 8.22622,-0.7712 11.05399,-3.72751 7.58354,-4.69152 c 0,0 5.39846,-5.01285 8.09769,-7.51928 2.35652,-4.134614 4.71294,-8.269064 7.06941,-12.403598 0.98545,-4.54165 1.97086,-9.083119 2.9563,-13.624679 -0.44988,-4.498804 -0.89975,-8.997427 -1.34962,-13.496144 -1.99233,-4.47738 -3.98457,-8.954583 -5.97686,-13.431876 -3.2777,-3.706157 -6.55527,-7.412167 -9.83291,-11.11825 -4.45596,-2.356517 -8.91174,-4.71294 -13.36761,-7.06941 -3.72758,-0.814069 -7.45501,-1.628106 -11.18252,-2.442159 -4.755874,0.385612 -9.511564,0.771208 -14.267348,1.156812 -4.477383,2.120865 -8.954586,4.241647 -13.431876,6.362467 -2.613593,1.86379 -5.22708,3.727507 -7.840617,5.59126 -2.185133,2.656437 -4.37018,5.31277 -6.55527,7.969153 -1.885213,4.520227 -3.770353,9.040273 -5.655526,13.56041 -0.2785,5.377143 -0.556987,10.75407 -0.835477,16.131107 1.221103,4.477379 2.44216,8.954583 3.66324,13.431876 2.999203,4.370267 5.998283,8.740361 8.997427,13.110541 2.67786,2.12086 5.355613,4.24164 8.03342,6.36247 3.106316,1.47818 6.21251,2.95629 9.318766,4.43444 3.170587,0.7498 6.341047,1.49958 9.511567,2.24936 1.92806,-0.0214 3.856043,-0.0428 5.784064,-0.0643 z"
       transform="matrix(0.9792234,0,0,0.96869431,2.2009853,2.0320581)" />
  </g>
</svg>
