<?xml version="1.0" encoding="UTF-8" standalone="no"?>
<svg
   width="600"
   height="900"
   viewBox="0 0 200 300"
   font-family="sans-serif"
   version="1.1"
   id="svg19"
   sodipodi:docname="avatar rig.svg"
   inkscape:export-filename="..\public\avatars\clothing\01.svg"
   inkscape:export-xdpi="96"
   inkscape:export-ydpi="96"
   inkscape:version="1.4.2 (f4327f4, 2025-05-13)"
   xml:space="preserve"
   xmlns:inkscape="http://www.inkscape.org/namespaces/inkscape"
   xmlns:sodipodi="http://sodipodi.sourceforge.net/DTD/sodipodi-0.dtd"
   xmlns="http://www.w3.org/2000/svg"
   xmlns:svg="http://www.w3.org/2000/svg"><defs
     id="defs19"><linearGradient
       id="swatch19"
       inkscape:swatch="solid"><stop
         style="stop-color:#000000;stop-opacity:1;"
         offset="0"
         id="stop19" /></linearGradient><inkscape:path-effect
       effect="bspline"
       id="path-effect1-4"
       is_visible="true"
       lpeversion="1.3"
       weight="33.333333"
       steps="2"
       helper_size="0"
       apply_no_weight="true"
       apply_with_weight="true"
       only_selected="false"
       uniform="false" /><inkscape:path-effect
       effect="bspline"
       id="path-effect5-1"
       is_visible="true"
       lpeversion="1.3"
       weight="33.333333"
       steps="2"
       helper_size="0"
       apply_no_weight="true"
       apply_with_weight="true"
       only_selected="false"
       uniform="false" /><inkscape:path-effect
       effect="bspline"
       id="path-effect4-7"
       is_visible="true"
       lpeversion="1.3"
       weight="33.333333"
       steps="2"
       helper_size="0"
       apply_no_weight="true"
       apply_with_weight="true"
       only_selected="false"
       uniform="false" /><inkscape:path-effect
       effect="bspline"
       id="path-effect2-1"
       is_visible="true"
       lpeversion="1.3"
       weight="33.333333"
       steps="2"
       helper_size="0"
       apply_no_weight="true"
       apply_with_weight="true"
       only_selected="false"
       uniform="false" /><inkscape:path-effect
       effect="bspline"
       id="path-effect1-5"
       is_visible="true"
       lpeversion="1.3"
       weight="33.333333"
       steps="2"
       helper_size="0"
       apply_no_weight="true"
       apply_with_weight="true"
       only_selected="false"
       uniform="false" /><inkscape:path-effect
       effect="bspline"
       id="path-effect4-1"
       is_visible="true"
       lpeversion="1.3"
       weight="33.333333"
       steps="2"
       helper_size="0"
       apply_no_weight="true"
       apply_with_weight="true"
       only_selected="false"
       uniform="false" /><inkscape:path-effect
       effect="bspline"
       id="path-effect4-14"
       is_visible="true"
       lpeversion="1.3"
       weight="33.333333"
       steps="2"
       helper_size="0"
       apply_no_weight="true"
       apply_with_weight="true"
       only_selected="false"
       uniform="false" /></defs><sodipodi:namedview
     id="namedview19"
     pagecolor="#ffffff"
     bordercolor="#000000"
     borderopacity="0.25"
     inkscape:showpageshadow="2"
     inkscape:pageopacity="0.0"
     inkscape:pagecheckerboard="0"
     inkscape:deskcolor="#d1d1d1"
     inkscape:zoom="3.667527"
     inkscape:cx="224.40189"
     inkscape:cy="243.07933"
     inkscape:window-width="2560"
     inkscape:window-height="1369"
     inkscape:window-x="-8"
     inkscape:window-y="-8"
     inkscape:window-maximized="1"
     inkscape:current-layer="layer4"><inkscape:page
       x="0"
       y="0"
       width="200"
       height="300"
       id="page2"
       margin="0"
       bleed="0" /></sodipodi:namedview><!-- ================================================================
       AVATAR RIG GUIDE -- reference only, never ships as a game asset.
       Canvas: 200 x 300, shared by every layer (body, hair, hats,
       clothing).

       Head is WIDER than the body and the two are directly connected
       -- no neck segment. The torso's top edge tucks up underneath the
       head circle's curve (inside its radius), so when the head paints
       on top of the torso in z-order, it fully covers the join and the
       two read as one continuous connected shape, the way the
       Cyanide & Happiness reference does it.

       Body is otherwise simple and symmetric -- no 3/4 perspective, no
       near/far limb split. Facing direction (screen-right, per the
       Slay the Spire reference -- player left, enemies right) is sold
       through hair shape and facial feature placement (eyes/eyebrows/
       mouth angled or offset, all procedural/code-side) rather than
       any change to this rig.

       Draw your asset directly on top of this file in Inkscape, using
       the shapes/crosshairs for alignment, then delete the "guides"
       group, the "labels" group, and the backdrop rect below --
       before saving your real asset, nothing from this file should
       remain except what you drew.
       ================================================================ --><!-- Backdrop --><!-- Anchor point markers + labels --><g
     inkscape:groupmode="layer"
     id="layer2"
     inkscape:label="Clothing"><g
       style="font-family:sans-serif"
       id="g30"
       transform="translate(-0.20439246,7.1282745)"><path
         style="fill:#d55750;fill-opacity:1;stroke:#000000;stroke-width:2.66667;stroke-dasharray:none;stroke-opacity:1"
         d="m 70.029991,108.67609 c -0.535561,7.30506 -1.22108,21.61526 -1.34961,35.60425 -0.128531,13.989 0.299909,27.65625 0.556979,34.5757 0.257069,6.91945 0.342759,7.09083 0.514142,7.21937 0.171384,0.12853 0.428447,0.21422 10.36866,0.1928 9.940214,-0.0214 29.562788,-0.14996 39.502808,-0.23565 9.94001,-0.0857 10.19708,-0.12854 10.43273,-0.23565 0.23565,-0.10711 0.44987,-0.27849 0.74979,-7.04812 0.29991,-6.76963 0.68551,-20.13696 0.59982,-33.80463 -0.0857,-13.66766 -0.64267,-27.63482 -1.0497,-34.85419 -0.40703,-7.21937 -0.66409,-7.69066 -1.0497,-7.99057 -0.38561,-0.29992 -0.89974,-0.42845 -10.49719,-0.6641 -9.59744,-0.23565 -28.277444,-0.5784 -37.703326,-0.70693 -9.425881,-0.12854 -9.597255,-0.0429 -9.87575,0.14995 -0.278496,0.19281 -0.664093,0.49272 -1.199653,7.79777 z"
         id="path1"
         inkscape:path-effect="#path-effect1-4"
         inkscape:original-d="m 70.179949,101.67095 c -0.68552,14.3102 -1.371036,28.6204 -2.056556,42.93059 0.428456,13.6678 0.856896,27.33505 1.285346,41.00257 0.08569,0.17138 0.17138,0.34276 0.25707,0.51414 0.257074,0.0857 0.51414,0.17138 0.771207,0.25707 19.62336,-0.12854 39.245934,-0.25707 58.868894,-0.38561 0.25708,-0.0428 0.51414,-0.0857 0.77121,-0.12853 0.21423,-0.17138 0.42845,-0.34276 0.64267,-0.51414 0.38562,-13.36788 0.77121,-26.73521 1.15682,-40.10282 -0.557,-13.96772 -1.11397,-27.93488 -1.67095,-41.90232 -0.25708,-0.4713 -0.51414,-0.94259 -0.77121,-1.41388 -0.51415,-0.12854 -1.02828,-0.25707 -1.54242,-0.3856 -18.68075,-0.34277 -37.360754,-0.68552 -56.041131,-1.02828 -0.171383,0.0857 -0.34276,0.17138 -0.51414,0.25707 -0.38561,0.29992 -0.771206,0.59983 -1.15681,0.89974 z"
         transform="matrix(1.0043559,0,0,0.80199284,-0.43575029,19.79612)"
         inkscape:label="fill" /><g
         inkscape:label="Layer 1"
         id="layer1-2"
         transform="matrix(0.27312627,0,0,0.26118796,71.465819,104.0492)"><path
           style="opacity:0.384787;fill:#1a1a1a;stroke-width:0.264583"
           d="m 101.08069,164.50094 c 0.007,-1.54156 0.0223,-4.6247 0.067,-7.13442 0.0447,-2.50972 0.11916,-4.44595 0.37237,-6.59076 0.25321,-2.14482 0.68513,-4.49809 1.43731,-7.0674 0.75217,-2.5693 1.82455,-5.3545 2.74056,-7.39504 0.91601,-2.04054 1.67561,-3.33633 3.01612,-5.25028 1.34051,-1.91395 3.26185,-4.44595 5.71945,-7.49188 2.45761,-3.04593 5.45132,-6.60562 7.54399,-9.39089 2.09267,-2.78527 3.2842,-4.79597 4.22255,-6.76949 0.93835,-1.97353 1.62348,-3.90976 2.115,-5.74178 0.49151,-1.832029 0.78939,-3.559743 0.84897,-5.756689 0.0596,-2.196946 -0.11915,-4.862985 -0.58088,-7.246108 -0.46174,-2.383123 -1.20644,-4.483185 -2.11501,-6.344997 -0.90856,-1.861812 -1.98094,-3.485268 -3.15761,-4.885353 -1.17667,-1.400084 -2.45756,-2.576717 -4.08106,-3.686359 -1.62351,-1.109641 -3.58953,-2.152226 -5.42156,-2.904397 -1.83202,-0.75217 -3.52995,-1.213888 -5.59284,-1.452196 -2.0629,-0.238309 -4.49063,-0.253202 -6.99291,0.08193 -2.502283,0.335131 -5.07896,1.020259 -7.26845,1.936274 -2.189491,0.916015 -3.991674,2.062859 -5.458781,3.23208 -1.467108,1.16922 -2.599059,2.360748 -3.693806,3.872544 -1.094747,1.511797 -2.152226,3.343769 -2.949081,5.248407 -0.796855,1.904638 -1.333042,3.881826 -1.636516,5.080828 -0.303473,1.199002 -0.374219,1.619761 -0.450553,2.005156 -0.07633,0.385394 -0.158252,0.735406 -0.336988,1.046329 -0.178735,0.310922 -0.454276,0.58274 -0.81547,0.739131 -0.361193,0.156392 -0.808014,0.197351 -1.223199,0.167561 -0.415186,-0.02979 -0.798707,-0.130325 -1.105906,-0.301612 -0.307198,-0.171288 -0.538058,-0.413318 -0.675831,-0.698176 -0.137773,-0.284858 -0.182454,-0.612528 -0.208517,-1.048195 -0.02606,-0.435667 -0.03351,-0.979297 0.08565,-1.828288 0.119159,-0.848991 0.364911,-2.003283 0.733551,-3.254424 0.36864,-1.25114 0.860145,-2.599055 1.522954,-4.084786 0.662808,-1.48573 1.496876,-3.109185 2.405442,-4.516715 0.908567,-1.40753 1.891577,-2.599057 2.941642,-3.693804 1.050065,-1.094747 2.16712,-2.092649 3.433157,-3.031004 1.266036,-0.938355 2.680975,-1.817106 4.371506,-2.613962 1.690531,-0.796856 3.656549,-1.511772 5.726888,-2.025631 2.07034,-0.513859 4.244876,-0.826636 6.523746,-0.923448 2.27886,-0.09681 4.66191,0.02234 7.06738,0.476626 2.40546,0.454286 4.8332,1.243674 7.08227,2.271399 2.24907,1.027725 4.31935,2.293724 6.25563,3.991704 1.93629,1.69798 3.73847,3.827831 5.21302,6.039669 1.47456,2.211837 2.6214,4.505528 3.41081,7.31315 0.78941,2.807622 1.22134,6.129003 1.14686,9.53985 -0.0745,3.410848 -0.65535,6.910957 -1.66073,10.150517 -1.00539,3.23955 -2.43522,6.21836 -4.31938,9.2345 -1.88416,3.01615 -4.22253,6.06943 -6.46416,8.80257 -2.24162,2.73315 -4.38637,5.14599 -6.1886,7.44719 -1.80224,2.3012 -3.26186,4.49063 -4.52044,7.00037 -1.25859,2.50973 -2.31607,5.3396 -3.05335,8.01316 -0.73727,2.67357 -1.15431,5.19067 -1.35538,10.86551 -0.20107,5.67485 -0.18617,14.50704 -0.17755,19.38492 0.009,4.87789 0.011,5.80126 -0.0458,6.42884 -0.0568,0.62757 -0.17262,0.95932 -0.39116,1.29108 -0.21854,0.33176 -0.53976,0.66351 -0.88731,0.84781 -0.34756,0.18431 -0.72143,0.22118 -3.23597,0.24224 -2.514545,0.0211 -7.169558,0.0263 -9.773578,-0.008 -2.604019,-0.0342 -3.156938,-0.10795 -3.751998,-0.32649 -0.595059,-0.21854 -1.232227,-0.58189 -1.740393,-0.92681 -0.508166,-0.34492 -0.887312,-0.67141 -1.266464,-1.09796 -0.379152,-0.42654 -0.758296,-0.95313 -1.074256,-1.52449 -0.31596,-0.57136 -0.568722,-1.18747 -0.755664,-1.86152 -0.186942,-0.67405 -0.308056,-1.406 -0.402843,-2.35651 -0.09479,-0.95052 -0.163244,-2.11954 -0.360721,-3.79151 -0.197477,-1.67196 -0.52396,-3.84676 -0.958407,-5.88207 -0.434447,-2.03531 -0.976831,-3.93102 -1.669312,-5.88997 -0.692482,-1.95896 -1.53502,-3.98105 -2.430241,-5.80308 -0.895222,-1.82204 -1.843073,-3.44392 -3.217507,-5.37918 -1.374433,-1.93527 -3.175356,-4.18379 -4.939468,-6.26386 -1.764111,-2.08007 -3.491309,-3.99157 -5.408139,-6.18224 -1.916831,-2.19066 -4.023175,-4.66035 -5.784652,-6.98002 -1.761477,-2.31968 -3.177991,-4.48921 -4.315445,-6.44289 -1.137454,-1.95369 -1.995788,-3.69142 -2.925241,-6.0664 -0.929452,-2.37498 -1.929965,-5.38705 -2.606643,-7.82784 -0.676678,-2.44079 -1.029489,-4.31016 -1.253293,-5.81887 -0.223805,-1.50871 -0.31859,-2.65667 -0.360719,-3.6888 -0.04213,-1.032135 -0.0316,-1.948395 0.06582,-2.527653 0.09742,-0.579258 0.281726,-0.821486 0.516064,-1.005796 0.234339,-0.18431 0.518695,-0.31069 0.866252,-0.363349 0.347556,-0.05266 0.758293,-0.0316 1.134812,0.08426 0.376519,0.115853 0.7188,0.326487 0.939972,0.566091 0.221172,0.239603 0.321223,0.508162 0.402846,0.918912 0.08162,0.41075 0.144813,0.963666 0.242234,1.885222 0.09742,0.921557 0.229067,2.211687 0.473938,3.783597 0.24487,1.5719 0.602948,3.42548 1.174312,5.52662 0.571364,2.10114 1.355976,4.44971 2.206438,6.54822 0.850463,2.0985 1.766719,3.94681 2.75673,5.74252 0.990011,1.79571 2.053715,3.53871 3.58876,5.61352 1.535046,2.07481 3.541333,4.4813 5.510821,6.69829 1.969488,2.21699 3.902054,4.24434 5.52135,6.04532 1.619297,1.80097 2.92523,3.37546 3.983696,4.76042 1.058466,1.38496 1.869403,2.5803 2.654038,3.80202 0.784636,1.22171 1.542921,2.46972 2.201171,3.6572 0.658251,1.18749 1.216429,2.31438 1.816754,3.73621 0.600325,1.42182 1.24276,3.13849 1.758829,4.73936 0.516069,1.60087 0.90574,3.08583 1.2296,4.47606 0.32386,1.39023 0.581884,2.68562 0.784626,4.02319 0.202741,1.33757 0.350185,2.71722 0.458138,3.9995 0.107953,1.28227 0.176409,2.46708 0.265931,3.25435 0.08952,0.78726 0.200106,1.17694 0.431812,1.60612 0.231705,0.42918 0.584518,0.89784 0.995267,1.25329 0.410749,0.35546 0.87941,0.59769 1.411277,0.72407 0.531867,0.12638 1.126909,0.13692 2.996355,0.16588 1.869447,0.029 5.01316,0.0764 6.656139,0.0974 1.642978,0.0211 1.785168,0.0158 1.879958,-0.0105 0.0948,-0.0263 0.14218,-0.0737 0.15509,-2.37121 0.0129,-2.29749 -0.009,-6.84489 -0.0194,-9.11864 -0.0108,-2.27374 -0.0111,-2.27376 -0.004,-3.81533 z"
           id="path1-7"
           inkscape:path-effect="#path-effect1-5"
           inkscape:original-d="m 101.07324,166.04251 c 0.0149,-3.08313 0.0298,-6.16627 0.0447,-9.24941 0.0745,-1.9363 0.14895,-3.87253 0.22342,-5.8088 0.43194,-2.35336 0.86387,-4.70663 1.29581,-7.05994 1.07242,-2.7853 2.14479,-5.5705 3.21718,-8.35574 0.75963,-1.29584 1.51923,-2.59163 2.27884,-3.88744 1.92142,-2.53209 3.84276,-5.06408 5.76413,-7.59613 2.99383,-3.55982 5.98754,-7.11951 8.98131,-10.67927 1.19157,-2.01078 2.3831,-4.02148 3.57465,-6.03222 0.68515,-1.93631 1.37028,-3.87254 2.05542,-5.80881 0.2979,-1.727778 0.59578,-3.455492 0.89366,-5.183239 -0.17873,-2.666146 -0.35746,-5.332185 -0.53619,-7.99828 -0.74474,-2.100149 -1.48944,-4.200213 -2.23416,-6.300322 -1.07241,-1.623518 -2.14479,-3.246972 -3.21719,-4.870461 -1.28094,-1.176678 -2.56183,-2.35331 -3.84274,-3.529967 -1.9661,-1.042628 -3.93212,-2.085213 -5.89818,-3.12782 -1.69799,-0.461735 -3.39592,-0.923451 -5.09387,-1.385175 -2.42784,-0.0149 -4.85557,-0.02979 -7.28335,-0.04468 -2.576783,0.685154 -5.15346,1.370282 -7.730186,2.055423 -1.802255,1.14689 -3.604438,2.293734 -5.406658,3.440602 -1.131996,1.191572 -2.263947,2.3831 -3.395919,3.574651 -1.057521,1.832043 -2.114999,3.664016 -3.172502,5.496025 -0.536207,1.977266 -1.072393,3.954455 -1.608593,5.931683 -0.07075,0.420775 -0.141496,0.841534 -0.212243,1.262301 -0.08192,0.350022 -0.163838,0.700034 -0.245758,1.050052 -0.275551,0.271827 -0.551093,0.543644 -0.826638,0.815467 -0.446841,0.04096 -0.893662,0.08192 -1.340493,0.12288 -0.38354,-0.100539 -0.767061,-0.201075 -1.150591,-0.301612 -0.230867,-0.242038 -0.461727,-0.484068 -0.692589,-0.726101 -0.04468,-0.327684 -0.08937,-0.655352 -0.134048,-0.983028 -0.0075,-0.543658 -0.0149,-1.087289 -0.02233,-1.630936 0.245761,-1.154335 0.491514,-2.308627 0.737269,-3.462941 0.491525,-1.347967 0.98303,-2.695882 1.474544,-4.043823 0.834102,-1.62352 1.668172,-3.246974 2.502255,-4.870463 0.983048,-1.191572 1.966058,-2.383099 2.949088,-3.57465 1.1171,-0.997943 2.234155,-1.995845 3.351233,-2.993769 1.414995,-0.878787 2.829934,-1.757537 4.244899,-2.636305 1.966097,-0.714944 3.932115,-1.429859 5.898173,-2.14479 2.174621,-0.312787 4.349157,-0.625565 6.523737,-0.938347 2.38315,0.119158 4.7662,0.23831 7.1493,0.357465 2.42783,0.789419 4.85557,1.578806 7.28335,2.368206 2.07036,1.266047 4.14064,2.532044 6.21095,3.798068 1.80226,2.129938 3.60444,4.259791 5.40666,6.389687 1.14689,2.293779 2.29374,4.587467 3.4406,6.881201 0.43195,3.321513 0.86388,6.642894 1.29582,9.964338 -0.5809,3.50025 -1.16177,7.00036 -1.74265,10.50053 -1.42989,2.97894 -2.85972,5.95775 -4.28958,8.93663 -2.33846,3.05341 -4.67683,6.10669 -7.01525,9.16004 -2.14483,2.41294 -4.28958,4.82578 -6.43437,7.23867 -1.45968,2.18951 -2.9193,4.37894 -4.37895,6.56842 -1.05752,2.82999 -2.115,5.65986 -3.1725,8.48979 -0.41705,2.5172 -0.83408,5.0343 -1.25113,7.55145 0.0149,8.83254 0.0298,17.66473 0.0447,26.4971 0.002,0.9234 0.004,1.84677 0.007,2.77016 -0.11586,0.33176 -0.23171,0.66351 -0.34756,0.99527 -0.32123,0.33176 -0.64244,0.66351 -0.96367,0.99526 -0.37389,0.0369 -0.74776,0.0737 -1.12165,0.11059 -4.655195,0.005 -9.310208,0.0105 -13.965313,0.0158 -0.552937,-0.0737 -1.105853,-0.14744 -1.658777,-0.22116 -0.637196,-0.36336 -1.274362,-0.72671 -1.911543,-1.09006 -0.379155,-0.32649 -0.758298,-0.65298 -1.137446,-0.97947 -0.379159,-0.5266 -0.758298,-1.05319 -1.137449,-1.57978 -0.25277,-0.61613 -0.505531,-1.23224 -0.758296,-1.84835 -0.121121,-0.73199 -0.242234,-1.46394 -0.363352,-2.19591 -0.06846,-1.16906 -0.136914,-2.33808 -0.205372,-3.50713 -0.326496,-2.17488 -0.652979,-4.34968 -0.979469,-6.52452 -0.542404,-1.89578 -1.084787,-3.79149 -1.62718,-5.68723 -0.842571,-2.02217 -1.685107,-4.04426 -2.52766,-6.06638 -0.947891,-1.62195 -1.895745,-3.24383 -2.843617,-4.86575 -1.800992,-2.24861 -3.601916,-4.49713 -5.402871,-6.74569 -1.727269,-1.91158 -3.454469,-3.82308 -5.181703,-5.73463 -2.106425,-2.46978 -4.212765,-4.93947 -6.31915,-7.4092 -1.416571,-2.16962 -2.833084,-4.33915 -4.249626,-6.50872 -0.858369,-1.7378 -1.716704,-3.47553 -2.575055,-5.2133 -1.00055,-3.01219 -2.001062,-6.02426 -3.001594,-9.03638 -0.352827,-1.86946 -0.705639,-3.73883 -1.058458,-5.60825 -0.09479,-1.148 -0.189574,-2.29596 -0.284361,-3.443931 0.01053,-0.916294 0.02106,-1.832554 0.03159,-2.74883 0.184314,-0.242239 0.368618,-0.484468 0.552926,-0.726702 0.284369,-0.126386 0.568725,-0.252767 0.853086,-0.379148 0.410752,0.02106 0.821489,0.04213 1.232233,0.06319 0.342294,0.210642 0.684575,0.421277 1.026864,0.631915 0.100055,0.268568 0.200104,0.537128 0.300159,0.80569 0.06319,0.552937 0.126381,1.105853 0.189574,1.658776 0.131651,1.29019 0.263298,2.58032 0.394946,3.87048 0.358093,1.85365 0.716172,3.70723 1.074256,5.56085 0.784643,2.34866 1.569255,4.69723 2.353882,7.04585 0.916297,1.84839 1.832554,3.6967 2.74883,5.54505 1.063744,1.74307 2.127448,3.48607 3.191171,5.2291 2.00637,2.40659 4.01266,4.81308 6.018988,7.21963 1.932646,2.02743 3.865213,4.05478 5.79782,6.08218 1.305983,1.57455 2.611916,3.14904 3.917873,4.72356 0.810974,1.1954 1.621914,2.39074 2.432873,3.58612 0.758311,1.24805 1.516594,2.49606 2.274893,3.74409 0.558202,1.12694 1.116382,2.25383 1.674574,3.38075 0.642458,1.71673 1.284893,3.4334 1.927341,5.15011 0.389687,1.48503 0.77936,2.96999 1.169041,4.45499 0.258037,1.29546 0.516064,2.59085 0.774096,3.88628 0.14745,1.37971 0.294894,2.75936 0.442341,4.13904 0.06846,1.18487 0.136914,2.36968 0.205373,3.55453 0.110587,0.38968 0.22117,0.77936 0.331755,1.16904 0.352825,0.46868 0.705639,0.93734 1.058458,1.40601 0.468678,0.24224 0.937339,0.48447 1.406009,0.7267 0.595066,0.0105 1.190106,0.0211 1.78516,0.0316 3.14384,0.0474 6.287553,0.0948 9.43133,0.14218 0.14219,-0.005 0.28437,-0.0105 0.42654,-0.0158 0.0474,-0.0474 0.0948,-0.0948 0.14219,-0.14218 -0.0216,-4.54759 -0.0432,-9.09499 -0.0647,-13.64248 z" /><path
           style="opacity:0.384787;fill:#1a1a1a;stroke-width:0.264583"
           d="m 106.96768,43.536264 c -1.32187,-0.0074 -3.96562,-0.02235 -6.84026,0.18618 -2.87465,0.208524 -5.980064,0.640453 -8.769061,1.228789 -2.788997,0.588335 -5.261414,1.333038 -7.86051,2.371934 -2.599096,1.038896 -5.324713,2.371916 -7.942424,3.887436 -2.617712,1.51552 -5.127365,3.213445 -7.406225,5.108776 -2.278861,1.89533 -4.326795,3.987947 -6.274254,6.359903 -1.947459,2.371957 -3.794325,5.023103 -5.246537,7.536553 -1.452213,2.513451 -2.509692,4.889055 -3.306546,6.985457 -0.796855,2.096402 -1.333042,3.913479 -1.750087,5.551875 -0.417046,1.638397 -0.714927,3.098016 -0.882489,4.118286 -0.167562,1.02027 -0.204797,1.601142 -0.323954,2.074041 -0.119157,0.472899 -0.320227,0.837804 -0.666527,1.102182 -0.3463,0.264378 -0.837803,0.428212 -1.325599,0.457999 -0.487797,0.02979 -0.971852,-0.07447 -1.333044,-0.279272 -0.361191,-0.204801 -0.599497,-0.510129 -0.740994,-0.841533 -0.141497,-0.331404 -0.186178,-0.688862 -0.126599,-1.519236 0.05958,-0.830375 0.223413,-2.133606 0.528752,-3.686363 0.305339,-1.552757 0.752161,-3.354939 1.407522,-5.455071 0.655362,-2.100132 1.51922,-4.498079 2.662377,-6.955676 1.143158,-2.457596 2.565544,-4.974696 4.405021,-7.618474 1.839477,-2.643779 4.095931,-5.414078 6.66524,-7.983382 2.569309,-2.569304 5.451312,-4.937462 8.128601,-6.802997 2.67729,-1.865535 5.149707,-3.228343 7.819552,-4.472035 2.669846,-1.243691 5.536956,-2.368194 8.82865,-3.302824 3.291695,-0.934629 7.007767,-1.679333 10.723951,-2.062864 3.716184,-0.383531 7.432254,-0.405874 10.999494,-0.175007 3.56724,0.230868 6.98543,0.714925 9.83772,1.310707 2.8523,0.595782 5.13854,1.30325 7.43975,2.155963 2.3012,0.852714 4.61723,1.850619 7.12323,3.194853 2.50601,1.344235 5.20184,3.034713 7.53655,4.732689 2.33472,1.697976 4.30818,3.403345 6.16627,5.250267 1.85809,1.846923 3.6007,3.835285 5.32102,6.199796 1.72031,2.36451 3.41824,5.105018 4.74385,7.603573 1.32561,2.498554 2.27883,4.755008 3.09803,7.059937 0.81919,2.304929 1.50432,4.65819 2.02935,7.339209 0.52503,2.681019 0.88994,5.689622 1.04633,8.471172 0.15639,2.781549 0.10426,5.335885 -0.0745,7.782313 -0.17874,2.44642 -0.48407,4.78479 -1.03517,7.33176 -0.5511,2.54696 -1.34793,5.30237 -2.23788,7.76741 -0.88995,2.46504 -1.87296,4.63957 -3.07942,6.89237 -1.20646,2.2528 -2.63629,4.58372 -4.1816,6.78811 -1.54531,2.20439 -3.206,4.28211 -4.688,6.05083 -1.482,1.76873 -2.78524,3.22835 -4.1034,4.72525 -1.31816,1.4969 -2.65119,3.03099 -3.99914,4.67684 -1.34795,1.64584 -2.71076,3.40334 -4.05127,5.45134 -1.34051,2.048 -2.65863,4.38637 -3.73848,6.79183 -1.07986,2.40547 -1.92137,4.87789 -2.53204,7.12324 -0.61067,2.24535 -0.99047,4.26349 -1.28464,6.345 -0.29417,2.08152 -0.50269,4.22626 -0.65908,5.63006 -0.15639,1.40381 -0.26065,2.06659 -0.48779,2.7294 -0.22715,0.66281 -0.57715,1.32559 -0.97931,1.92509 -0.40215,0.59951 -0.85642,1.1357 -1.41869,1.63094 -0.56227,0.49524 -1.2325,0.94951 -1.88041,1.23995 -0.64791,0.29044 -1.27347,0.41705 -2.10756,0.48035 -0.8341,0.0633 -1.87668,0.0633 -3.05707,0.0708 -1.1804,0.007 -2.49852,0.0223 -3.31027,-0.0558 -0.81174,-0.0782 -1.11707,-0.24948 -1.35538,-0.45428 -0.23832,-0.2048 -0.4096,-0.44311 -0.5027,-0.72983 -0.0931,-0.28672 -0.10799,-0.62183 -0.0931,-0.9309 0.0149,-0.30906 0.0596,-0.59205 0.17129,-0.8527 0.11171,-0.26065 0.29043,-0.49896 0.50268,-0.66652 0.21225,-0.16756 0.458,-0.26437 0.93835,-0.32395 0.48035,-0.0596 1.19527,-0.0819 2.27141,-0.0931 1.07613,-0.0112 2.51341,-0.0112 3.44431,-0.0856 0.9309,-0.0745 1.35538,-0.22342 1.77615,-0.52876 0.42077,-0.30534 0.83781,-0.76705 1.16176,-1.37401 0.32396,-0.60695 0.55482,-1.3591 0.741,-2.68472 0.18618,-1.32562 0.32767,-3.22461 0.50268,-4.8779 0.17501,-1.65329 0.38353,-3.06078 0.69259,-4.63216 0.30906,-1.57137 0.71865,-3.30653 1.34422,-5.2391 0.62558,-1.93257 1.46709,-4.06242 2.35704,-6.00616 0.88995,-1.94373 1.82828,-3.70123 3.08314,-5.6338 1.25487,-1.93256 2.82619,-4.04007 4.24117,-5.81624 1.41498,-1.77617 2.67353,-3.2209 4.01777,-4.72524 1.34423,-1.50435 2.77406,-3.06823 4.15925,-4.65822 1.38519,-1.58999 2.72565,-3.206 4.00286,-4.9077 1.2772,-1.7017 2.49107,-3.48899 3.56348,-5.25771 1.0724,-1.76873 2.00328,-3.51878 2.99377,-5.76413 0.99048,-2.24536 2.04052,-4.98587 2.79269,-7.62965 0.75217,-2.64378 1.20644,-5.19067 1.48944,-6.98172 0.28299,-1.79106 0.39469,-2.8262 0.47289,-4.472051 0.0782,-1.645851 0.12288,-3.902304 0.0112,-6.062009 -0.11172,-2.159705 -0.37981,-4.222536 -0.77452,-6.27798 -0.3947,-2.055444 -0.916,-4.103382 -1.58625,-6.177442 -0.67026,-2.074061 -1.48943,-4.17413 -2.36076,-6.11414 -0.87133,-1.94001 -1.79476,-3.719853 -2.95654,-5.600287 -1.16177,-1.880435 -2.56182,-3.861348 -3.99169,-5.622624 -1.42988,-1.761276 -2.8895,-3.302814 -4.39012,-4.728962 -1.50062,-1.426149 -3.04216,-2.736827 -4.84812,-4.062441 -1.80597,-1.325613 -3.87625,-2.666083 -6.20724,-3.928393 -2.331,-1.262309 -4.92257,-2.446388 -7.5589,-3.403358 -2.63633,-0.956971 -5.31726,-1.686779 -7.92381,-2.18202 -2.60654,-0.495241 -5.13853,-0.755886 -6.40456,-0.886212 -1.26602,-0.130326 -1.266,-0.130359 -2.58788,-0.137807 z"
           id="path2"
           inkscape:path-effect="#path-effect2-1"
           inkscape:original-d="m 108.28956,43.543712 c -2.64375,-0.0149 -5.2875,-0.02979 -7.93125,-0.04469 -3.10554,0.431946 -6.210954,0.863875 -9.316432,1.295813 -2.472516,0.744733 -4.944933,1.489437 -7.417401,2.234155 -2.725724,1.333074 -5.45134,2.666095 -8.177011,3.99914 -2.509753,1.697992 -5.019405,3.395919 -7.529108,5.093877 -2.048018,2.092703 -4.095953,4.185319 -6.143932,6.27798 -1.846939,2.651252 -3.693805,5.302398 -5.540708,7.953598 -1.057521,2.375701 -2.115,4.751305 -3.172502,7.126959 -0.536207,1.81715 -1.072393,3.634227 -1.608593,5.451343 -0.297891,1.459677 -0.595773,2.919296 -0.893662,4.378946 -0.03724,0.58089 -0.07447,1.161762 -0.111707,1.742641 -0.201078,0.364919 -0.402148,0.729824 -0.603223,1.094738 -0.491525,0.16384 -0.983028,0.327676 -1.474542,0.491514 -0.484079,-0.104262 -0.968134,-0.208521 -1.452202,-0.312783 -0.238316,-0.30534 -0.476621,-0.610669 -0.714931,-0.916003 -0.04468,-0.357474 -0.08937,-0.714931 -0.134048,-1.072396 0.16384,-1.303285 0.327675,-2.606516 0.491513,-3.909775 0.446842,-1.802254 0.893662,-3.604437 1.340493,-5.406657 0.863894,-2.398043 1.727751,-4.795991 2.591623,-7.193983 1.422442,-2.517201 2.844826,-5.034302 4.26724,-7.551449 2.256541,-2.77041 4.512995,-5.540709 6.769494,-8.311063 2.882119,-2.368254 5.764122,-4.736412 8.646186,-7.104618 2.472516,-1.362863 4.944933,-2.725671 7.417398,-4.088506 2.867226,-1.124548 5.734336,-2.24905 8.601504,-3.373577 3.716221,-0.744734 7.432293,-1.489438 11.14844,-2.234155 3.716221,-0.02236 7.432291,-0.04469 11.148441,-0.06703 3.41833,0.484079 6.83652,0.968134 10.25478,1.452203 2.28633,0.707495 4.57257,1.414965 6.85886,2.122447 2.31612,0.997945 4.63215,1.995848 6.94822,2.993771 2.69594,1.690545 5.39177,3.381023 8.08765,5.071536 1.97355,1.705438 3.94701,3.410813 5.92052,5.116216 1.74267,1.988442 3.48528,3.976802 5.22792,5.965201 1.698,2.740618 3.39592,5.481129 5.09388,8.221694 0.95326,2.256544 1.90648,4.512998 2.85972,6.769494 0.68516,2.35336 1.37028,4.706623 2.05542,7.059935 0.36492,3.008726 0.72983,6.017329 1.09474,9.025993 -0.0521,2.554436 -0.10426,5.108771 -0.15639,7.663149 -0.30534,2.33847 -0.61067,4.67684 -0.916,7.01526 -0.79687,2.75551 -1.5937,5.51092 -2.39055,8.26637 -0.98305,2.17463 -1.96606,4.34916 -2.94909,6.52374 -1.42989,2.33102 -2.85972,4.66194 -4.28958,6.99291 -1.66076,2.07781 -3.32145,4.15553 -4.98217,6.2333 -1.30328,1.45968 -2.60651,2.9193 -3.90977,4.37894 -1.33307,1.53416 -2.6661,3.06825 -3.99914,4.60237 -1.36286,1.75757 -2.72567,3.51507 -4.08851,5.27261 -1.31818,2.33846 -2.6363,4.67683 -3.95446,7.01525 -0.84155,2.47251 -1.68306,4.94493 -2.52459,7.4174 -0.37982,2.01823 -0.75961,4.03637 -1.13942,6.05456 -0.20853,2.14484 -0.41704,4.28958 -0.62557,6.43437 -0.10426,0.66282 -0.20852,1.3256 -0.31278,1.9884 -0.35002,0.66282 -0.70003,1.3256 -1.05005,1.9884 -0.45429,0.53621 -0.90856,1.0724 -1.36284,1.60859 -0.67026,0.45429 -1.34049,0.90856 -2.01074,1.36284 -0.62557,0.12661 -1.25113,0.2532 -1.87669,0.37981 -1.04263,0 -2.08521,0 -3.12782,0 -1.31818,0.0149 -2.6363,0.0298 -3.95445,0.0447 -0.30534,-0.17129 -0.61067,-0.34257 -0.91601,-0.51386 -0.17129,-0.23831 -0.34257,-0.47662 -0.51386,-0.71493 -0.0149,-0.33513 -0.0298,-0.67024 -0.0447,-1.00537 0.0447,-0.283 0.0894,-0.56598 0.13405,-0.84898 0.17874,-0.23831 0.35746,-0.47662 0.5362,-0.71493 0.24576,-0.0968 0.49151,-0.19362 0.73727,-0.29044 0.71494,-0.0223 1.42986,-0.0447 2.14479,-0.067 1.43734,0 2.87462,0 4.31192,0 0.4245,-0.14895 0.84898,-0.29789 1.27347,-0.44683 0.41705,-0.46174 0.83409,-0.92345 1.25113,-1.38518 0.23087,-0.75218 0.46173,-1.50433 0.69259,-2.2565 0.1415,-1.89907 0.28299,-3.79806 0.42449,-5.6971 0.20852,-1.40754 0.41704,-2.81503 0.62556,-4.22255 0.40961,-1.73523 0.81919,-3.47039 1.22879,-5.20559 0.84155,-2.12994 1.68306,-4.25979 2.52459,-6.38969 0.93837,-1.75757 1.8767,-3.51507 2.81504,-5.2726 1.57139,-2.1076 3.14272,-4.21511 4.71407,-6.32267 1.2586,-1.44478 2.51715,-2.88951 3.77573,-4.33426 1.42989,-1.56394 2.85972,-3.12782 4.28958,-4.69173 1.34052,-1.61607 2.68098,-3.23208 4.02148,-4.84812 1.21391,-1.78736 2.42778,-3.57465 3.64167,-5.36197 0.93092,-1.75013 1.8618,-3.50018 2.7927,-5.25027 1.05007,-2.74062 2.10011,-5.48113 3.15016,-8.2217 0.45429,-2.54699 0.90856,-5.09388 1.36284,-7.64081 0.11171,-1.03518 0.22341,-2.07032 0.33512,-3.105478 0.0447,-2.256544 0.0894,-4.512996 0.13405,-6.769494 -0.2681,-2.062914 -0.5362,-4.125744 -0.8043,-6.188615 -0.52131,-2.048018 -1.04261,-4.095954 -1.56391,-6.143929 -0.8192,-2.100149 -1.63838,-4.200216 -2.45757,-6.300322 -0.92347,-1.779913 -1.8469,-3.559757 -2.77035,-5.339633 -1.4001,-1.980994 -2.80015,-3.961905 -4.20022,-5.942856 -1.45968,-1.5416 -2.9193,-3.083137 -4.37894,-4.624705 -1.5416,-1.310733 -3.08314,-2.62141 -4.62471,-3.932116 -2.07036,-1.340519 -4.14064,-2.680989 -6.21095,-4.021482 -2.59168,-1.184126 -5.18325,-2.368206 -7.77487,-3.552309 -2.68104,-0.729839 -5.36197,-1.459648 -8.04296,-2.189472 -2.5321,-0.260656 -5.06409,-0.521303 -7.59614,-0.781954 z" /><path
           style="opacity:0.384787;fill:#1a1a1a;stroke-width:0.264583"
           d="m 107.45449,198.41337 c 3.14115,-0.008 9.42343,-0.0237 12.73836,-0.0316 3.31492,-0.008 3.66247,-0.008 4.00739,0.10532 0.34493,0.11322 0.68721,0.33966 0.92944,0.67668 0.24223,0.33702 0.38441,0.78462 0.38967,1.20327 0.005,0.41865 -0.12637,0.80832 -0.37651,1.12691 -0.25014,0.3186 -0.61875,0.56609 -1.13218,0.68984 -0.51344,0.12375 -1.17167,0.12375 -7.58836,0.13955 -6.41669,0.0158 -18.591344,0.0474 -24.813073,0.0421 -6.221729,-0.005 -6.490298,-0.0474 -6.779926,-0.15798 -0.289628,-0.11059 -0.600314,-0.28963 -0.816218,-0.5108 -0.215903,-0.22117 -0.337021,-0.48447 -0.389681,-0.82939 -0.05266,-0.34493 -0.03686,-0.77146 0.05529,-1.10848 0.09216,-0.33703 0.260661,-0.58452 0.463403,-0.7741 0.202742,-0.18957 0.439706,-0.32122 0.716173,-0.39758 0.276467,-0.0764 0.592413,-0.0974 3.841572,-0.11586 3.24916,-0.0184 9.431268,-0.0342 12.522387,-0.0421 3.09112,-0.008 3.09112,-0.008 6.23226,-0.0158 z"
           id="path4-6"
           inkscape:path-effect="#path-effect4-7"
           inkscape:original-d="m 104.31335,198.42127 c 6.28229,-0.0158 12.56457,-0.0316 18.84686,-0.0474 0.34756,0 0.69511,0 1.04266,0 0.3423,0.22644 0.68458,0.45287 1.02686,0.67931 0.14219,0.44761 0.28436,0.89521 0.42654,1.34282 -0.13165,0.38969 -0.26329,0.77936 -0.39494,1.16904 -0.36863,0.24751 -0.73724,0.495 -1.10585,0.7425 -0.65826,0 -1.31649,0 -1.97474,0 -12.17513,0.0316 -24.349784,0.0632 -36.524678,0.0948 -0.268568,-0.0421 -0.537126,-0.0843 -0.805691,-0.12638 -0.310697,-0.17905 -0.621382,-0.35809 -0.932074,-0.53713 -0.121118,-0.2633 -0.242234,-0.5266 -0.363352,-0.7899 0.01579,-0.42655 0.0316,-0.85308 0.04739,-1.27962 0.168514,-0.24751 0.337021,-0.495 0.505532,-0.7425 0.236974,-0.13165 0.473937,-0.2633 0.710904,-0.39495 0.315965,-0.0211 0.631915,-0.0421 0.947872,-0.0632 6.18236,-0.0158 12.364468,-0.0316 18.546707,-0.0474 z" /><path
           style="opacity:0.384787;fill:#1a1a1a;stroke-width:0.264583"
           d="m 107.45449,198.41337 c 3.14115,-0.008 9.42343,-0.0237 12.73836,-0.0316 3.31492,-0.008 3.66247,-0.008 4.00739,0.10532 0.34493,0.11322 0.68721,0.33966 0.92944,0.67668 0.24223,0.33702 0.38441,0.78462 0.38967,1.20327 0.005,0.41865 -0.12637,0.80832 -0.37651,1.12691 -0.25014,0.3186 -0.61875,0.56609 -1.13218,0.68984 -0.51344,0.12375 -1.17167,0.12375 -7.58836,0.13955 -6.41669,0.0158 -18.591344,0.0474 -24.813073,0.0421 -6.221729,-0.005 -6.490298,-0.0474 -6.779926,-0.15798 -0.289628,-0.11059 -0.600314,-0.28963 -0.816218,-0.5108 -0.215903,-0.22117 -0.337021,-0.48447 -0.389681,-0.82939 -0.05266,-0.34493 -0.03686,-0.77146 0.05529,-1.10848 0.09216,-0.33703 0.260661,-0.58452 0.463403,-0.7741 0.202742,-0.18957 0.439706,-0.32122 0.716173,-0.39758 0.276467,-0.0764 0.592413,-0.0974 3.841572,-0.11586 3.24916,-0.0184 9.431268,-0.0342 12.522387,-0.0421 3.09112,-0.008 3.09112,-0.008 6.23226,-0.0158 z"
           id="path4-2"
           inkscape:path-effect="#path-effect4-1"
           inkscape:original-d="m 104.31335,198.42127 c 6.28229,-0.0158 12.56457,-0.0316 18.84686,-0.0474 0.34756,0 0.69511,0 1.04266,0 0.3423,0.22644 0.68458,0.45287 1.02686,0.67931 0.14219,0.44761 0.28436,0.89521 0.42654,1.34282 -0.13165,0.38969 -0.26329,0.77936 -0.39494,1.16904 -0.36863,0.24751 -0.73724,0.495 -1.10585,0.7425 -0.65826,0 -1.31649,0 -1.97474,0 -12.17513,0.0316 -24.349784,0.0632 -36.524678,0.0948 -0.268568,-0.0421 -0.537126,-0.0843 -0.805691,-0.12638 -0.310697,-0.17905 -0.621382,-0.35809 -0.932074,-0.53713 -0.121118,-0.2633 -0.242234,-0.5266 -0.363352,-0.7899 0.01579,-0.42655 0.0316,-0.85308 0.04739,-1.27962 0.168514,-0.24751 0.337021,-0.495 0.505532,-0.7425 0.236974,-0.13165 0.473937,-0.2633 0.710904,-0.39495 0.315965,-0.0211 0.631915,-0.0421 0.947872,-0.0632 6.18236,-0.0158 12.364468,-0.0316 18.546707,-0.0474 z"
           transform="translate(-0.021528,9.0131646)" /><path
           style="opacity:0.384787;fill:#1a1a1a;stroke-width:0.264583"
           d="m 107.45449,198.41337 c 3.14115,-0.008 9.42343,-0.0237 12.73836,-0.0316 3.31492,-0.008 3.66247,-0.008 4.00739,0.10532 0.34493,0.11322 0.68721,0.33966 0.92944,0.67668 0.24223,0.33702 0.38441,0.78462 0.38967,1.20327 0.005,0.41865 -0.12637,0.80832 -0.37651,1.12691 -0.25014,0.3186 -0.61875,0.56609 -1.13218,0.68984 -0.51344,0.12375 -1.17167,0.12375 -7.58836,0.13955 -6.41669,0.0158 -18.591344,0.0474 -24.813073,0.0421 -6.221729,-0.005 -6.490298,-0.0474 -6.779926,-0.15798 -0.289628,-0.11059 -0.600314,-0.28963 -0.816218,-0.5108 -0.215903,-0.22117 -0.337021,-0.48447 -0.389681,-0.82939 -0.05266,-0.34493 -0.03686,-0.77146 0.05529,-1.10848 0.09216,-0.33703 0.260661,-0.58452 0.463403,-0.7741 0.202742,-0.18957 0.439706,-0.32122 0.716173,-0.39758 0.276467,-0.0764 0.592413,-0.0974 3.841572,-0.11586 3.24916,-0.0184 9.431268,-0.0342 12.522387,-0.0421 3.09112,-0.008 3.09112,-0.008 6.23226,-0.0158 z"
           id="path4-22"
           inkscape:path-effect="#path-effect4-14"
           inkscape:original-d="m 104.31335,198.42127 c 6.28229,-0.0158 12.56457,-0.0316 18.84686,-0.0474 0.34756,0 0.69511,0 1.04266,0 0.3423,0.22644 0.68458,0.45287 1.02686,0.67931 0.14219,0.44761 0.28436,0.89521 0.42654,1.34282 -0.13165,0.38969 -0.26329,0.77936 -0.39494,1.16904 -0.36863,0.24751 -0.73724,0.495 -1.10585,0.7425 -0.65826,0 -1.31649,0 -1.97474,0 -12.17513,0.0316 -24.349784,0.0632 -36.524678,0.0948 -0.268568,-0.0421 -0.537126,-0.0843 -0.805691,-0.12638 -0.310697,-0.17905 -0.621382,-0.35809 -0.932074,-0.53713 -0.121118,-0.2633 -0.242234,-0.5266 -0.363352,-0.7899 0.01579,-0.42655 0.0316,-0.85308 0.04739,-1.27962 0.168514,-0.24751 0.337021,-0.495 0.505532,-0.7425 0.236974,-0.13165 0.473937,-0.2633 0.710904,-0.39495 0.315965,-0.0211 0.631915,-0.0421 0.947872,-0.0632 6.18236,-0.0158 12.364468,-0.0316 18.546707,-0.0474 z"
           transform="translate(0.09119749,-9.1720831)" /><path
           style="opacity:0.384787;fill:#1a1a1a;stroke-width:0.264583"
           d="m 106.02742,216.45192 c 1.87205,0.005 5.61614,0.0158 7.61984,0.0184 2.00369,0.003 2.26699,-0.003 2.4513,-0.005 0.18431,-0.003 0.28963,-0.003 0.27646,0.15008 -0.0132,0.15272 -0.14481,0.45814 -0.5108,0.98737 -0.36599,0.52924 -0.9663,1.28225 -1.62455,1.81675 -0.65825,0.5345 -1.37441,0.85045 -2.06689,1.03213 -0.69248,0.18167 -1.36124,0.22907 -3.72043,0.2633 -2.35919,0.0342 -6.40863,0.0553 -8.657197,0.008 -2.248567,-0.0474 -2.696164,-0.16324 -3.154307,-0.32649 -0.458143,-0.16324 -0.926807,-0.37387 -1.361252,-0.66614 -0.434444,-0.29226 -0.83465,-0.66614 -1.155876,-1.05846 -0.321227,-0.39232 -0.563453,-0.80305 -0.726699,-1.12955 -0.163247,-0.32649 -0.247497,-0.56871 -0.292257,-0.74249 -0.04476,-0.17378 -0.05002,-0.2791 0.04477,-0.32386 0.09479,-0.0448 0.289627,-0.029 2.140645,-0.0237 1.851019,0.005 5.358086,0 7.111646,-0.003 1.75356,-0.003 1.75355,-0.003 3.6256,0.003 z"
           id="path5-1"
           inkscape:path-effect="#path-effect5-1"
           inkscape:original-d="m 104.15537,216.44665 c 3.7441,0.0105 7.48819,0.0211 11.23229,0.0316 0.2633,-0.005 0.52659,-0.0105 0.78989,-0.0158 0.10532,0 0.21064,0 0.31596,0 -0.13165,0.30543 -0.2633,0.61085 -0.39495,0.91627 -0.60033,0.75305 -1.20063,1.50607 -1.80096,2.2591 -0.71618,0.31596 -1.43234,0.63191 -2.14851,0.94787 -0.66879,0.0474 -1.33755,0.0948 -2.00633,0.14218 -4.0496,0.0211 -8.09904,0.0421 -12.148558,0.0632 -0.447617,-0.11585 -0.895213,-0.2317 -1.342819,-0.34755 -0.46868,-0.21064 -0.937342,-0.42128 -1.406012,-0.63191 -0.400222,-0.37389 -0.800425,-0.74777 -1.200639,-1.12165 -0.242237,-0.41076 -0.484468,-0.82149 -0.726702,-1.23224 -0.08426,-0.24224 -0.168511,-0.48446 -0.252765,-0.7267 -0.0053,-0.10532 -0.01053,-0.21064 -0.01579,-0.31596 0.194844,0.0158 0.389681,0.0316 0.58452,0.0474 3.507198,-0.005 7.014265,-0.0105 10.521385,-0.0158 z" /></g></g></g></svg>
