<?xml version="1.0" encoding="UTF-8" standalone="no"?>
<svg
   width="600"
   height="900"
   viewBox="0 0 200 300"
   font-family="sans-serif"
   version="1.1"
   id="svg19"
   sodipodi:docname="avatar-rig-guide.svg.2026_06_19_00_22_05.0.svg"
   inkscape:export-filename="..\public\avatars\faces\00.svg"
   inkscape:export-xdpi="96"
   inkscape:export-ydpi="96"
   xmlns:inkscape="http://www.inkscape.org/namespaces/inkscape"
   xmlns:sodipodi="http://sodipodi.sourceforge.net/DTD/sodipodi-0.dtd"
   xmlns="http://www.w3.org/2000/svg"
   xmlns:svg="http://www.w3.org/2000/svg">
  <defs
     id="defs19">
    <inkscape:path-effect
       effect="bspline"
       id="path-effect9"
       is_visible="true"
       lpeversion="1.3"
       weight="33.333333"
       steps="2"
       helper_size="0"
       apply_no_weight="true"
       apply_with_weight="true"
       only_selected="false"
       uniform="false" />
    <linearGradient
       id="swatch19"
       inkscape:swatch="solid">
      <stop
         style="stop-color:#000000;stop-opacity:1;"
         offset="0"
         id="stop19" />
    </linearGradient>
  </defs>
  <sodipodi:namedview
     id="namedview19"
     pagecolor="#ffffff"
     bordercolor="#000000"
     borderopacity="0.25"
     inkscape:showpageshadow="2"
     inkscape:pageopacity="0.0"
     inkscape:pagecheckerboard="0"
     inkscape:deskcolor="#d1d1d1">
    <inkscape:page
       x="0"
       y="0"
       width="200"
       height="300"
       id="page2"
       margin="0"
       bleed="0" />
  </sodipodi:namedview>
  <!-- ================================================================
       AVATAR RIG GUIDE -- reference only, never ships as a game asset.
       Canvas: 200 x 300, shared by every layer (body, hair, hats,
       clothing).

       Head is WIDER than the body and the two are directly connected
       -- no neck segment. The torso's top edge tucks up underneath the
       head circle's curve (inside its radius), so when the head paints
       on top of the torso in z-order, it fully covers the join and the
       two read as one continuous connected shape, the way the
       Cyanide & Happiness reference does it.

       Body is otherwise simple and symmetric -- no 3/4 perspective, no
       near/far limb split. Facing direction (screen-right, per the
       Slay the Spire reference -- player left, enemies right) is sold
       through hair shape and facial feature placement (eyes/eyebrows/
       mouth angled or offset, all procedural/code-side) rather than
       any change to this rig.

       Draw your asset directly on top of this file in Inkscape, using
       the shapes/crosshairs for alignment, then delete the "guides"
       group, the "labels" group, and the backdrop rect below --
       before saving your real asset, nothing from this file should
       remain except what you drew.
       ================================================================ -->
  <!-- Backdrop -->
  <!-- Anchor point markers + labels -->
  <g
     inkscape:groupmode="layer"
     id="layer4"
     inkscape:label="Hair">
    <path
       style="fill:#c97f4b;fill-opacity:1;stroke:#000000;stroke-width:1;stroke-dasharray:none;stroke-opacity:1"
       d="m 144.34041,69.717764 c 0.17893,1.845138 0.23351,3.18808 0.97599,3.671303 0.74249,0.483222 2.1728,0.10669 2.60776,-0.407276 0.43495,-0.513965 -0.1255,-1.165298 0.47285,-2.808885 0.59836,-1.643586 2.35549,-4.279282 3.23407,-5.960711 0.87858,-1.681429 0.87858,-2.408519 -0.66654,-3.468888 -1.54512,-1.060369 -4.63524,-2.453954 -6.24093,-3.453727 -1.60569,-0.999773 -1.72687,-1.605682 -1.4542,-5.271554 0.27267,-3.665873 0.93917,-10.391433 1.33302,-14.390507 0.39385,-3.999073 0.51503,-5.271476 -1.24217,-5.271464 -1.7572,1.2e-5 -5.39264,1.272416 -7.90721,1.696555 -2.51458,0.424139 -3.90816,5e-6 -4.75645,-3.574981 -0.84829,-3.574987 -1.15124,-10.300546 -1.84806,-13.51191 -0.69682,-3.211364 -1.78745,-2.908411 -3.51434,-0.757362 -1.72689,2.15105 -4.08993,6.150033 -5.54414,8.210156 -1.45421,2.060124 -1.99952,2.181304 -2.60545,0.969442 -0.60592,-1.211861 -1.27242,-3.756668 -4.21118,-7.846673 C 110.03468,13.451277 104.82388,7.8163452 101.6428,5.2109016 98.461716,2.605458 97.310496,3.0295916 96.643983,4.271745 c -0.666513,1.2421534 -0.848285,3.3022348 -1.302731,6.543943 -0.454446,3.241708 -1.181532,7.664823 -2.272199,11.05799 -1.090668,3.393167 -2.544843,5.756202 -4.45351,6.271219 -1.908667,0.515017 -4.271701,-0.817977 -6.331841,-2.332789 -2.06014,-1.514813 -3.817269,-3.211351 -6.725718,-4.726161 -2.908448,-1.514809 -6.968021,-2.847803 -8.664586,-2.575121 -1.696565,0.272682 -1.030069,2.150991 0.0303,5.180625 1.060372,3.029634 2.514547,7.210387 2.847795,10.118811 0.333248,2.908425 -0.454431,4.544374 -3.665855,5.150287 -3.211425,0.605913 -8.846352,0.181779 -14.663229,0.393859 -5.816876,0.21208 -11.815349,1.060349 -14.814645,1.726864 -2.999297,0.666514 -2.999297,1.151241 -1.060319,3.726441 1.938979,2.575199 5.816778,7.240676 7.9072,10.542951 2.090423,3.302275 2.393376,5.241175 -0.272721,7.331616 -2.666098,2.090442 -8.301027,4.332295 -11.330623,5.786506 -3.029596,1.45421 -3.453731,2.120707 -0.787632,3.393155 2.666098,1.272447 8.422208,3.150757 11.360914,4.241412 2.938705,1.090656 3.059886,1.39361 1.090611,4.483854 -1.969276,3.090243 -6.028847,8.967532 -7.725412,11.815347 -1.696565,2.847815 -1.030069,2.666044 2.575211,2.302487 3.60528,-0.363557 10.149067,-0.908872 13.542213,-0.817977 3.393147,0.0909 3.635509,0.817981 3.423431,2.42369 -0.212077,1.605708 -0.878575,4.089926 -0.939161,5.332066 -0.06059,1.24213 0.484727,1.24213 2.734016,1.02669 2.24929,-0.21544 6.202188,-0.64627 7.745043,-1.34788 1.542856,-0.70161 0.675334,-1.673789 -0.02886,-3.094406 -0.704191,-1.420617 -1.24486,-3.289306 -1.803034,-5.011441 -0.558174,-1.722135 -1.133774,-3.297461 -0.0734,-4.009429 1.060378,-0.711969 3.756608,-0.560495 3.74146,-1.711762 -0.01515,-1.151267 -2.74173,-3.60519 -3.89297,-5.362363 -1.151241,-1.757174 -0.727114,-2.81749 0.908899,-3.059862 1.636013,-0.242372 4.483713,0.333228 4.998754,-0.863485 0.515041,-1.196713 -1.302678,-4.165655 -1.348104,-6.846866 -0.04543,-2.681212 1.681375,-5.074498 3.98391,-5.953096 2.302534,-0.878599 5.180534,-0.242409 8.422262,-1.742087 3.241729,-1.499678 6.846799,-5.135044 9.906746,-7.407283 3.059948,-2.272239 5.57446,-3.181099 10.224951,-3.423462 4.650491,-0.242363 11.436641,0.181771 17.132321,-0.196939 5.69568,-0.37871 10.3005,-1.560209 13.61795,-1.908617 3.31746,-0.348408 5.34721,0.136309 7.27823,2.349794 1.93103,2.213486 3.7631,6.155479 4.83082,9.30026 1.06773,3.144782 1.371,5.492041 1.54993,7.337178 z"
       id="fill"
       inkscape:path-effect="#path-effect9"
       inkscape:original-d="m 144.46476,70.21993 c 0.0546,1.342971 0.10916,2.685914 0.16374,4.028912 1.43039,-0.376554 2.8607,-0.753084 4.2911,-1.12964 -0.56049,-0.651376 -1.12094,-1.30271 -1.68143,-1.954085 1.7572,-2.635796 3.51433,-5.271492 5.27149,-7.907234 0,-0.727117 0,-1.454207 0,-2.181307 -3.09024,-1.39364 -6.18036,-2.787227 -9.27055,-4.180837 -0.12118,-0.605933 -0.24237,-1.21184 -0.36355,-1.817756 0.66652,-6.72583 1.33302,-13.45139 1.99953,-20.177083 0.12119,-1.272454 0.24237,-2.544857 0.36355,-3.817286 -3.63558,1.272454 -7.27102,2.544856 -10.90653,3.817286 -1.39364,-0.42415 -2.78722,-0.848287 -4.18084,-1.27243 -0.30296,-6.725828 -0.60591,-13.451387 -0.90887,-20.177081 -1.09068,0.302965 -2.18131,0.605918 -3.27196,0.908877 -2.36313,3.999141 -4.72617,7.998123 -7.08925,11.997184 -0.54534,0.121186 -1.09065,0.242368 -1.63598,0.363551 -0.66652,-2.544908 -1.33302,-5.089714 -1.99953,-7.634572 -5.211,-5.635153 -10.4218,-11.2700817 -15.632694,-16.9051228 -1.15127,0.4241514 -2.30249,0.8482858 -3.453737,1.2724288 -0.181777,2.0601636 -0.36355,4.1202449 -0.545327,6.1803676 -0.727116,4.4232934 -1.454203,8.8464084 -2.181303,13.2696124 -1.454233,2.36313 -2.90841,4.726164 -4.362613,7.089246 -2.36313,-1.333047 -4.726164,-2.666041 -7.089247,-3.999062 -1.757196,-1.696605 -3.514326,-3.393143 -5.27149,-5.089714 -4.059733,-1.333047 -8.119306,-2.666041 -12.17896,-3.999062 0.666524,1.878385 1.33302,3.756694 1.99953,5.635041 1.454234,4.180921 2.90841,8.361674 4.362614,12.542512 -0.78771,1.63601 -1.575387,3.27196 -2.36308,4.907937 -5.635157,-0.42415 -11.270084,-0.848283 -16.905127,-1.272427 -5.99871,0.848304 -11.997183,1.69657 -17.995776,2.544857 0,0.484743 0,0.96947 0,1.454203 3.877956,4.665667 7.755756,9.331143 11.633636,13.996717 0.302964,1.938976 0.605917,3.877876 0.908877,5.816816 -5.635153,2.241944 -11.270083,4.483797 -16.905124,6.725694 -0.424152,0.666523 -0.848286,1.33302 -1.272429,1.99953 5.75634,1.878386 11.51245,3.756696 17.268676,5.635043 0.121184,0.302963 0.242367,0.605917 0.36355,0.908877 -4.059736,5.877526 -8.119306,11.754816 -12.17896,17.632226 0.666524,-0.18178 1.33302,-0.363553 1.99953,-0.545327 6.54405,-0.545336 13.087837,-1.090653 19.631757,-1.63598 0.242373,0.727117 0.484733,1.454204 0.727103,2.181307 -0.666523,2.484313 -1.333023,4.968531 -1.999533,7.452801 0.54534,0 1.090653,0 1.63598,0 3.953251,-0.43088 7.90615,-0.86171 11.859514,-1.2926 -0.867651,-0.97233 -1.735175,-1.944509 -2.602827,-2.916835 -0.540731,-1.868908 -1.0814,-3.737597 -1.622115,-5.60645 -0.575633,-1.575417 -1.151233,-3.150743 -1.726867,-4.726163 2.696391,0.151483 5.392621,0.302958 8.08901,0.45444 -2.726686,-2.454017 -5.453267,-4.90794 -8.179899,-7.361909 0.424151,-1.060378 0.848278,-2.120694 1.27243,-3.181073 2.847874,0.575635 5.695574,1.151235 8.543448,1.72687 -1.817792,-2.969061 -3.635511,-5.938003 -5.453264,-8.907001 1.726901,-2.393425 3.453702,-4.786711 5.180603,-7.180135 2.878168,0.636227 5.756168,1.272417 8.634338,1.908645 3.605287,-3.635584 7.210357,-7.27095 10.815642,-10.906533 2.51461,-0.908895 5.029122,-1.817755 7.543683,-2.726633 6.786421,0.424153 13.572571,0.848286 20.358861,1.27243 4.60507,-1.181565 9.20989,-2.363063 13.81494,-3.544622 2.02986,0.484743 4.05961,0.96946 6.08948,1.454205 1.83218,3.942225 3.66425,7.884217 5.49642,11.826435 0.30329,2.347346 0.60656,4.694605 0.90983,7.041909 z"
       sodipodi:nodetypes="ccccccccccccccccccccccccccccccccccccccccccccccccccccccccccccc" />
  </g>
</svg>
