<?xml version="1.0" encoding="UTF-8" standalone="no"?>
<svg
   width="600"
   height="900"
   viewBox="0 0 200 300"
   font-family="sans-serif"
   version="1.1"
   id="svg19"
   sodipodi:docname="avatar rig.svg"
   inkscape:export-filename="..\public\avatars\hair\01.svg"
   inkscape:export-xdpi="96"
   inkscape:export-ydpi="96"
   inkscape:version="1.4.2 (f4327f4, 2025-05-13)"
   xmlns:inkscape="http://www.inkscape.org/namespaces/inkscape"
   xmlns:sodipodi="http://sodipodi.sourceforge.net/DTD/sodipodi-0.dtd"
   xmlns="http://www.w3.org/2000/svg"
   xmlns:svg="http://www.w3.org/2000/svg">
  <defs
     id="defs19">
    <inkscape:path-effect
       effect="bspline"
       id="path-effect15"
       is_visible="true"
       lpeversion="1.3"
       weight="33.333333"
       steps="2"
       helper_size="0"
       apply_no_weight="true"
       apply_with_weight="true"
       only_selected="false"
       uniform="false" />
    <linearGradient
       id="swatch19"
       inkscape:swatch="solid">
      <stop
         style="stop-color:#000000;stop-opacity:1;"
         offset="0"
         id="stop19" />
    </linearGradient>
  </defs>
  <sodipodi:namedview
     id="namedview19"
     pagecolor="#ffffff"
     bordercolor="#000000"
     borderopacity="0.25"
     inkscape:showpageshadow="2"
     inkscape:pageopacity="0.0"
     inkscape:pagecheckerboard="0"
     inkscape:deskcolor="#d1d1d1"
     inkscape:zoom="0.91688179"
     inkscape:cx="106.88401"
     inkscape:cy="272.11796"
     inkscape:window-width="2560"
     inkscape:window-height="1369"
     inkscape:window-x="-8"
     inkscape:window-y="-8"
     inkscape:window-maximized="1"
     inkscape:current-layer="layer4">
    <inkscape:page
       x="0"
       y="0"
       width="200"
       height="300"
       id="page2"
       margin="0"
       bleed="0" />
  </sodipodi:namedview>
  <!-- ================================================================
       AVATAR RIG GUIDE -- reference only, never ships as a game asset.
       Canvas: 200 x 300, shared by every layer (body, hair, hats,
       clothing).

       Head is WIDER than the body and the two are directly connected
       -- no neck segment. The torso's top edge tucks up underneath the
       head circle's curve (inside its radius), so when the head paints
       on top of the torso in z-order, it fully covers the join and the
       two read as one continuous connected shape, the way the
       Cyanide & Happiness reference does it.

       Body is otherwise simple and symmetric -- no 3/4 perspective, no
       near/far limb split. Facing direction (screen-right, per the
       Slay the Spire reference -- player left, enemies right) is sold
       through hair shape and facial feature placement (eyes/eyebrows/
       mouth angled or offset, all procedural/code-side) rather than
       any change to this rig.

       Draw your asset directly on top of this file in Inkscape, using
       the shapes/crosshairs for alignment, then delete the "guides"
       group, the "labels" group, and the backdrop rect below --
       before saving your real asset, nothing from this file should
       remain except what you drew.
       ================================================================ -->
  <!-- Backdrop -->
  <!-- Anchor point markers + labels -->
  <g
     inkscape:groupmode="layer"
     id="layer4"
     inkscape:label="Hair">
    <path
       style="fill:#da7c3a;fill-opacity:1;stroke:#000000;stroke-width:1;stroke-dasharray:none;stroke-dashoffset:1.8;stroke-opacity:1"
       d="m 130.4681,49.852405 c 3.57224,1.104595 5.10402,4.084932 6.98305,5.64754 1.87904,1.562608 4.10515,1.707362 5.17042,0.704661 1.06526,-1.002701 0.96955,-3.152726 0.0885,-6.266734 -0.88101,-3.114009 -2.54722,-7.19162 -5.45004,-10.719194 -2.90282,-3.527573 -7.04192,-6.504705 -11.27235,-9.106213 -4.23043,-2.601508 -8.5517,-4.827093 -14.98141,-6.070642 -6.42972,-1.24355 -14.967107,-1.504915 -23.463946,0.654751 -8.496839,2.159666 -16.952105,6.740103 -23.392717,13.163336 -6.440611,6.423234 -10.865789,14.688488 -13.060319,23.228434 -2.194531,8.539947 -2.158146,17.35355 -2.303093,22.577995 -0.144948,5.224445 -0.471215,6.859131 -0.831279,8.252124 -0.360064,1.392993 -0.753904,2.544216 -2.344468,4.40744 -1.590563,1.863224 -4.377733,4.438327 -5.741047,5.786497 -1.363315,1.34817 -1.302725,1.46935 0.06062,1.42391 1.363343,-0.0455 4.02933,-0.25752 5.847094,-0.60592 1.817765,-0.34841 2.787217,-0.83314 3.484028,-1.22699 0.69681,-0.39385 1.120944,-0.6968 0.863418,-0.13631 -0.257526,0.56049 -1.196683,1.98437 -2.741796,3.81729 -1.545114,1.83293 -3.696078,4.07478 -4.736089,5.26887 -1.04001,1.19409 -0.969023,1.34037 0.515506,1.31007 1.484529,-0.0303 4.382482,-0.23717 7.641485,-0.91408 3.259002,-0.67692 6.878774,-1.82381 9.529719,-3.21745 2.650945,-1.39364 4.332778,-3.03389 5.173715,-3.96008 0.840936,-0.92618 0.840936,-1.13824 1.340828,-2.41069 0.499893,-1.27246 1.499619,-3.605153 1.270611,-5.954209 -0.229008,-2.349056 -1.686721,-4.714195 -3.175374,-6.538262 -1.488652,-1.824068 -3.008062,-3.10684 -3.665897,-4.985632 -0.657835,-1.878793 -0.409298,-4.896297 1.190291,-6.073897 1.59959,-1.177601 6.34825,-1.838933 10.913667,-5.969427 4.565416,-4.130494 9.801572,-11.848664 14.664165,-15.156685 4.862593,-3.308021 9.351125,-2.205473 13.892989,-2.552484 4.54187,-0.347012 9.13698,-2.143606 14.24087,-3.427507 5.1039,-1.2839 10.71658,-2.055108 14.28882,-0.950512 z"
       id="fill"
       inkscape:path-effect="#path-effect15"
       inkscape:original-d="m 132.50854,47.976602 c 1.53181,2.980395 3.06358,5.960734 4.59541,8.941188 2.22624,0.144763 4.45235,0.289517 6.6786,0.43428 -0.0957,-2.150166 -0.19143,-4.30019 -0.28715,-6.450355 -1.66631,-4.077852 -3.33252,-8.155464 -4.99883,-12.233312 -4.13933,-2.977299 -8.27843,-5.954429 -12.41776,-8.931728 -4.32153,-2.225716 -8.6428,-4.451302 -12.96433,-6.677021 -8.5379,-0.261381 -17.075287,-0.522746 -25.613188,-0.784127 -8.455777,4.580714 -16.911043,9.16115 -25.36682,13.741863 -4.425446,8.265754 -8.850624,16.531008 -13.276071,24.796763 0.03639,8.814138 0.07277,17.627741 0.109157,26.441879 -0.32628,1.634752 -0.652548,3.269438 -0.978822,4.904157 -0.393853,1.151267 -0.787693,2.30249 -1.18154,3.453733 -2.78728,2.575207 -5.57445,5.150308 -8.361673,7.725458 0.06059,0.12119 0.121183,0.24237 0.181777,0.36356 2.666093,-0.21208 5.33208,-0.42415 7.99812,-0.63622 0.96949,-0.48474 1.93894,-0.96947 2.90841,-1.4542 0.42415,-0.30297 0.848286,-0.60592 1.272429,-0.90888 -0.939193,1.42394 -1.878349,2.84782 -2.817523,4.27172 -2.151053,2.24195 -4.30202,4.4838 -6.45303,6.7257 0.07099,0.14628 0.141975,0.29256 0.212965,0.43884 2.898069,-0.20688 5.796022,-0.41375 8.694035,-0.62062 3.619992,-1.14696 7.239764,-2.29385 10.859751,-3.44081 1.681903,-1.64032 3.363737,-3.28057 5.045609,-4.92086 0,-0.21208 0,-0.42414 0,-0.63622 0.999784,-2.33283 1.999511,-4.665523 2.999296,-6.998354 -1.457801,-2.365281 -2.915515,-4.73042 -4.373317,-7.095704 -1.519503,-1.28285 -3.038912,-2.565623 -4.558414,-3.848473 0.203832,-2.474735 0.452369,-5.492239 0.611483,-7.424058 2.701097,-2.857323 7.788725,-1.084714 11.68309,-1.627072 5.236468,-7.71863 10.472624,-15.4368 15.709096,-23.155435 4.488714,1.102593 8.977246,2.205141 13.46587,3.307712 4.59511,-1.796594 9.19022,-3.593188 13.78533,-5.389782 5.61268,-0.771207 11.22536,-1.542415 16.83804,-2.313622 z"
       sodipodi:nodetypes="zcccccccccccccccccccccccccccaccszz" />
  </g>
</svg>
