<?xml version="1.0" encoding="UTF-8" standalone="no"?>
<svg
   width="600"
   height="900"
   viewBox="0 0 200 300"
   font-family="sans-serif"
   version="1.1"
   id="svg19"
   sodipodi:docname="avatar rig.svg"
   inkscape:export-filename="..\public\avatars\clothing\06.svg"
   inkscape:export-xdpi="96"
   inkscape:export-ydpi="96"
   inkscape:version="1.4.2 (f4327f4, 2025-05-13)"
   xmlns:inkscape="http://www.inkscape.org/namespaces/inkscape"
   xmlns:sodipodi="http://sodipodi.sourceforge.net/DTD/sodipodi-0.dtd"
   xmlns="http://www.w3.org/2000/svg"
   xmlns:svg="http://www.w3.org/2000/svg">
  <defs
     id="defs19">
    <inkscape:path-effect
       effect="bspline"
       id="path-effect2"
       is_visible="true"
       lpeversion="1.3"
       weight="33.333333"
       steps="2"
       helper_size="0"
       apply_no_weight="true"
       apply_with_weight="true"
       only_selected="false"
       uniform="false" />
    <inkscape:path-effect
       effect="bspline"
       id="path-effect8"
       is_visible="true"
       lpeversion="1.3"
       weight="33.333333"
       steps="2"
       helper_size="0"
       apply_no_weight="true"
       apply_with_weight="true"
       only_selected="false"
       uniform="false" />
    <inkscape:path-effect
       effect="bspline"
       id="path-effect7"
       is_visible="true"
       lpeversion="1.3"
       weight="33.333333"
       steps="2"
       helper_size="0"
       apply_no_weight="true"
       apply_with_weight="true"
       only_selected="false"
       uniform="false" />
    <inkscape:path-effect
       effect="bspline"
       id="path-effect6"
       is_visible="true"
       lpeversion="1.3"
       weight="33.333333"
       steps="2"
       helper_size="0"
       apply_no_weight="true"
       apply_with_weight="true"
       only_selected="false"
       uniform="false" />
    <inkscape:path-effect
       effect="bspline"
       id="path-effect5"
       is_visible="true"
       lpeversion="1.3"
       weight="33.333333"
       steps="2"
       helper_size="0"
       apply_no_weight="true"
       apply_with_weight="true"
       only_selected="false"
       uniform="false" />
    <inkscape:path-effect
       effect="bspline"
       id="path-effect4"
       is_visible="true"
       lpeversion="1.3"
       weight="33.333333"
       steps="2"
       helper_size="0"
       apply_no_weight="true"
       apply_with_weight="true"
       only_selected="false"
       uniform="false" />
    <inkscape:path-effect
       effect="bspline"
       id="path-effect1"
       is_visible="true"
       lpeversion="1.3"
       weight="33.333333"
       steps="2"
       helper_size="0"
       apply_no_weight="true"
       apply_with_weight="true"
       only_selected="false"
       uniform="false" />
    <linearGradient
       id="swatch19"
       inkscape:swatch="solid">
      <stop
         style="stop-color:#000000;stop-opacity:1;"
         offset="0"
         id="stop19" />
    </linearGradient>
    <inkscape:path-effect
       effect="bspline"
       id="path-effect19-8"
       is_visible="true"
       lpeversion="1.3"
       weight="33.333333"
       steps="2"
       helper_size="0"
       apply_no_weight="true"
       apply_with_weight="true"
       only_selected="false"
       uniform="false" />
    <inkscape:path-effect
       effect="bspline"
       id="path-effect7-8"
       is_visible="true"
       lpeversion="1.3"
       weight="33.333333"
       steps="2"
       helper_size="0"
       apply_no_weight="true"
       apply_with_weight="true"
       only_selected="false"
       uniform="false" />
  </defs>
  <sodipodi:namedview
     id="namedview19"
     pagecolor="#ffffff"
     bordercolor="#000000"
     borderopacity="0.25"
     inkscape:showpageshadow="2"
     inkscape:pageopacity="0.0"
     inkscape:pagecheckerboard="0"
     inkscape:deskcolor="#d1d1d1"
     inkscape:zoom="3.6675271"
     inkscape:cx="288.20509"
     inkscape:cy="251.25922"
     inkscape:window-width="2560"
     inkscape:window-height="1369"
     inkscape:window-x="-8"
     inkscape:window-y="-8"
     inkscape:window-maximized="1"
     inkscape:current-layer="layer2">
    <inkscape:page
       x="0"
       y="0"
       width="200"
       height="300"
       id="page2"
       margin="0"
       bleed="0" />
  </sodipodi:namedview>
  <!-- ================================================================
       AVATAR RIG GUIDE -- reference only, never ships as a game asset.
       Canvas: 200 x 300, shared by every layer (body, hair, hats,
       clothing).

       Head is WIDER than the body and the two are directly connected
       -- no neck segment. The torso's top edge tucks up underneath the
       head circle's curve (inside its radius), so when the head paints
       on top of the torso in z-order, it fully covers the join and the
       two read as one continuous connected shape, the way the
       Cyanide & Happiness reference does it.

       Body is otherwise simple and symmetric -- no 3/4 perspective, no
       near/far limb split. Facing direction (screen-right, per the
       Slay the Spire reference -- player left, enemies right) is sold
       through hair shape and facial feature placement (eyes/eyebrows/
       mouth angled or offset, all procedural/code-side) rather than
       any change to this rig.

       Draw your asset directly on top of this file in Inkscape, using
       the shapes/crosshairs for alignment, then delete the "guides"
       group, the "labels" group, and the backdrop rect below --
       before saving your real asset, nothing from this file should
       remain except what you drew.
       ================================================================ -->
  <!-- Backdrop -->
  <rect
     x="0"
     y="0"
     width="200"
     height="300"
     fill="#fafafa"
     id="rect1"
     sodipodi:insensitive="true" />
  <g
     id="guides"
     stroke="#9ca3af"
     fill="none"
     stroke-dasharray="3, 2"
     sodipodi:insensitive="true">
    <!-- Center reference line -->
    <line
       x1="100"
       y1="0"
       x2="100"
       y2="300"
       stroke-dasharray="2, 4"
       id="line1" />
    <!-- Head -- wider than the torso -->
    <circle
       cx="100"
       cy="75"
       r="45"
       id="circle1" />
    <!-- Torso: narrower than the head (60 vs 90 diameter), top edge at
         y=100 tucks well inside the head circle's curve (verified: the
         rectangle's top corners are ~39 units from the head's center,
         comfortably inside the r=45 head) -- this overlap is what
         makes head + body read as connected, not a gap to close later -->
    <rect
       x="70"
       y="100"
       width="60"
       height="90"
       id="rect2" />
    <!-- Arms -- symmetric, single z-layer (in front of torso). Pivot is
         the actual intersection of the head circle and the torso's
         side edge: (x-100)^2 + (y-75)^2 = 45^2 at x=70 -> y = 75 +
         sqrt(45^2 - 30^2) = 75 + sqrt(1125) =~ 108.5 -- the real
         "corner" where the head's curve meets the torso's straight
         side, not an arbitrary point further down -->
    <line
       x1="70"
       y1="108.5"
       x2="60"
       y2="174"
       stroke="#16a34a"
       id="line2" />
    <line
       x1="130"
       y1="108.5"
       x2="140"
       y2="174"
       stroke="#16a34a"
       id="line3" />
    <!-- Legs -- pushed out to the torso's outer edge (same x as the
         shoulders), not inset -->
    <line
       x1="70"
       y1="185"
       x2="65"
       y2="290"
       stroke="#16a34a"
       id="line4" />
    <line
       x1="130"
       y1="185"
       x2="135"
       y2="290"
       stroke="#16a34a"
       id="line5" />
  </g>
  <!-- Anchor point markers + labels -->
  <g
     id="labels"
     font-size="6px"
     fill="#1f2937"
     stroke="none"
     style="display:none"
     sodipodi:insensitive="true">
    <circle
       cx="100"
       cy="75"
       r="2"
       fill="#dc2626"
       id="circle5" />
    <text
       x="103"
       y="55"
       id="text5">head (100,75) r=45 -- spans x=55 to x=145</text>
    <circle
       cx="70"
       cy="108.5"
       r="2"
       fill="#16a34a"
       id="circle6" />
    <text
       x="6"
       y="101"
       id="text6">shoulder (70,108.5)</text>
    <text
       x="6"
       y="108"
       id="text7">head/torso intersection</text>
    <circle
       cx="130"
       cy="108.5"
       r="2"
       fill="#16a34a"
       id="circle7" />
    <text
       x="133"
       y="101"
       id="text8">shoulder (130,108.5)</text>
    <text
       x="133"
       y="108"
       id="text9">head/torso intersection</text>
    <circle
       cx="70"
       cy="185"
       r="2"
       fill="#16a34a"
       id="circle9" />
    <text
       x="25"
       y="180"
       id="text10">hip (70,185) -- torso's outer edge</text>
    <circle
       cx="130"
       cy="185"
       r="2"
       fill="#16a34a"
       id="circle10" />
    <text
       x="68"
       y="200"
       id="text11">hip (130,185) -- torso's outer edge</text>
    <text
       x="6"
       y="218"
       id="text12">Torso: x 70-130 (width 60, narrower than the</text>
    <text
       x="6"
       y="225"
       id="text13">head's 90), y 100-190 -- top edge overlaps</text>
    <text
       x="6"
       y="232"
       id="text14">under the head circle, hidden once the head</text>
    <text
       x="6"
       y="239"
       id="text15">paints on top -- this is the no neck join</text>
    <text
       x="6"
       y="258"
       id="text16">Facing direction: sold by hair shape +</text>
    <text
       x="6"
       y="265"
       id="text17">eye/eyebrow placement only -- body stays</text>
    <text
       x="6"
       y="272"
       id="text18">symmetric (Cyanide Happiness approach)</text>
    <text
       x="6"
       y="290"
       fill="#6b7280"
       id="text19">Canvas: 0 0 200 300 -- export every asset at this full size</text>
    <text
       x="7.4929757"
       y="9.9451208"
       fill="#6b7280"
       id="text19-5"
       style="font-style:normal;font-variant:normal;font-weight:normal;font-stretch:normal;font-size:6px;font-family:sans-serif;-inkscape-font-specification:'sans-serif, Normal';font-variant-ligatures:normal;font-variant-caps:normal;font-variant-numeric:normal;font-variant-east-asian:normal;display:inline;fill:#6b7280"><tspan
         sodipodi:role="line"
         id="tspan12"
         x="7.4929757"
         y="9.9451208">Line width: 8pt</tspan><tspan
         sodipodi:role="line"
         id="tspan13"
         x="7.4929757"
         y="17.445122">Hair width: 3pt</tspan></text>
  </g>
  <g
     inkscape:groupmode="layer"
     id="layer2"
     inkscape:label="Clothing">
    <path
       style="fill:#d550b3;fill-opacity:1;stroke:#000000;stroke-width:2.66667;stroke-dasharray:none;stroke-opacity:1"
       d="m 70.029991,108.67609 c -0.535561,7.30506 -1.22108,21.61526 -1.34961,35.60425 -0.128531,13.989 0.299909,27.65625 0.556979,34.5757 0.257069,6.91945 0.342759,7.09083 0.514142,7.21937 0.171384,0.12853 0.428447,0.21422 10.36866,0.1928 9.940214,-0.0214 29.562788,-0.14996 39.502808,-0.23565 9.94001,-0.0857 10.19708,-0.12854 10.43273,-0.23565 0.23565,-0.10711 0.44987,-0.27849 0.74979,-7.04812 0.29991,-6.76963 0.68551,-20.13696 0.59982,-33.80463 -0.0857,-13.66766 -0.64267,-27.63482 -1.0497,-34.85419 -0.40703,-7.21937 -0.66409,-7.69066 -1.0497,-7.99057 -0.38561,-0.29992 -0.89974,-0.42845 -10.49719,-0.6641 -9.59744,-0.23565 -28.277444,-0.5784 -37.703326,-0.70693 -9.425881,-0.12854 -9.597255,-0.0429 -9.87575,0.14995 -0.278496,0.19281 -0.664093,0.49272 -1.199653,7.79777 z"
       id="path1"
       inkscape:path-effect="#path-effect1"
       inkscape:original-d="m 70.179949,101.67095 c -0.68552,14.3102 -1.371036,28.6204 -2.056556,42.93059 0.428456,13.6678 0.856896,27.33505 1.285346,41.00257 0.08569,0.17138 0.17138,0.34276 0.25707,0.51414 0.257074,0.0857 0.51414,0.17138 0.771207,0.25707 19.62336,-0.12854 39.245934,-0.25707 58.868894,-0.38561 0.25708,-0.0428 0.51414,-0.0857 0.77121,-0.12853 0.21423,-0.17138 0.42845,-0.34276 0.64267,-0.51414 0.38562,-13.36788 0.77121,-26.73521 1.15682,-40.10282 -0.557,-13.96772 -1.11397,-27.93488 -1.67095,-41.90232 -0.25708,-0.4713 -0.51414,-0.94259 -0.77121,-1.41388 -0.51415,-0.12854 -1.02828,-0.25707 -1.54242,-0.3856 -18.68075,-0.34277 -37.360754,-0.68552 -56.041131,-1.02828 -0.171383,0.0857 -0.34276,0.17138 -0.51414,0.25707 -0.38561,0.29992 -0.771206,0.59983 -1.15681,0.89974 z"
       transform="matrix(1.0043559,0,0,0.80199284,-0.43575029,19.79612)"
       inkscape:label="fill" />
  </g>
  <g
     inkscape:groupmode="layer"
     id="layer1"
     inkscape:label="Face Outline"
     style="display:inline">
    <path
       style="fill:#d2b399;fill-opacity:1;fill-rule:nonzero;stroke:#000000;stroke-width:2.73801;stroke-dasharray:none;stroke-opacity:1"
       d="m 100.25707,120.05141 c 0,0 8.22622,-0.7712 8.22622,-0.7712 0,0 11.05399,-3.72751 11.05399,-3.72751 0,0 7.58354,-4.69152 7.58354,-4.69152 2.69923,-2.50643 5.39846,-5.01285 7.92633,-8.33337 2.52788,-3.320526 4.8843,-7.454974 6.55526,-11.793066 1.67096,-4.338091 2.65638,-8.87956 2.92415,-13.399742 0.26778,-4.520183 -0.18209,-9.018806 -1.40319,-13.506855 -1.2211,-4.48805 -3.21334,-8.96525 -5.84834,-13.056975 -2.63499,-4.091725 -5.91256,-7.797734 -9.77936,-10.829035 -3.8668,-3.031301 -8.32258,-5.387724 -12.4143,-6.972994 -4.09173,-1.585269 -7.81916,-2.399305 -12.06085,-2.613526 -4.241694,-0.214222 -8.997384,0.171375 -13.613967,1.42461 -4.616584,1.253234 -9.093788,3.374015 -12.639228,5.366321 -3.545441,1.992306 -6.158928,3.856023 -8.558264,6.116117 -2.399335,2.260095 -4.584383,4.916427 -6.619534,8.504733 -2.035151,3.588305 -3.920289,8.108352 -5.002125,13.056991 -1.081837,4.94864 -1.360324,10.325567 -0.889018,15.252775 0.471306,4.927208 1.692362,9.404412 3.802503,13.828192 2.110141,4.423781 5.109223,8.793874 7.947723,12.039394 2.8385,3.24552 5.516253,5.3663 8.408317,7.16581 2.892064,1.7995 5.998255,3.27761 9.136677,4.39159 3.138422,1.11397 6.308883,1.86374 8.858172,2.22792 2.54929,0.36418 4.477272,0.34274 5.441283,0.33203 0.964011,-0.0107 0.964011,-0.0107 0.964011,-0.0107 z"
       id="path19-2"
       inkscape:path-effect="#path-effect19-8"
       inkscape:original-d="m 100.25707,120.05141 8.22622,-0.7712 11.05399,-3.72751 7.58354,-4.69152 c 0,0 5.39846,-5.01285 8.09769,-7.51928 2.35652,-4.134614 4.71294,-8.269064 7.06941,-12.403598 0.98545,-4.54165 1.97086,-9.083119 2.9563,-13.624679 -0.44988,-4.498804 -0.89975,-8.997427 -1.34962,-13.496144 -1.99233,-4.47738 -3.98457,-8.954583 -5.97686,-13.431876 -3.2777,-3.706157 -6.55527,-7.412167 -9.83291,-11.11825 -4.45596,-2.356517 -8.91174,-4.71294 -13.36761,-7.06941 -3.72758,-0.814069 -7.45501,-1.628106 -11.18252,-2.442159 -4.755874,0.385612 -9.511564,0.771208 -14.267348,1.156812 -4.477383,2.120865 -8.954586,4.241647 -13.431876,6.362467 -2.613593,1.86379 -5.22708,3.727507 -7.840617,5.59126 -2.185133,2.656437 -4.37018,5.31277 -6.55527,7.969153 -1.885213,4.520227 -3.770353,9.040273 -5.655526,13.56041 -0.2785,5.377143 -0.556987,10.75407 -0.835477,16.131107 1.221103,4.477379 2.44216,8.954583 3.66324,13.431876 2.999203,4.370267 5.998283,8.740361 8.997427,13.110541 2.67786,2.12086 5.355613,4.24164 8.03342,6.36247 3.106316,1.47818 6.21251,2.95629 9.318766,4.43444 3.170587,0.7498 6.341047,1.49958 9.511567,2.24936 1.92806,-0.0214 3.856043,-0.0428 5.784064,-0.0643 z"
       inkscape:label="path1"
       transform="matrix(0.9792234,0,0,0.96869431,2.2009853,2.0320581)" />
  </g>
  <g
     inkscape:groupmode="layer"
     id="layer3"
     inkscape:label="Face">
    <path
       style="fill:#d55750;fill-opacity:1;stroke:#000000;stroke-width:0.333333;stroke-dasharray:none;stroke-opacity:1"
       d="m 56.713963,69.438249 c 19.510573,-2.787224 39.021143,-5.574448 53.078537,-7.14984 14.05739,-1.575391 22.66126,-1.938935 31.26531,-2.302486"
       id="path4"
       inkscape:path-effect="#path-effect4"
       inkscape:original-d="m 56.713963,69.438249 c 19.510573,-2.787226 39.021143,-5.57445 58.531717,-8.361673 8.60421,-0.36356 17.20808,-0.727103 25.81213,-1.090653" />
    <path
       style="fill:#d55750;fill-opacity:1;stroke:#000000;stroke-width:1.33333;stroke-dasharray:none;stroke-opacity:1"
       d="m 92.069302,64.348533 c 2.847817,-0.605918 5.695634,-1.211836 8.604068,-1.545092 2.90844,-0.333255 5.87738,-0.393846 8.84638,-0.454438"
       id="path5"
       inkscape:path-effect="#path-effect5"
       inkscape:original-d="m 92.069302,64.348533 c 2.847817,-0.605917 5.695634,-1.211837 8.543448,-1.817754 2.96906,-0.06059 5.938,-0.121183 8.907,-0.181776" />
    <path
       style="fill:#d55750;fill-opacity:1;stroke:#000000;stroke-width:1.33333;stroke-dasharray:none;stroke-opacity:1"
       d="m 118.88119,61.167463 c 2.84782,-0.636215 5.69563,-1.272429 8.25566,-1.454202 2.56003,-0.181773 4.83218,0.09089 7.10437,0.363548"
       id="path6"
       inkscape:path-effect="#path-effect6"
       inkscape:original-d="m 118.88119,61.167463 c 2.84782,-0.636214 5.69563,-1.27243 8.54345,-1.908644 2.27224,0.27267 4.54439,0.545327 6.81658,0.81799"
       transform="translate(1.1815409,-0.09088776)" />
    <path
       style="fill:#000000;fill-opacity:1;stroke:#000000;stroke-width:1.33333;stroke-dasharray:none;stroke-opacity:1"
       d="m 99.855353,66.938836 c -0.848287,0.772547 -2.544857,2.317637 -2.499396,3.529483 0.04546,1.211847 1.832885,2.09041 3.893033,2.332772 2.06015,0.242362 4.39288,-0.151475 5.86224,-0.999773 1.46936,-0.848298 2.07527,-2.150999 1.75715,-3.181067 -0.31812,-1.030069 -1.56023,-1.787452 -3.07504,-2.151001 -1.51482,-0.36355 -3.30224,-0.333254 -4.19597,-0.318105 -0.89373,0.01515 -0.89373,0.01514 -1.742017,0.787691 z"
       id="path7"
       inkscape:path-effect="#path-effect7"
       inkscape:original-d="m 100.70364,66.166289 c -1.696574,1.545094 -3.393144,3.090184 -5.089718,4.635277 1.787497,0.8786 3.57492,1.757163 5.362378,2.635743 2.33284,-0.393853 4.66557,-0.787693 6.99836,-1.18154 0.60593,-1.30275 1.21184,-2.60545 1.81776,-3.908173 -1.24216,-0.757413 -2.48427,-1.514797 -3.7264,-2.272193 -1.7875,0.0303 -3.57492,0.06059 -5.36238,0.09089 z"
       transform="translate(0.09088776,1.8177552)" />
    <path
       style="fill:#000000;fill-opacity:1;stroke:#000000;stroke-width:1.33333;stroke-dasharray:none;stroke-opacity:1"
       d="m 99.855353,66.938836 c -0.848287,0.772547 -2.544857,2.317637 -2.499396,3.529483 0.04546,1.211847 1.832885,2.09041 3.893033,2.332772 2.06015,0.242362 4.39288,-0.151475 5.86224,-0.999773 1.46936,-0.848298 2.07527,-2.150999 1.75715,-3.181067 -0.31812,-1.030069 -1.56023,-1.787452 -3.07504,-2.151001 -1.51482,-0.36355 -3.30224,-0.333254 -4.19597,-0.318105 -0.89373,0.01515 -0.89373,0.01514 -1.742017,0.787691 z"
       id="path7-2"
       inkscape:path-effect="#path-effect7-8"
       inkscape:original-d="m 100.70364,66.166289 c -1.696574,1.545094 -3.393144,3.090184 -5.089718,4.635277 1.787497,0.8786 3.57492,1.757163 5.362378,2.635743 2.33284,-0.393853 4.66557,-0.787693 6.99836,-1.18154 0.60593,-1.30275 1.21184,-2.60545 1.81776,-3.908173 -1.24216,-0.757413 -2.48427,-1.514797 -3.7264,-2.272193 -1.7875,0.0303 -3.57492,0.06059 -5.36238,0.09089 z"
       transform="translate(26.233395,-0.84462511)" />
    <path
       style="fill:#000000;fill-opacity:1;stroke:#000000;stroke-width:1.33333;stroke-dasharray:none;stroke-opacity:1"
       d="m 99.431209,91.614862 c 6.755991,0.484735 13.511981,0.969469 19.343991,-0.06062 5.83202,-1.030087 10.73986,-3.574892 15.6478,-6.119749"
       id="path8"
       inkscape:path-effect="#path-effect8"
       inkscape:original-d="m 99.431209,91.614862 c 6.755991,0.484734 13.511981,0.96947 20.267971,1.454204 4.90804,-2.544907 9.81588,-5.089714 14.72382,-7.63457" />
  </g>
  <g
     inkscape:groupmode="layer"
     id="layer4"
     inkscape:label="Hair">
    <path
       style="fill:#da7c3a;stroke:#000000;stroke-width:1;stroke-dashoffset:1.8"
       d="m 112.33841,41.018862 c 3.01404,0.114017 6.21428,0.342046 9.67622,1.08342 3.46194,0.741375 7.18529,1.99603 9.33945,2.902349 2.15415,0.906318 2.73904,1.464279 3.07797,1.388538 0.33894,-0.07574 0.43193,-0.785167 0.54281,-2.459681 0.11088,-1.674515 0.23963,-4.313997 0.27941,-5.645119 0.0398,-1.331121 -0.01,-1.353872 -0.44312,-0.473372 -0.4336,0.880501 -1.25157,2.664134 -1.66435,3.521862 -0.41278,0.857729 -0.42034,0.789615 -0.42791,0.72145 -0.0757,-3.294682 -0.15148,-6.589362 -0.231,-8.232916 -0.0795,-1.643554 -0.16284,-1.635977 -0.5605,-0.435428 -0.39766,1.20055 -1.10956,3.593769 -1.54886,4.779103 -0.43929,1.185335 -0.60591,1.162613 -0.65136,-0.503697 -0.0454,-1.66631 0.0303,-4.976075 0.0303,-6.683997 0,-1.707921 -0.0757,-1.813976 -0.62866,-0.734665 -0.55291,1.079311 -1.58296,3.34389 -2.13584,4.464846 -0.55288,1.120956 -0.62865,1.098224 -0.81422,-0.04169 -0.18557,-1.139913 -0.48081,-3.395828 -0.66267,-4.532466 -0.18186,-1.136638 -0.24999,-1.151776 -0.59083,-0.371641 -0.34084,0.780136 -0.9543,2.35546 -1.36331,3.146959 -0.409,0.7915 -0.61348,0.799076 -0.92402,-0.325681 -0.31055,-1.124757 -0.72711,-3.381744 -0.99599,-4.551931 -0.26887,-1.170187 -0.39005,-1.253497 -0.53775,-0.132526 -0.14769,1.120972 -0.32189,3.446135 -0.48095,4.593593 -0.15905,1.147458 -0.30295,1.117162 -0.56426,0.01891 -0.2613,-1.098248 -0.63999,-3.264363 -0.92781,-4.381527 -0.28781,-1.117164 -0.48473,-1.185328 -0.85965,-0.480932 -0.37491,0.704396 -0.92781,2.181289 -1.25529,2.955136 -0.32748,0.773848 -0.42955,0.844618 -0.66267,0.16769 -0.23313,-0.676928 -0.59731,-2.101493 -0.84366,-2.851278 -0.24636,-0.749785 -0.3749,-0.824766 -0.70159,-0.315971 -0.3267,0.508795 -0.85154,1.601318 -1.18894,2.136879 -0.33741,0.53556 -0.48737,0.514137 -0.74979,-0.337423 -0.26243,-0.851559 -0.63732,-2.533189 -0.88368,-3.400799 -0.24636,-0.867611 -0.36418,-0.921165 -0.73908,-0.208852 -0.3749,0.712312 -1.00685,2.190431 -1.37103,2.940217 -0.36418,0.749785 -0.46058,0.771208 -0.70694,0.107098 -0.24637,-0.664109 -0.64267,-2.013694 -0.89974,-2.704568 -0.25707,-0.690874 -0.3749,-0.72301 -0.64804,-0.01605 -0.27314,0.706956 -0.70158,2.152942 -0.9533,2.87595 -0.25173,0.723008 -0.32668,0.723008 -0.62125,-0.123196 -0.29456,-0.846204 -0.80869,-2.538543 -1.10861,-3.368662 -0.29992,-0.830119 -0.3856,-0.797988 -0.59447,-0.299907 -0.20887,0.498081 -0.54091,1.462072 -0.74979,1.949433 -0.20887,0.487361 -0.29455,0.49807 -0.61589,0.02676 -0.32135,-0.471305 -0.87832,-1.424584 -1.19431,-1.895877 -0.31599,-0.471292 -0.39095,-0.460585 -0.65338,0.294571 -0.26243,0.755156 -0.71229,2.254696 -0.99614,3.020549 -0.283847,0.765853 -0.401672,0.797987 -0.717658,0.283837 -0.315986,-0.51415 -0.830114,-1.57454 -1.14074,-2.104745 -0.310626,-0.530206 -0.417736,-0.530206 -0.706944,0.04821 -0.289209,0.578417 -0.760492,1.735206 -1.033628,2.329679 -0.273137,0.594473 -0.348115,0.626607 -0.628988,-0.142084 -0.280873,-0.76869 -0.767603,-2.338086 -1.043125,-3.12821 -0.275522,-0.790124 -0.339786,-0.800834 -0.658753,0.04284 -0.318968,0.84367 -0.892611,2.541654 -1.232994,3.40673 -0.340383,0.865075 -0.447495,0.897208 -0.683842,0.06273 -0.236346,-0.834481 -0.601912,-2.535511 -0.971449,-3.060361 -0.369537,-0.524851 -0.743039,0.126512 -1.116321,0.832004 -0.373282,0.705491 -0.746318,1.465058 -0.986408,1.855584 -0.24009,0.390526 -0.347199,0.411948 -0.658368,-0.299128 -0.31117,-0.711076 -0.826366,-2.154568 -1.159339,-2.421907 -0.332973,-0.26734 -0.483686,0.641505 -0.759427,1.540031 -0.275741,0.898526 -0.676476,1.786628 -0.959411,2.209553 -0.282935,0.422926 -0.448032,0.38062 -0.776726,-0.225718 -0.328695,-0.606339 -0.820943,-1.776633 -1.177717,-2.136814 -0.356774,-0.360181 -0.578025,0.0898 -0.890987,0.907117 -0.312962,0.817318 -0.717604,2.001896 -1.00665,2.682866 -0.289045,0.680971 -0.462482,0.858304 -0.62721,0.346641 -0.164728,-0.511663 -0.320733,-1.712271 -0.58484,-2.302423 -0.264107,-0.590152 -0.636298,-0.569806 -0.995242,0.336518 -0.358945,0.906325 -0.704611,2.698555 -0.909582,3.589332 -0.20497,0.890778 -0.26924,0.880068 -0.632888,-0.155126 -0.363649,-1.035194 -1.026655,-3.094793 -1.433821,-3.56668 -0.407165,-0.471887 -0.558478,0.643976 -0.70979,1.75984 -0.321059,1.575738 -0.642118,3.151477 -0.861561,3.966125 -0.219443,0.814648 -0.337262,0.868202 -0.722872,-0.149384 -0.38561,-1.017586 -1.038975,-3.106212 -1.446006,-4.139857 -0.407032,-1.033645 -0.567694,-1.012223 -1.076488,-0.11246 -0.508794,0.899762 -1.365647,2.677732 -1.853024,3.588216 -0.487377,0.910483 -0.605193,0.953326 -0.824777,0.235661 -0.219584,-0.717666 -0.540904,-2.19574 -0.760492,-2.913415 -0.219588,-0.717675 -0.337405,-0.674832 -0.760507,0.610541 -0.423102,1.285372 -1.151451,3.813171 -1.563833,5.136008 -0.412382,1.322836 -0.508781,1.440658 -0.824769,0.342734 -0.315987,-1.097924 -0.851531,-3.411477 -1.15145,-4.573657 -0.299918,-1.162179 -0.364182,-1.172889 -0.578411,0.04286 -0.214229,1.215749 -0.578404,3.657858 -0.867607,5.377009 -0.289203,1.719151 -0.503424,2.715275 -1.044351,2.75812 -0.540926,0.04284 -1.408518,-0.86759 -1.901236,-1.306751 -0.492718,-0.43916 -0.61054,-0.407027 -0.680163,1.08722 -0.06962,1.494246 -0.09105,4.450483 -0.117824,5.982189 -0.02678,1.531706 -0.05891,1.638818 -0.444522,1.146091 -0.385611,-0.492726 -1.124671,-1.58525 -1.542408,-2.14759 -0.417737,-0.56234 -0.514139,-0.594473 -0.658743,0.798015 -0.144604,1.392488 -0.337401,4.209481 -0.449868,5.67692 -0.112468,1.46744 -0.144601,1.585262 -0.364184,1.151448 -0.219584,-0.433814 -0.626603,-1.419227 -0.89974,-1.928011 -0.273136,-0.508783 -0.412381,-0.540917 -0.52485,0.771235 -0.112469,1.312152 -0.198157,3.968482 -0.296161,5.377572 -0.098,1.409089 -0.208317,1.570879 -0.377087,1.27307 -0.168769,-0.29781 -0.395984,-1.055194 -0.59291,-1.418743 -0.196926,-0.363549 -0.363548,-0.333254 -0.386269,1.143703 -0.02272,1.476956 0.09846,4.400453 0.121183,5.869805 0.02272,1.469351 -0.05302,1.484499 -0.242373,1.242126 -0.189352,-0.242373 -0.492303,-0.742244 -0.681653,-0.96189 -0.189349,-0.219647 -0.26509,-0.159054 -0.06816,1.514828 0.196928,1.673881 0.666505,4.960924 0.871003,6.672644 0.204498,1.711719 0.143907,1.848051 -0.06817,1.673844 -0.212076,-0.174207 -0.575618,-0.658931 -0.78769,-0.840706 -0.212072,-0.181775 -0.272664,-0.06059 0.0303,1.416362 0.302965,1.476954 0.969462,4.309567 1.605683,6.392425 0.63622,2.082857 1.242127,3.415851 1.582957,4.211122 0.34083,0.79527 0.416569,1.05278 0.128751,0.886146 -0.287818,-0.166634 -0.939168,-0.757394 -1.264849,-0.916443 -0.32568,-0.15905 -0.32568,0.113607 0.689254,1.726895 1.014934,1.613287 3.044721,4.567082 4.292537,5.945543 1.247817,1.378462 1.713599,1.181546 1.755703,0.760293 0.0421,-0.421253 -0.339476,-1.066798 -0.674631,-1.833679 C 59.31366,92.061946 59.024968,91.17382 58.657177,89.6258 58.289386,88.07778 57.84253,85.870009 58.184782,81.724958 c 0.342252,-4.14505 1.47355,-10.226963 4.546886,-12.485316 3.073337,-2.258354 8.088334,-0.692872 10.700205,-0.929361 2.611871,-0.236489 2.82029,-2.274918 3.413177,-5.18319 0.592887,-2.908273 1.570169,-6.686029 2.196418,-8.822483 0.62625,-2.136453 0.901398,-2.631357 2.805208,-4.03408 1.903811,-1.402722 5.436273,-3.713249 9.344744,-5.425497 3.90847,-1.712248 8.192948,-2.826217 11.74907,-3.383201 3.55612,-0.556984 6.38388,-0.556985 9.39792,-0.442968 z"
       id="fill"
       inkscape:path-effect="#path-effect2"
       inkscape:original-d="m 112.15214,40.904844 c 3.20031,0.228035 6.40055,0.456064 9.60092,0.684103 3.72351,1.25471 7.44686,2.509365 11.17029,3.764048 0.58488,0.557954 1.16977,1.115912 1.75464,1.673861 0.093,-0.709427 0.18599,-1.418854 0.27899,-2.128302 0.12876,-2.639581 0.25751,-5.279063 0.38627,-7.918595 -0.0492,-0.02272 -0.0985,-0.04545 -0.14769,-0.06817 -0.81801,1.783708 -1.63598,3.567342 -2.45397,5.351016 -0.008,-0.06817 -0.0227,-0.204496 -0.0227,-0.204496 0,0 -0.15148,-6.589362 -0.22722,-9.884046 -0.0833,0.0076 -0.16662,0.01515 -0.24994,0.02273 -0.71199,2.393524 -1.4239,4.786742 -2.13586,7.180133 -0.16663,-0.02272 -0.33325,-0.04545 -0.49989,-0.06817 0.0757,-3.309896 0.15149,-6.61966 0.22723,-9.929486 -0.0757,-0.106036 -0.15148,-0.212071 -0.22722,-0.31811 -1.03008,2.264661 -2.06012,4.529242 -3.09019,6.793863 -0.0757,-0.02272 -0.15147,-0.04545 -0.22722,-0.06817 -0.29539,-2.257101 -0.59062,-4.513017 -0.88615,-6.771138 -0.0682,-0.01515 -0.13633,-0.03029 -0.2045,-0.04544 -0.6135,1.575421 -1.22697,3.150744 -1.84048,4.726165 -0.2045,0.0076 -0.40898,0.01515 -0.61349,0.02273 -0.41657,-2.257093 -0.83313,-4.514079 -1.24971,-6.771138 -0.12118,-0.08332 -0.24236,-0.166626 -0.36355,-0.249941 -0.1742,2.32526 -0.3484,4.650423 -0.5226,6.975636 -0.14391,-0.0303 -0.28781,-0.06059 -0.43172,-0.09089 -0.3787,-2.1662 -0.75739,-4.332315 -1.13609,-6.498474 -0.19693,-0.06817 -0.39385,-0.136331 -0.59077,-0.204497 -0.55292,1.476955 -1.1058,2.953852 -1.65871,4.430778 -0.10206,0.07077 -0.20413,0.141535 -0.30619,0.212303 -0.36419,-1.424622 -0.72837,-2.849186 -1.09255,-4.273779 -0.12853,-0.07498 -0.25707,-0.149957 -0.3856,-0.224936 -0.52486,1.092567 -1.0497,2.18509 -1.57455,3.277635 -0.14996,-0.02142 -0.29992,-0.04284 -0.44987,-0.06427 -0.3749,-1.681696 -0.74979,-3.363325 -1.12468,-5.044988 -0.11783,-0.05356 -0.23565,-0.107112 -0.35347,-0.160668 -0.63198,1.478179 -1.26393,2.956298 -1.89589,4.434447 -0.0964,0.02142 -0.1928,0.04284 -0.2892,0.06427 -0.39633,-1.349642 -0.79263,-2.699229 -1.18895,-4.048844 -0.11782,-0.03213 -0.23565,-0.06427 -0.35347,-0.0964 -0.42846,1.446045 -0.8569,2.892031 -1.28535,4.338047 -0.075,0 -0.14995,0 -0.22493,0 -0.51415,-1.692408 -1.02828,-3.384747 -1.54242,-5.077121 -0.0857,0.03213 -0.17138,0.06427 -0.25707,0.0964 -0.33205,0.96403 -0.66409,1.928021 -0.99614,2.892031 -0.0857,0.01071 -0.17138,0.02142 -0.25707,0.03213 -0.557,-0.953318 -1.11397,-1.906598 -1.67095,-2.859897 -0.075,0.01071 -0.14996,0.02142 -0.22494,0.03213 -0.44988,1.499602 -0.89974,2.999143 -1.349614,4.498715 -0.117824,0.03213 -0.235647,0.06427 -0.35347,0.0964 -0.51415,-1.060433 -1.028277,-2.120823 -1.542417,-3.181234 -0.107113,0 -0.214223,0 -0.321337,0 -0.471303,1.156835 -0.942586,2.313624 -1.41388,3.470437 -0.07498,0.03213 -0.149956,0.06427 -0.224936,0.0964 -0.486767,-1.569514 -0.973497,-3.13891 -1.460271,-4.708448 -0.06427,-0.01071 -0.128534,-0.02142 -0.192803,-0.03213 -0.573666,1.698051 -1.147309,3.396035 -1.720963,5.094053 -0.107113,0.03213 -0.214223,0.06427 -0.321337,0.0964 -0.36558,-1.701095 -0.731146,-3.402125 -1.096719,-5.103188 -0.373502,0.651362 -0.747003,1.302725 -1.120504,1.954087 -0.373063,0.759621 -0.746099,1.519188 -1.119165,2.278816 -0.107115,0.02142 -0.214222,0.04285 -0.321336,0.06427 -0.515226,-1.443576 -1.030422,-2.887068 -1.545647,-4.330641 -0.150721,0.908894 -0.301434,1.817739 -0.452155,2.726633 -0.400761,0.888158 -0.801496,1.77626 -1.202258,2.66442 -0.165108,-0.04231 -0.330206,-0.08461 -0.495314,-0.126924 -0.49228,-1.170368 -0.984528,-2.340662 -1.47681,-3.511036 -0.221266,0.450012 -0.442517,0.899993 -0.663782,1.350002 -0.404659,1.184626 -0.809301,2.369204 -1.213952,3.553807 -0.17344,0.177338 -0.346877,0.354671 -0.520321,0.532013 -0.156012,-1.200668 -0.312017,-2.401276 -0.468027,-3.601927 -0.372204,0.02035 -0.744395,0.04069 -1.116604,0.06104 -0.34568,1.792302 -0.691346,3.584532 -1.037019,5.376797 -0.06427,-0.0107 -0.128536,-0.02143 -0.192803,-0.03213 -0.663032,-2.059678 -1.326038,-4.119277 -1.989057,-6.178915 -0.151313,1.115864 -0.453937,3.347591 -0.453937,3.347591 0,0 -0.642118,3.151477 -0.963176,4.727214 -0.117827,0.05356 -0.235647,0.107113 -0.35347,0.16067 -0.653397,-2.088729 -1.306763,-4.177355 -1.960155,-6.266069 -0.16067,0.02142 -0.321332,0.04285 -0.482003,0.06427 -0.856917,1.778101 -1.71377,3.556071 -2.570696,5.334191 -0.117827,0.04285 -0.235644,0.08569 -0.35347,0.128537 -0.321342,-1.478178 -0.642662,-2.956252 -0.964009,-4.434449 -0.117828,0.04285 -0.235646,0.08569 -0.353473,0.128537 -0.728377,2.527898 -1.456726,5.055697 -2.185089,7.583547 -0.0964,0.117824 -0.1928,0.235645 -0.289203,0.35347 -0.535572,-2.313673 -1.071117,-4.627226 -1.606683,-6.940875 -0.06427,-0.01071 -0.128534,-0.02142 -0.192803,-0.03213 -0.36419,2.442209 -0.728364,4.884318 -1.092546,7.326477 -0.214224,0.996143 -0.428445,1.992267 -0.642673,2.988428 -0.867625,-0.910471 -1.735217,-1.820906 -2.602827,-2.731361 -0.117827,0.03213 -0.235647,0.06427 -0.35347,0.0964 -0.02143,2.95636 -0.04285,5.912597 -0.06427,8.868897 -0.03213,0.107113 -0.06427,0.214223 -0.0964,0.321336 -0.739087,-1.092566 -1.478147,-2.18509 -2.217223,-3.277636 -0.0964,-0.03213 -0.1928,-0.06427 -0.289204,-0.0964 -0.192803,2.81711 -0.385603,5.634103 -0.578403,8.451156 -0.03213,0.117827 -0.06427,0.235647 -0.0964,0.35347 -0.407034,-0.98545 -0.814054,-1.970863 -1.22108,-2.956297 -0.139247,-0.03213 -0.27849,-0.06427 -0.417737,-0.0964 -0.08569,2.656437 -0.17138,5.312767 -0.25707,7.96915 -0.110317,0.161797 -0.22063,0.323587 -0.330947,0.48538 -0.227223,-0.757413 -0.45444,-1.514796 -0.681656,-2.272193 -0.166634,0.0303 -0.333257,0.06059 -0.499884,0.09089 0.121187,2.923616 0.242367,5.847113 0.36355,8.77067 -0.07574,0.01513 -0.15148,0.0303 -0.22722,0.04544 -0.302963,-0.499893 -0.605916,-0.999763 -0.908876,-1.499647 -0.07574,0.06059 -0.15148,0.121184 -0.22722,0.181777 0.469596,3.28717 0.939173,6.574213 1.40876,9.86132 -0.06059,0.136333 -0.121184,0.272663 -0.181774,0.408997 -0.36356,-0.484747 -0.727103,-0.96947 -1.090653,-1.454207 -0.06059,0.121187 -0.121183,0.24237 -0.181777,0.363553 0.666524,2.832724 1.33302,5.665337 1.99953,8.498004 0.60593,1.333049 1.211837,2.666043 1.817757,3.999063 0.07574,0.25752 0.15148,0.51503 0.22722,0.772546 -0.651377,-0.590783 -1.302727,-1.181543 -1.954087,-1.772313 0,0.27267 0,0.545327 0,0.81799 2.029867,2.953913 4.059654,5.907707 6.08948,8.861557 0.465808,-0.196927 0.93159,-0.393843 1.397397,-0.590769 -0.3816,-0.64558 -0.763179,-1.291125 -1.14478,-1.936707 -0.288709,-0.88818 -0.577401,-1.776306 -0.86611,-2.664486 -0.446874,-2.20786 -0.893729,-4.415631 -1.340593,-6.623445 1.131368,-6.082287 2.262666,-12.1642 3.394033,-18.246484 5.015306,1.565577 10.030303,3.131059 15.045612,4.696637 0.208433,-2.038556 0.416852,-4.076985 0.625285,-6.115541 0.977341,-3.777989 1.954623,-7.555745 2.931963,-11.333729 0.275159,-0.494923 0.550307,-0.989827 0.82546,-1.484741 3.532468,-2.310531 7.06493,-4.621058 10.597394,-6.931586 4.284477,-1.113968 8.568955,-2.227936 12.853427,-3.341904 2.82777,-10e-7 5.65553,-2e-6 8.4833,-3e-6 z"
       sodipodi:nodetypes="sccccccccccccccccccccccccccccccccccccccccccccccccccccccccccccccccccccccccccccccccccccccccccccccccccccccccccccccccccccccccccccssss" />
  </g>
</svg>
