<?xml version="1.0" encoding="UTF-8" standalone="no"?>
<svg
   width="600"
   height="900"
   viewBox="0 0 200 300"
   font-family="sans-serif"
   version="1.1"
   id="svg19"
   sodipodi:docname="avatar rig.svg"
   inkscape:export-filename="..\public\avatars\hair\01.svg"
   inkscape:export-xdpi="96"
   inkscape:export-ydpi="96"
   inkscape:version="1.4.2 (f4327f4, 2025-05-13)"
   xmlns:inkscape="http://www.inkscape.org/namespaces/inkscape"
   xmlns:sodipodi="http://sodipodi.sourceforge.net/DTD/sodipodi-0.dtd"
   xmlns="http://www.w3.org/2000/svg"
   xmlns:svg="http://www.w3.org/2000/svg">
  <defs
     id="defs19">
    <inkscape:path-effect
       effect="bspline"
       id="path-effect3"
       is_visible="true"
       lpeversion="1.3"
       weight="33.333333"
       steps="2"
       helper_size="0"
       apply_no_weight="true"
       apply_with_weight="true"
       only_selected="false"
       uniform="false" />
    <inkscape:path-effect
       effect="bspline"
       id="path-effect8"
       is_visible="true"
       lpeversion="1.3"
       weight="33.333333"
       steps="2"
       helper_size="0"
       apply_no_weight="true"
       apply_with_weight="true"
       only_selected="false"
       uniform="false" />
    <inkscape:path-effect
       effect="bspline"
       id="path-effect7"
       is_visible="true"
       lpeversion="1.3"
       weight="33.333333"
       steps="2"
       helper_size="0"
       apply_no_weight="true"
       apply_with_weight="true"
       only_selected="false"
       uniform="false" />
    <inkscape:path-effect
       effect="bspline"
       id="path-effect6"
       is_visible="true"
       lpeversion="1.3"
       weight="33.333333"
       steps="2"
       helper_size="0"
       apply_no_weight="true"
       apply_with_weight="true"
       only_selected="false"
       uniform="false" />
    <inkscape:path-effect
       effect="bspline"
       id="path-effect5"
       is_visible="true"
       lpeversion="1.3"
       weight="33.333333"
       steps="2"
       helper_size="0"
       apply_no_weight="true"
       apply_with_weight="true"
       only_selected="false"
       uniform="false" />
    <inkscape:path-effect
       effect="bspline"
       id="path-effect4"
       is_visible="true"
       lpeversion="1.3"
       weight="33.333333"
       steps="2"
       helper_size="0"
       apply_no_weight="true"
       apply_with_weight="true"
       only_selected="false"
       uniform="false" />
    <inkscape:path-effect
       effect="bspline"
       id="path-effect1"
       is_visible="true"
       lpeversion="1.3"
       weight="33.333333"
       steps="2"
       helper_size="0"
       apply_no_weight="true"
       apply_with_weight="true"
       only_selected="false"
       uniform="false" />
    <linearGradient
       id="swatch19"
       inkscape:swatch="solid">
      <stop
         style="stop-color:#000000;stop-opacity:1;"
         offset="0"
         id="stop19" />
    </linearGradient>
    <inkscape:path-effect
       effect="bspline"
       id="path-effect19-8"
       is_visible="true"
       lpeversion="1.3"
       weight="33.333333"
       steps="2"
       helper_size="0"
       apply_no_weight="true"
       apply_with_weight="true"
       only_selected="false"
       uniform="false" />
    <inkscape:path-effect
       effect="bspline"
       id="path-effect7-8"
       is_visible="true"
       lpeversion="1.3"
       weight="33.333333"
       steps="2"
       helper_size="0"
       apply_no_weight="true"
       apply_with_weight="true"
       only_selected="false"
       uniform="false" />
  </defs>
  <sodipodi:namedview
     id="namedview19"
     pagecolor="#ffffff"
     bordercolor="#000000"
     borderopacity="0.25"
     inkscape:showpageshadow="2"
     inkscape:pageopacity="0.0"
     inkscape:pagecheckerboard="0"
     inkscape:deskcolor="#d1d1d1"
     inkscape:zoom="3.6675271"
     inkscape:cx="288.20509"
     inkscape:cy="251.25922"
     inkscape:window-width="2560"
     inkscape:window-height="1369"
     inkscape:window-x="-8"
     inkscape:window-y="-8"
     inkscape:window-maximized="1"
     inkscape:current-layer="layer2">
    <inkscape:page
       x="0"
       y="0"
       width="200"
       height="300"
       id="page2"
       margin="0"
       bleed="0" />
  </sodipodi:namedview>
  <!-- ================================================================
       AVATAR RIG GUIDE -- reference only, never ships as a game asset.
       Canvas: 200 x 300, shared by every layer (body, hair, hats,
       clothing).

       Head is WIDER than the body and the two are directly connected
       -- no neck segment. The torso's top edge tucks up underneath the
       head circle's curve (inside its radius), so when the head paints
       on top of the torso in z-order, it fully covers the join and the
       two read as one continuous connected shape, the way the
       Cyanide & Happiness reference does it.

       Body is otherwise simple and symmetric -- no 3/4 perspective, no
       near/far limb split. Facing direction (screen-right, per the
       Slay the Spire reference -- player left, enemies right) is sold
       through hair shape and facial feature placement (eyes/eyebrows/
       mouth angled or offset, all procedural/code-side) rather than
       any change to this rig.

       Draw your asset directly on top of this file in Inkscape, using
       the shapes/crosshairs for alignment, then delete the "guides"
       group, the "labels" group, and the backdrop rect below --
       before saving your real asset, nothing from this file should
       remain except what you drew.
       ================================================================ -->
  <!-- Backdrop -->
  <rect
     x="0"
     y="0"
     width="200"
     height="300"
     fill="#fafafa"
     id="rect1"
     sodipodi:insensitive="true" />
  <g
     id="guides"
     stroke="#9ca3af"
     fill="none"
     stroke-dasharray="3, 2"
     sodipodi:insensitive="true">
    <!-- Center reference line -->
    <line
       x1="100"
       y1="0"
       x2="100"
       y2="300"
       stroke-dasharray="2, 4"
       id="line1" />
    <!-- Head -- wider than the torso -->
    <circle
       cx="100"
       cy="75"
       r="45"
       id="circle1" />
    <!-- Torso: narrower than the head (60 vs 90 diameter), top edge at
         y=100 tucks well inside the head circle's curve (verified: the
         rectangle's top corners are ~39 units from the head's center,
         comfortably inside the r=45 head) -- this overlap is what
         makes head + body read as connected, not a gap to close later -->
    <rect
       x="70"
       y="100"
       width="60"
       height="90"
       id="rect2" />
    <!-- Arms -- symmetric, single z-layer (in front of torso). Pivot is
         the actual intersection of the head circle and the torso's
         side edge: (x-100)^2 + (y-75)^2 = 45^2 at x=70 -> y = 75 +
         sqrt(45^2 - 30^2) = 75 + sqrt(1125) =~ 108.5 -- the real
         "corner" where the head's curve meets the torso's straight
         side, not an arbitrary point further down -->
    <line
       x1="70"
       y1="108.5"
       x2="60"
       y2="174"
       stroke="#16a34a"
       id="line2" />
    <line
       x1="130"
       y1="108.5"
       x2="140"
       y2="174"
       stroke="#16a34a"
       id="line3" />
    <!-- Legs -- pushed out to the torso's outer edge (same x as the
         shoulders), not inset -->
    <line
       x1="70"
       y1="185"
       x2="65"
       y2="290"
       stroke="#16a34a"
       id="line4" />
    <line
       x1="130"
       y1="185"
       x2="135"
       y2="290"
       stroke="#16a34a"
       id="line5" />
  </g>
  <!-- Anchor point markers + labels -->
  <g
     id="labels"
     font-size="6px"
     fill="#1f2937"
     stroke="none"
     style="display:none"
     sodipodi:insensitive="true">
    <circle
       cx="100"
       cy="75"
       r="2"
       fill="#dc2626"
       id="circle5" />
    <text
       x="103"
       y="55"
       id="text5">head (100,75) r=45 -- spans x=55 to x=145</text>
    <circle
       cx="70"
       cy="108.5"
       r="2"
       fill="#16a34a"
       id="circle6" />
    <text
       x="6"
       y="101"
       id="text6">shoulder (70,108.5)</text>
    <text
       x="6"
       y="108"
       id="text7">head/torso intersection</text>
    <circle
       cx="130"
       cy="108.5"
       r="2"
       fill="#16a34a"
       id="circle7" />
    <text
       x="133"
       y="101"
       id="text8">shoulder (130,108.5)</text>
    <text
       x="133"
       y="108"
       id="text9">head/torso intersection</text>
    <circle
       cx="70"
       cy="185"
       r="2"
       fill="#16a34a"
       id="circle9" />
    <text
       x="25"
       y="180"
       id="text10">hip (70,185) -- torso's outer edge</text>
    <circle
       cx="130"
       cy="185"
       r="2"
       fill="#16a34a"
       id="circle10" />
    <text
       x="68"
       y="200"
       id="text11">hip (130,185) -- torso's outer edge</text>
    <text
       x="6"
       y="218"
       id="text12">Torso: x 70-130 (width 60, narrower than the</text>
    <text
       x="6"
       y="225"
       id="text13">head's 90), y 100-190 -- top edge overlaps</text>
    <text
       x="6"
       y="232"
       id="text14">under the head circle, hidden once the head</text>
    <text
       x="6"
       y="239"
       id="text15">paints on top -- this is the no neck join</text>
    <text
       x="6"
       y="258"
       id="text16">Facing direction: sold by hair shape +</text>
    <text
       x="6"
       y="265"
       id="text17">eye/eyebrow placement only -- body stays</text>
    <text
       x="6"
       y="272"
       id="text18">symmetric (Cyanide Happiness approach)</text>
    <text
       x="6"
       y="290"
       fill="#6b7280"
       id="text19">Canvas: 0 0 200 300 -- export every asset at this full size</text>
    <text
       x="7.4929757"
       y="9.9451208"
       fill="#6b7280"
       id="text19-5"
       style="font-style:normal;font-variant:normal;font-weight:normal;font-stretch:normal;font-size:6px;font-family:sans-serif;-inkscape-font-specification:'sans-serif, Normal';font-variant-ligatures:normal;font-variant-caps:normal;font-variant-numeric:normal;font-variant-east-asian:normal;display:inline;fill:#6b7280"><tspan
         sodipodi:role="line"
         id="tspan12"
         x="7.4929757"
         y="9.9451208">Line width: 8pt</tspan><tspan
         sodipodi:role="line"
         id="tspan13"
         x="7.4929757"
         y="17.445122">Hair width: 3pt</tspan></text>
  </g>
  <g
     inkscape:groupmode="layer"
     id="layer2"
     inkscape:label="Clothing">
    <path
       style="fill:#d550b3;fill-opacity:1;stroke:#000000;stroke-width:2.66667;stroke-dasharray:none;stroke-opacity:1"
       d="m 70.029991,108.67609 c -0.535561,7.30506 -1.22108,21.61526 -1.34961,35.60425 -0.128531,13.989 0.299909,27.65625 0.556979,34.5757 0.257069,6.91945 0.342759,7.09083 0.514142,7.21937 0.171384,0.12853 0.428447,0.21422 10.36866,0.1928 9.940214,-0.0214 29.562788,-0.14996 39.502808,-0.23565 9.94001,-0.0857 10.19708,-0.12854 10.43273,-0.23565 0.23565,-0.10711 0.44987,-0.27849 0.74979,-7.04812 0.29991,-6.76963 0.68551,-20.13696 0.59982,-33.80463 -0.0857,-13.66766 -0.64267,-27.63482 -1.0497,-34.85419 -0.40703,-7.21937 -0.66409,-7.69066 -1.0497,-7.99057 -0.38561,-0.29992 -0.89974,-0.42845 -10.49719,-0.6641 -9.59744,-0.23565 -28.277444,-0.5784 -37.703326,-0.70693 -9.425881,-0.12854 -9.597255,-0.0429 -9.87575,0.14995 -0.278496,0.19281 -0.664093,0.49272 -1.199653,7.79777 z"
       id="path1"
       inkscape:path-effect="#path-effect1"
       inkscape:original-d="m 70.179949,101.67095 c -0.68552,14.3102 -1.371036,28.6204 -2.056556,42.93059 0.428456,13.6678 0.856896,27.33505 1.285346,41.00257 0.08569,0.17138 0.17138,0.34276 0.25707,0.51414 0.257074,0.0857 0.51414,0.17138 0.771207,0.25707 19.62336,-0.12854 39.245934,-0.25707 58.868894,-0.38561 0.25708,-0.0428 0.51414,-0.0857 0.77121,-0.12853 0.21423,-0.17138 0.42845,-0.34276 0.64267,-0.51414 0.38562,-13.36788 0.77121,-26.73521 1.15682,-40.10282 -0.557,-13.96772 -1.11397,-27.93488 -1.67095,-41.90232 -0.25708,-0.4713 -0.51414,-0.94259 -0.77121,-1.41388 -0.51415,-0.12854 -1.02828,-0.25707 -1.54242,-0.3856 -18.68075,-0.34277 -37.360754,-0.68552 -56.041131,-1.02828 -0.171383,0.0857 -0.34276,0.17138 -0.51414,0.25707 -0.38561,0.29992 -0.771206,0.59983 -1.15681,0.89974 z"
       transform="matrix(1.0043559,0,0,0.80199284,-0.43575029,19.79612)"
       inkscape:label="fill" />
  </g>
  <g
     inkscape:groupmode="layer"
     id="layer1"
     inkscape:label="Face Outline"
     style="display:inline">
    <path
       style="fill:#d2b399;fill-opacity:1;fill-rule:nonzero;stroke:#000000;stroke-width:2.73801;stroke-dasharray:none;stroke-opacity:1"
       d="m 100.25707,120.05141 c 0,0 8.22622,-0.7712 8.22622,-0.7712 0,0 11.05399,-3.72751 11.05399,-3.72751 0,0 7.58354,-4.69152 7.58354,-4.69152 2.69923,-2.50643 5.39846,-5.01285 7.92633,-8.33337 2.52788,-3.320526 4.8843,-7.454974 6.55526,-11.793066 1.67096,-4.338091 2.65638,-8.87956 2.92415,-13.399742 0.26778,-4.520183 -0.18209,-9.018806 -1.40319,-13.506855 -1.2211,-4.48805 -3.21334,-8.96525 -5.84834,-13.056975 -2.63499,-4.091725 -5.91256,-7.797734 -9.77936,-10.829035 -3.8668,-3.031301 -8.32258,-5.387724 -12.4143,-6.972994 -4.09173,-1.585269 -7.81916,-2.399305 -12.06085,-2.613526 -4.241694,-0.214222 -8.997384,0.171375 -13.613967,1.42461 -4.616584,1.253234 -9.093788,3.374015 -12.639228,5.366321 -3.545441,1.992306 -6.158928,3.856023 -8.558264,6.116117 -2.399335,2.260095 -4.584383,4.916427 -6.619534,8.504733 -2.035151,3.588305 -3.920289,8.108352 -5.002125,13.056991 -1.081837,4.94864 -1.360324,10.325567 -0.889018,15.252775 0.471306,4.927208 1.692362,9.404412 3.802503,13.828192 2.110141,4.423781 5.109223,8.793874 7.947723,12.039394 2.8385,3.24552 5.516253,5.3663 8.408317,7.16581 2.892064,1.7995 5.998255,3.27761 9.136677,4.39159 3.138422,1.11397 6.308883,1.86374 8.858172,2.22792 2.54929,0.36418 4.477272,0.34274 5.441283,0.33203 0.964011,-0.0107 0.964011,-0.0107 0.964011,-0.0107 z"
       id="path19-2"
       inkscape:path-effect="#path-effect19-8"
       inkscape:original-d="m 100.25707,120.05141 8.22622,-0.7712 11.05399,-3.72751 7.58354,-4.69152 c 0,0 5.39846,-5.01285 8.09769,-7.51928 2.35652,-4.134614 4.71294,-8.269064 7.06941,-12.403598 0.98545,-4.54165 1.97086,-9.083119 2.9563,-13.624679 -0.44988,-4.498804 -0.89975,-8.997427 -1.34962,-13.496144 -1.99233,-4.47738 -3.98457,-8.954583 -5.97686,-13.431876 -3.2777,-3.706157 -6.55527,-7.412167 -9.83291,-11.11825 -4.45596,-2.356517 -8.91174,-4.71294 -13.36761,-7.06941 -3.72758,-0.814069 -7.45501,-1.628106 -11.18252,-2.442159 -4.755874,0.385612 -9.511564,0.771208 -14.267348,1.156812 -4.477383,2.120865 -8.954586,4.241647 -13.431876,6.362467 -2.613593,1.86379 -5.22708,3.727507 -7.840617,5.59126 -2.185133,2.656437 -4.37018,5.31277 -6.55527,7.969153 -1.885213,4.520227 -3.770353,9.040273 -5.655526,13.56041 -0.2785,5.377143 -0.556987,10.75407 -0.835477,16.131107 1.221103,4.477379 2.44216,8.954583 3.66324,13.431876 2.999203,4.370267 5.998283,8.740361 8.997427,13.110541 2.67786,2.12086 5.355613,4.24164 8.03342,6.36247 3.106316,1.47818 6.21251,2.95629 9.318766,4.43444 3.170587,0.7498 6.341047,1.49958 9.511567,2.24936 1.92806,-0.0214 3.856043,-0.0428 5.784064,-0.0643 z"
       inkscape:label="path1"
       transform="matrix(0.9792234,0,0,0.96869431,2.2009853,2.0320581)" />
  </g>
  <g
     inkscape:groupmode="layer"
     id="layer3"
     inkscape:label="Face">
    <path
       style="fill:#d55750;fill-opacity:1;stroke:#000000;stroke-width:0.333333;stroke-dasharray:none;stroke-opacity:1"
       d="m 56.713963,69.438249 c 19.510573,-2.787224 39.021143,-5.574448 53.078537,-7.14984 14.05739,-1.575391 22.66126,-1.938935 31.26531,-2.302486"
       id="path4"
       inkscape:path-effect="#path-effect4"
       inkscape:original-d="m 56.713963,69.438249 c 19.510573,-2.787226 39.021143,-5.57445 58.531717,-8.361673 8.60421,-0.36356 17.20808,-0.727103 25.81213,-1.090653" />
    <path
       style="fill:#d55750;fill-opacity:1;stroke:#000000;stroke-width:1.33333;stroke-dasharray:none;stroke-opacity:1"
       d="m 92.069302,64.348533 c 2.847817,-0.605918 5.695634,-1.211836 8.604068,-1.545092 2.90844,-0.333255 5.87738,-0.393846 8.84638,-0.454438"
       id="path5"
       inkscape:path-effect="#path-effect5"
       inkscape:original-d="m 92.069302,64.348533 c 2.847817,-0.605917 5.695634,-1.211837 8.543448,-1.817754 2.96906,-0.06059 5.938,-0.121183 8.907,-0.181776" />
    <path
       style="fill:#d55750;fill-opacity:1;stroke:#000000;stroke-width:1.33333;stroke-dasharray:none;stroke-opacity:1"
       d="m 118.88119,61.167463 c 2.84782,-0.636215 5.69563,-1.272429 8.25566,-1.454202 2.56003,-0.181773 4.83218,0.09089 7.10437,0.363548"
       id="path6"
       inkscape:path-effect="#path-effect6"
       inkscape:original-d="m 118.88119,61.167463 c 2.84782,-0.636214 5.69563,-1.27243 8.54345,-1.908644 2.27224,0.27267 4.54439,0.545327 6.81658,0.81799"
       transform="translate(1.1815409,-0.09088776)" />
    <path
       style="fill:#000000;fill-opacity:1;stroke:#000000;stroke-width:1.33333;stroke-dasharray:none;stroke-opacity:1"
       d="m 99.855353,66.938836 c -0.848287,0.772547 -2.544857,2.317637 -2.499396,3.529483 0.04546,1.211847 1.832885,2.09041 3.893033,2.332772 2.06015,0.242362 4.39288,-0.151475 5.86224,-0.999773 1.46936,-0.848298 2.07527,-2.150999 1.75715,-3.181067 -0.31812,-1.030069 -1.56023,-1.787452 -3.07504,-2.151001 -1.51482,-0.36355 -3.30224,-0.333254 -4.19597,-0.318105 -0.89373,0.01515 -0.89373,0.01514 -1.742017,0.787691 z"
       id="path7"
       inkscape:path-effect="#path-effect7"
       inkscape:original-d="m 100.70364,66.166289 c -1.696574,1.545094 -3.393144,3.090184 -5.089718,4.635277 1.787497,0.8786 3.57492,1.757163 5.362378,2.635743 2.33284,-0.393853 4.66557,-0.787693 6.99836,-1.18154 0.60593,-1.30275 1.21184,-2.60545 1.81776,-3.908173 -1.24216,-0.757413 -2.48427,-1.514797 -3.7264,-2.272193 -1.7875,0.0303 -3.57492,0.06059 -5.36238,0.09089 z"
       transform="translate(0.09088776,1.8177552)" />
    <path
       style="fill:#000000;fill-opacity:1;stroke:#000000;stroke-width:1.33333;stroke-dasharray:none;stroke-opacity:1"
       d="m 99.855353,66.938836 c -0.848287,0.772547 -2.544857,2.317637 -2.499396,3.529483 0.04546,1.211847 1.832885,2.09041 3.893033,2.332772 2.06015,0.242362 4.39288,-0.151475 5.86224,-0.999773 1.46936,-0.848298 2.07527,-2.150999 1.75715,-3.181067 -0.31812,-1.030069 -1.56023,-1.787452 -3.07504,-2.151001 -1.51482,-0.36355 -3.30224,-0.333254 -4.19597,-0.318105 -0.89373,0.01515 -0.89373,0.01514 -1.742017,0.787691 z"
       id="path7-2"
       inkscape:path-effect="#path-effect7-8"
       inkscape:original-d="m 100.70364,66.166289 c -1.696574,1.545094 -3.393144,3.090184 -5.089718,4.635277 1.787497,0.8786 3.57492,1.757163 5.362378,2.635743 2.33284,-0.393853 4.66557,-0.787693 6.99836,-1.18154 0.60593,-1.30275 1.21184,-2.60545 1.81776,-3.908173 -1.24216,-0.757413 -2.48427,-1.514797 -3.7264,-2.272193 -1.7875,0.0303 -3.57492,0.06059 -5.36238,0.09089 z"
       transform="translate(26.233395,-0.84462511)" />
    <path
       style="fill:#000000;fill-opacity:1;stroke:#000000;stroke-width:1.33333;stroke-dasharray:none;stroke-opacity:1"
       d="m 99.431209,91.614862 c 6.755991,0.484735 13.511981,0.969469 19.343991,-0.06062 5.83202,-1.030087 10.73986,-3.574892 15.6478,-6.119749"
       id="path8"
       inkscape:path-effect="#path-effect8"
       inkscape:original-d="m 99.431209,91.614862 c 6.755991,0.484734 13.511981,0.96947 20.267971,1.454204 4.90804,-2.544907 9.81588,-5.089714 14.72382,-7.63457" />
  </g>
  <g
     inkscape:groupmode="layer"
     id="layer4"
     inkscape:label="Hair">
    <path
       style="fill:#33473c;fill-opacity:0.5;stroke:none;stroke-width:1;stroke-dashoffset:1.8"
       d="m 132.84598,48.133568 c -0.53021,-0.698907 -1.89054,-2.252038 -3.19732,-3.545427 -1.30678,-1.293389 -2.55997,-2.327003 -3.96047,-3.3419 -1.40051,-1.014896 -2.94826,-2.011023 -4.72902,-2.993787 -1.78076,-0.982764 -3.79443,-1.952111 -5.70104,-2.726003 -1.90662,-0.773891 -3.70607,-1.352285 -5.51093,-1.799482 -1.80486,-0.447197 -3.61502,-0.763172 -5.2726,-0.926518 -1.65758,-0.163346 -3.16247,-0.174056 -4.945912,-0.09104 -1.783442,0.08301 -3.845312,0.259747 -5.751927,0.565021 -1.906615,0.305273 -3.657865,0.739069 -5.577874,1.368361 -1.920009,0.629293 -4.008656,1.454041 -6.011673,2.367183 -2.003018,0.913142 -3.920288,1.914622 -5.893853,3.116972 -1.973565,1.20235 -4.003301,2.605492 -5.609996,3.976542 -1.606696,1.371051 -2.790262,2.709925 -4.166671,4.469267 -1.376408,1.759341 -2.945571,3.939031 -4.145237,6.316949 -1.199665,2.377918 -2.029768,4.953915 -2.621567,6.970318 -0.591799,2.016403 -0.945263,3.4731 -1.226435,5.235118 -0.281172,1.762019 -0.490037,3.829242 -0.59715,5.776026 -0.107113,1.946783 -0.112469,3.77301 -0.02946,5.371675 0.08301,1.598665 0.25439,2.969675 0.506107,4.463906 0.251717,1.494232 0.583759,3.111595 0.9533,2.30822 0.369541,-0.803375 0.776559,-4.027388 1.18359,-5.907214 0.407031,-1.879826 0.814048,-2.415375 2.142264,-2.843827 1.328215,-0.428453 3.577525,-0.749783 5.70908,-0.921163 2.131555,-0.171381 4.145225,-0.192804 6.062553,-1.64956 1.917328,-1.456756 3.7382,-4.348729 4.959286,-7.380038 1.221086,-3.031309 1.842323,-6.201769 2.592118,-9.093826 0.749794,-2.892056 1.628097,-5.505543 3.684684,-7.069387 2.056587,-1.563845 5.291314,-2.077973 8.568982,-1.992277 3.277669,0.0857 6.598087,0.771203 9.854337,1.360325 3.25624,0.589122 6.44812,1.081829 8.93314,0.36416 2.48503,-0.717669 4.26305,-2.645653 5.78406,-3.995277 1.52101,-1.349624 2.78491,-2.120817 5.06643,-1.585237 2.28152,0.53558 5.58051,2.377874 7.38,3.376697 1.79949,0.998824 2.0994,1.154133 1.5692,0.455225 z"
       id="fill"
       inkscape:path-effect="#path-effect3"
       inkscape:original-d="m 133.6761,48.98779 c -1.36033,-1.553127 -2.72066,-3.106257 -4.08098,-4.659384 -1.25324,-1.033653 -2.50643,-2.067266 -3.75964,-3.1009 -1.5478,-0.996163 -3.09555,-1.992286 -4.64332,-2.98843 -2.01375,-0.969386 -4.02742,-1.938733 -6.04113,-2.9081 -1.79952,-0.578416 -3.59897,-1.15681 -5.39846,-1.735216 -1.81023,-0.315989 -3.62039,-0.631964 -5.43059,-0.947945 -1.50496,-0.01071 -3.00985,-0.02142 -4.514781,-0.03213 -2.061953,0.176739 -4.123823,0.35347 -6.185733,0.530206 -1.75132,0.433812 -3.50257,0.867608 -5.253857,1.301412 -2.08873,0.824783 -4.177377,1.64953 -6.266066,2.474293 -1.917347,1.00152 -3.834617,2.003 -5.751927,3.0045 -2.02982,1.4032 -4.059557,2.80634 -6.089333,4.209513 -1.183614,1.33893 -2.36718,2.677804 -3.55077,4.016707 -1.569227,2.17978 -3.13839,4.35947 -4.707584,6.539203 -0.830136,2.576103 -1.66024,5.1521 -2.49036,7.72815 -0.353476,1.456757 -0.70694,2.913453 -1.060413,4.37018 -0.208873,2.06731 -0.417737,4.134533 -0.626607,6.2018 -0.0054,1.8263 -0.0107,3.652527 -0.01607,5.478793 0.171383,1.371064 0.34276,2.742074 0.51414,4.11311 0.332053,1.617427 0.664096,3.23479 0.996143,4.852183 0.407037,-3.224143 0.814053,-6.448156 1.22108,-9.672236 0.407037,-0.53557 0.814053,-1.07112 1.22108,-1.606683 2.249403,-0.321344 4.498713,-0.642674 6.748073,-0.96401 2.01375,-0.02143 4.02742,-0.04284 6.04113,-0.06427 1.820944,-2.89209 3.641817,-5.784063 5.462727,-8.676093 0.621263,-3.170587 1.2425,-6.341047 1.86375,-9.511567 0.87834,-2.613593 1.756643,-5.22708 2.634963,-7.84062 3.234853,-0.514146 6.46958,-1.028276 9.70437,-1.542416 3.320547,0.685533 6.640965,1.37104 9.961445,2.056556 3.19201,0.492727 6.38389,0.985433 9.57584,1.47815 1.77809,-1.92806 3.55612,-3.856043 5.33419,-5.784063 1.26395,-0.771223 2.52785,-1.542417 3.79177,-2.313623 3.29912,1.842366 6.59811,3.68466 9.89717,5.526993 0.29992,0.155313 0.59983,0.310623 0.89975,0.465937 z" />
  </g>
</svg>
