<?xml version="1.0" encoding="UTF-8" standalone="no"?>
<svg
   width="600"
   height="900"
   viewBox="0 0 200 300"
   font-family="sans-serif"
   version="1.1"
   id="svg19"
   sodipodi:docname="avatar rig.svg"
   inkscape:export-filename="..\public\avatars\hair\02.svg"
   inkscape:export-xdpi="96"
   inkscape:export-ydpi="96"
   inkscape:version="1.4.2 (f4327f4, 2025-05-13)"
   xmlns:inkscape="http://www.inkscape.org/namespaces/inkscape"
   xmlns:sodipodi="http://sodipodi.sourceforge.net/DTD/sodipodi-0.dtd"
   xmlns="http://www.w3.org/2000/svg"
   xmlns:svg="http://www.w3.org/2000/svg">
  <defs
     id="defs19">
    <inkscape:path-effect
       effect="bspline"
       id="path-effect16"
       is_visible="true"
       lpeversion="1.3"
       weight="33.333333"
       steps="2"
       helper_size="0"
       apply_no_weight="true"
       apply_with_weight="true"
       only_selected="false"
       uniform="false" />
    <linearGradient
       id="swatch19"
       inkscape:swatch="solid">
      <stop
         style="stop-color:#000000;stop-opacity:1;"
         offset="0"
         id="stop19" />
    </linearGradient>
  </defs>
  <sodipodi:namedview
     id="namedview19"
     pagecolor="#ffffff"
     bordercolor="#000000"
     borderopacity="0.25"
     inkscape:showpageshadow="2"
     inkscape:pageopacity="0.0"
     inkscape:pagecheckerboard="0"
     inkscape:deskcolor="#d1d1d1"
     inkscape:zoom="0.91688179"
     inkscape:cx="106.88401"
     inkscape:cy="272.11796"
     inkscape:window-width="2560"
     inkscape:window-height="1369"
     inkscape:window-x="-8"
     inkscape:window-y="-8"
     inkscape:window-maximized="1"
     inkscape:current-layer="layer4">
    <inkscape:page
       x="0"
       y="0"
       width="200"
       height="300"
       id="page2"
       margin="0"
       bleed="0" />
  </sodipodi:namedview>
  <!-- ================================================================
       AVATAR RIG GUIDE -- reference only, never ships as a game asset.
       Canvas: 200 x 300, shared by every layer (body, hair, hats,
       clothing).

       Head is WIDER than the body and the two are directly connected
       -- no neck segment. The torso's top edge tucks up underneath the
       head circle's curve (inside its radius), so when the head paints
       on top of the torso in z-order, it fully covers the join and the
       two read as one continuous connected shape, the way the
       Cyanide & Happiness reference does it.

       Body is otherwise simple and symmetric -- no 3/4 perspective, no
       near/far limb split. Facing direction (screen-right, per the
       Slay the Spire reference -- player left, enemies right) is sold
       through hair shape and facial feature placement (eyes/eyebrows/
       mouth angled or offset, all procedural/code-side) rather than
       any change to this rig.

       Draw your asset directly on top of this file in Inkscape, using
       the shapes/crosshairs for alignment, then delete the "guides"
       group, the "labels" group, and the backdrop rect below --
       before saving your real asset, nothing from this file should
       remain except what you drew.
       ================================================================ -->
  <!-- Backdrop -->
  <!-- Anchor point markers + labels -->
  <g
     inkscape:groupmode="layer"
     id="layer4"
     inkscape:label="Hair">
    <path
       style="fill:#da7c3a;fill-opacity:1;stroke:#000000;stroke-width:1;stroke-dasharray:none;stroke-dashoffset:1.8;stroke-opacity:1"
       d="m 64.031706,40.39203 c 3.23479,-3.031276 7.776347,-6.158953 13.49621,-8.536862 5.719863,-2.377909 12.617756,-4.005983 19.25878,-4.455847 6.641024,-0.449864 13.024784,0.278485 18.808894,2.099423 5.78412,1.820938 10.96825,4.734334 15.1885,8.376193 4.22026,3.64186 7.47641,8.011954 9.07774,11.246765 1.60132,3.23481 1.54777,5.334124 1.48885,6.823016 -0.0589,1.488891 -0.12317,2.367176 -0.99616,1.167493 -0.87298,-1.199683 -2.55461,-4.47725 -4.43799,-6.781587 -1.88339,-2.304338 -3.96837,-3.635297 -4.53608,-3.737055 -0.5677,-0.101758 0.38193,1.025692 1.06566,2.751645 0.68372,1.725953 1.10144,4.050176 0.89256,4.596464 -0.20887,0.546289 -1.04431,-0.685444 -2.01905,-1.810144 -0.97474,-1.1247 -2.08866,-2.142224 -3.62282,-3.152729 -1.53416,-1.010506 -3.48818,-2.01377 -4.52344,-2.477656 -1.03526,-0.463886 -1.15123,-0.388157 -1.02563,0.67055 0.12561,1.058707 0.49279,3.100296 0.54785,4.806642 0.055,1.706347 -0.20201,3.077358 -0.43766,3.80572 -0.23564,0.728363 -0.44987,0.814054 -0.94259,-0.08571 -0.49272,-0.899762 -1.26391,-2.784902 -2.39932,-4.005987 -1.13541,-1.221085 -2.63495,-1.778057 -3.47043,-2.035125 -0.83547,-0.257069 -1.00685,-0.214225 -1.09254,0.706959 -0.0857,0.921184 -0.0857,2.720634 -0.10711,4.327331 -0.0214,1.606698 -0.0643,3.020553 -0.57841,2.549235 -0.51415,-0.471318 -1.49957,-2.827743 -2.69924,-4.11309 -1.19967,-1.285347 -2.61352,-1.499567 -3.29904,-1.456716 -0.68552,0.04285 -0.64268,0.342751 -0.34276,0.856896 0.29992,0.514145 0.8569,1.242496 1.07112,1.992289 0.21422,0.749793 0.0857,1.520986 -0.10711,1.90659 -0.19281,0.385605 -0.44987,0.385605 -1.09256,-0.04285 -0.64268,-0.428457 -1.67094,-1.285338 -2.84919,-2.013706 -1.17824,-0.728368 -2.50641,-1.328187 -2.76347,-1.049684 -0.25706,0.278503 0.55698,1.435294 0.64802,2.672452 0.091,1.237158 -0.54091,2.55461 -1.04434,3.577535 -0.50343,1.022924 -0.87832,1.751273 -1.0979,1.156787 -0.219587,-0.594486 -0.283853,-2.511758 -0.915827,-3.941715 -0.631974,-1.429957 -1.831607,-2.372526 -2.431436,-2.158289 -0.599828,0.214238 -0.599828,1.585248 -0.985439,2.752781 -0.385611,1.167533 -1.156789,2.131506 -2.335049,2.308245 -1.178259,0.176739 -2.763456,-0.433777 -4.316615,-0.262394 -1.553159,0.171383 -3.074092,1.124644 -5.548434,4.011376 -2.474342,2.886733 -5.901866,7.706689 -8.88161,9.35824 -2.979743,1.651551 -5.511584,0.134634 -7.289684,1.109375 -1.7781,0.974742 -2.802291,4.44099 -3.608694,6.997612 -0.806404,2.556622 -1.394921,4.2033 -1.774127,5.920936 -0.379207,1.717636 -0.549058,3.506026 -0.433832,5.343326 0.115227,1.837299 0.515518,3.723295 -0.594164,2.948267 -1.109681,-0.775029 -3.729209,-4.210994 -5.628179,-8.028519 -1.89897,-3.817526 -3.077157,-8.016157 -3.494902,-12.000812 -0.417746,-3.984655 -0.075,-7.754858 0.89974,-12.01801 0.97474,-4.263153 2.581359,-9.018747 4.348747,-12.864153 1.767387,-3.845407 3.69537,-6.780224 6.930161,-9.811501 z"
       id="fill"
       inkscape:path-effect="#path-effect16"
       inkscape:original-d="m 62.724936,40.488433 c 4.54156,-3.12768 9.083117,-6.255357 13.624677,-9.383035 6.898166,-1.628139 13.796059,-3.256212 20.694089,-4.884319 6.384018,0.728378 12.767778,1.456727 19.151668,2.18509 5.18434,2.913512 10.36847,5.826907 15.5527,8.740361 3.25628,4.370266 6.51243,8.74036 9.76864,13.110539 -0.0536,2.099442 -0.10711,4.198757 -0.16067,6.298199 -0.0643,0.878339 -0.12854,1.756625 -0.1928,2.634965 -1.6817,-3.277704 -3.36333,-6.55527 -5.04499,-9.832907 -2.08511,-1.331038 -4.17009,-2.661997 -6.2552,-3.993041 0.9497,1.127525 1.89933,2.254978 2.84903,3.3825 0.41775,2.324382 0.83546,4.648606 1.25322,6.973007 -0.8355,-1.231825 -1.67094,-2.463557 -2.50643,-3.695371 -1.11399,-1.017587 -2.22791,-2.035111 -3.3419,-3.052698 -1.95433,-1.003424 -3.90835,-2.006689 -5.86287,-3.010209 -0.116,0.07575 -0.23197,0.151479 -0.34796,0.22722 0.3672,2.041672 0.73438,4.083261 1.10157,6.124889 -0.25707,1.371066 -0.51414,2.742076 -0.77121,4.113113 -0.21422,0.08569 -0.42845,0.171377 -0.64267,0.257067 -0.77122,-1.885214 -1.54242,-3.77035 -2.31362,-5.655527 -1.49961,-0.556993 -2.99915,-1.113966 -4.49872,-1.67095 -0.17138,0.04285 -0.34276,0.08569 -0.51414,0.128534 0,1.799523 0,3.598973 0,5.398459 -0.0428,1.41391 -0.0857,2.827764 -0.12853,4.241644 -0.98545,-2.356517 -1.97087,-4.71294 -2.9563,-7.069407 -1.41391,-0.21423 -2.82776,-0.42845 -4.24165,-0.642673 0.0429,0.29992 0.0857,0.599826 0.12854,0.89974 0.55699,0.72838 1.11397,1.456726 1.67095,2.18509 -0.12854,0.771223 -0.25707,1.542416 -0.3856,2.313626 -0.25708,0 -0.51414,0 -0.77121,0 -1.0283,-0.856916 -2.05656,-1.713796 -3.08484,-2.570693 -1.32821,-0.599843 -2.65638,-1.19966 -3.98457,-1.799487 0.81407,1.156834 1.62811,2.313624 2.44216,3.470437 -0.63197,1.317507 -1.26392,2.634959 -1.89589,3.952444 -0.37489,0.728364 -0.74978,1.45671 -1.124678,2.185086 -0.06427,-1.917347 -0.128535,-3.834619 -0.192803,-5.751927 -1.19968,-0.942606 -2.399313,-1.885176 -3.59897,-2.827763 0,1.371063 0,2.742073 0,4.11311 -0.771222,0.964029 -1.5424,1.928002 -2.313625,2.892033 -1.585294,-0.610553 -3.170491,-1.221069 -4.755784,-1.831622 -1.521025,0.953319 -3.041958,1.90658 -4.562982,2.859898 -3.42766,4.820147 -6.855184,9.640103 -10.282777,14.460155 -2.531894,-1.51695 -5.063735,-3.033867 -7.595681,-4.550848 -1.024254,3.466464 -2.048445,6.932712 -3.072699,10.399176 -0.588553,1.64678 -1.17707,3.293458 -1.765622,4.940235 -0.169861,1.788495 -0.339712,3.576885 -0.509573,5.36538 0.400314,1.886104 0.800605,3.7721 1.200918,5.658202 -2.619676,-3.436159 -5.239204,-6.872124 -7.858886,-10.30829 -1.178258,-4.198885 -2.356445,-8.397516 -3.534702,-12.596399 0.342766,-3.770427 0.685512,-7.54063 1.028278,-11.311057 1.606714,-4.755878 3.213333,-9.511472 4.820048,-14.267351 1.92806,-2.934934 3.856043,-5.869751 5.784064,-8.804625 z"
       sodipodi:nodetypes="cccccccccccccccccccccccccccccccccccccscccccccccccccc" />
  </g>
</svg>
