<?xml version="1.0" encoding="UTF-8" standalone="no"?>
<svg
   width="600"
   height="900"
   viewBox="0 0 200 300"
   font-family="sans-serif"
   version="1.1"
   id="svg19"
   sodipodi:docname="avatar rig.svg"
   inkscape:export-filename="..\public\avatars\hair\05.svg"
   inkscape:export-xdpi="96"
   inkscape:export-ydpi="96"
   inkscape:version="1.4.2 (f4327f4, 2025-05-13)"
   xmlns:inkscape="http://www.inkscape.org/namespaces/inkscape"
   xmlns:sodipodi="http://sodipodi.sourceforge.net/DTD/sodipodi-0.dtd"
   xmlns="http://www.w3.org/2000/svg"
   xmlns:svg="http://www.w3.org/2000/svg">
  <defs
     id="defs19">
    <inkscape:path-effect
       effect="bspline"
       id="path-effect29"
       is_visible="true"
       lpeversion="1.3"
       weight="33.333333"
       steps="2"
       helper_size="0"
       apply_no_weight="true"
       apply_with_weight="true"
       only_selected="false"
       uniform="false" />
    <linearGradient
       id="swatch19"
       inkscape:swatch="solid">
      <stop
         style="stop-color:#000000;stop-opacity:1;"
         offset="0"
         id="stop19" />
    </linearGradient>
  </defs>
  <sodipodi:namedview
     id="namedview19"
     pagecolor="#ffffff"
     bordercolor="#000000"
     borderopacity="0.25"
     inkscape:showpageshadow="2"
     inkscape:pageopacity="0.0"
     inkscape:pagecheckerboard="0"
     inkscape:deskcolor="#d1d1d1"
     inkscape:zoom="3.667527"
     inkscape:cx="224.40189"
     inkscape:cy="243.07933"
     inkscape:window-width="2560"
     inkscape:window-height="1369"
     inkscape:window-x="-8"
     inkscape:window-y="-8"
     inkscape:window-maximized="1"
     inkscape:current-layer="layer4">
    <inkscape:page
       x="0"
       y="0"
       width="200"
       height="300"
       id="page2"
       margin="0"
       bleed="0" />
  </sodipodi:namedview>
  <!-- ================================================================
       AVATAR RIG GUIDE -- reference only, never ships as a game asset.
       Canvas: 200 x 300, shared by every layer (body, hair, hats,
       clothing).

       Head is WIDER than the body and the two are directly connected
       -- no neck segment. The torso's top edge tucks up underneath the
       head circle's curve (inside its radius), so when the head paints
       on top of the torso in z-order, it fully covers the join and the
       two read as one continuous connected shape, the way the
       Cyanide & Happiness reference does it.

       Body is otherwise simple and symmetric -- no 3/4 perspective, no
       near/far limb split. Facing direction (screen-right, per the
       Slay the Spire reference -- player left, enemies right) is sold
       through hair shape and facial feature placement (eyes/eyebrows/
       mouth angled or offset, all procedural/code-side) rather than
       any change to this rig.

       Draw your asset directly on top of this file in Inkscape, using
       the shapes/crosshairs for alignment, then delete the "guides"
       group, the "labels" group, and the backdrop rect below --
       before saving your real asset, nothing from this file should
       remain except what you drew.
       ================================================================ -->
  <!-- Backdrop -->
  <!-- Anchor point markers + labels -->
  <g
     inkscape:groupmode="layer"
     id="layer4"
     inkscape:label="Hair">
    <path
       style="fill:#000000;stroke:#000000;stroke-width:0.251969;stroke-dashoffset:1.8"
       d="m 132.33259,49.564127 c 0.63621,0.121184 1.90864,0.363551 2.87812,0.363549 0.96947,-2e-6 1.63597,-0.242365 2.151,-0.727108 0.51504,-0.484743 0.87858,-1.211828 0.90887,-2.469126 0.0303,-1.257298 -0.27266,-3.044722 -0.54533,-4.635271 -0.27266,-1.590549 -0.51502,-2.984108 -0.57561,-4.498935 -0.0606,-1.514826 0.0606,-3.150773 0.3484,-4.286877 0.28782,-1.136103 0.74225,-1.772305 0.0757,-1.984374 -0.66653,-0.212069 -2.45395,-2e-6 -3.75668,0.408997 -1.30273,0.409 -2.12071,1.014909 -2.90841,1.0452 -0.7877,0.03029 -1.54508,-0.515024 -1.87834,-1.302729 -0.33325,-0.787706 -0.24237,-1.817746 -0.15148,-3.014449 0.0909,-1.196703 0.18177,-2.559991 0.13633,-3.529466 -0.0454,-0.969474 -0.22722,-1.545088 -0.53018,-1.863195 -0.30296,-0.318107 -0.7271,-0.378698 -1.43906,0.878608 -0.71197,1.257306 -1.71169,3.832355 -5.05946,4.66551 -3.34777,0.833156 -9.04317,-0.07569 -14.40565,-0.545281 -5.36249,-0.469597 -10.391411,-0.499893 -15.057078,0.302965 -4.665667,0.802858 -8.967515,2.438772 -13.784662,4.89279 -4.817148,2.454018 -10.149124,5.725912 -13.754358,8.95246 -3.605233,3.226548 -5.483542,6.407556 -7.119536,10.527852 -1.635993,4.120296 -3.029551,9.179514 -3.635481,14.481406 -0.60593,5.301891 -0.424158,10.845933 0.121179,14.223941 0.545336,3.378008 1.454194,4.589818 2.6206,4.741289 1.166406,0.151471 2.59026,-0.757372 3.650638,-1.908639 1.060377,-1.151267 1.75717,-2.544852 2.696356,-4.408073 0.939185,-1.863221 2.120703,-4.19596 3.362849,-6.044026 1.242146,-1.848065 2.544843,-3.211354 4.256583,-3.165897 1.71174,0.04546 3.832373,1.499606 5.316902,1.075454 1.48453,-0.424151 2.332799,-2.726597 2.878128,-4.756441 0.545329,-2.029843 0.787687,-3.786937 2.090437,-5.604728 1.30275,-1.817791 3.665784,-3.696102 8.649542,-6.074362 4.983758,-2.37826 12.587721,-5.256254 19.995221,-6.316632 7.40751,-1.060379 14.61779,-0.302997 18.223,0.0757 3.60522,0.378699 3.60522,0.378702 4.24144,0.499886 z"
       id="path1"
       inkscape:path-effect="#path-effect29"
       inkscape:original-d="m 131.69637,49.442943 c 1.27243,0.24237 2.54486,0.484737 3.81729,0.727103 0.66652,-0.242373 1.33302,-0.484733 1.99953,-0.727103 0.36356,-0.727117 0.7271,-1.454203 1.09065,-2.181307 -0.30296,-1.787493 -0.60592,-3.574916 -0.90888,-5.362376 -0.24237,-1.393638 -0.48473,-2.787197 -0.7271,-4.180837 0.12119,-1.636013 0.24237,-3.27196 0.36355,-4.90794 0.45445,-0.636227 0.90888,-1.272429 1.36332,-1.908643 -1.7875,0.212076 -3.57492,0.424143 -5.36238,0.636214 -0.818,0.605931 -1.63598,1.211837 -2.45397,1.817756 -0.75741,-0.545338 -1.51479,-1.090654 -2.27219,-1.63598 0.0909,-1.030082 0.18177,-2.060123 0.27266,-3.090184 0.0909,-1.363344 0.18178,-2.726633 0.27266,-4.08995 -0.18177,-0.575634 -0.36355,-1.151245 -0.54532,-1.726867 -0.42415,-0.06059 -0.84829,-0.121184 -1.27243,-0.181776 -0.99979,2.575203 -1.99951,5.150254 -2.9993,7.72546 -5.69575,-0.908896 -11.39115,-1.817736 -17.0869,-2.726633 -5.02922,-0.0303 -10.058141,-0.06059 -15.087367,-0.09089 -4.302108,1.636013 -8.603956,3.271926 -12.906062,4.907939 -5.332189,3.272024 -10.664165,6.543918 -15.996248,9.815878 -1.878384,3.181136 -3.756694,6.362143 -5.63504,9.543216 -1.393641,5.05952 -2.787198,10.118738 -4.180838,15.178258 0.181779,5.544263 0.363552,11.088305 0.545328,16.632458 0.908896,1.211864 1.817753,2.423674 2.726633,3.63551 1.423934,-0.908895 2.847788,-1.817738 4.271723,-2.726633 0.69682,-1.393639 1.393613,-2.787224 2.09042,-4.180836 1.181564,-2.33283 2.36308,-4.66557 3.544624,-6.998357 1.30275,-1.363343 2.605446,-2.726633 3.908173,-4.08995 2.120754,1.454232 4.241387,2.908381 6.362143,4.362614 0.848303,-2.302536 1.696572,-4.604982 2.544857,-6.907471 0.242373,-1.757198 0.484731,-3.514292 0.727104,-5.27149 2.363127,-1.878384 4.726161,-3.756695 7.089242,-5.635043 7.604435,-2.878172 15.208398,-5.756165 22.812828,-8.634336 7.21058,0.757413 14.42086,1.514795 21.63129,2.272193 z"
       sodipodi:nodetypes="ccccccccccccccccccccccccccccccccccc"
       inkscape:label="fill" />
  </g>
</svg>
