<?xml version="1.0" encoding="UTF-8" standalone="no"?>
<svg
   width="600"
   height="900"
   viewBox="0 0 200 300"
   font-family="sans-serif"
   version="1.1"
   id="svg19"
   sodipodi:docname="avatar rig.svg"
   inkscape:export-filename="..\public\avatars\hair\04.svg"
   inkscape:export-xdpi="96"
   inkscape:export-ydpi="96"
   inkscape:version="1.4.2 (f4327f4, 2025-05-13)"
   xmlns:inkscape="http://www.inkscape.org/namespaces/inkscape"
   xmlns:sodipodi="http://sodipodi.sourceforge.net/DTD/sodipodi-0.dtd"
   xmlns="http://www.w3.org/2000/svg"
   xmlns:svg="http://www.w3.org/2000/svg">
  <defs
     id="defs19">
    <inkscape:path-effect
       effect="bspline"
       id="path-effect28"
       is_visible="true"
       lpeversion="1.3"
       weight="33.333333"
       steps="2"
       helper_size="0"
       apply_no_weight="true"
       apply_with_weight="true"
       only_selected="false"
       uniform="false" />
    <linearGradient
       id="swatch19"
       inkscape:swatch="solid">
      <stop
         style="stop-color:#000000;stop-opacity:1;"
         offset="0"
         id="stop19" />
    </linearGradient>
  </defs>
  <sodipodi:namedview
     id="namedview19"
     pagecolor="#ffffff"
     bordercolor="#000000"
     borderopacity="0.25"
     inkscape:showpageshadow="2"
     inkscape:pageopacity="0.0"
     inkscape:pagecheckerboard="0"
     inkscape:deskcolor="#d1d1d1"
     inkscape:zoom="2.5933332"
     inkscape:cx="259.51158"
     inkscape:cy="205.3342"
     inkscape:window-width="2560"
     inkscape:window-height="1369"
     inkscape:window-x="-8"
     inkscape:window-y="-8"
     inkscape:window-maximized="1"
     inkscape:current-layer="layer4">
    <inkscape:page
       x="0"
       y="0"
       width="200"
       height="300"
       id="page2"
       margin="0"
       bleed="0" />
  </sodipodi:namedview>
  <!-- ================================================================
       AVATAR RIG GUIDE -- reference only, never ships as a game asset.
       Canvas: 200 x 300, shared by every layer (body, hair, hats,
       clothing).

       Head is WIDER than the body and the two are directly connected
       -- no neck segment. The torso's top edge tucks up underneath the
       head circle's curve (inside its radius), so when the head paints
       on top of the torso in z-order, it fully covers the join and the
       two read as one continuous connected shape, the way the
       Cyanide & Happiness reference does it.

       Body is otherwise simple and symmetric -- no 3/4 perspective, no
       near/far limb split. Facing direction (screen-right, per the
       Slay the Spire reference -- player left, enemies right) is sold
       through hair shape and facial feature placement (eyes/eyebrows/
       mouth angled or offset, all procedural/code-side) rather than
       any change to this rig.

       Draw your asset directly on top of this file in Inkscape, using
       the shapes/crosshairs for alignment, then delete the "guides"
       group, the "labels" group, and the backdrop rect below --
       before saving your real asset, nothing from this file should
       remain except what you drew.
       ================================================================ -->
  <!-- Backdrop -->
  <!-- Anchor point markers + labels -->
  <g
     inkscape:groupmode="layer"
     id="layer4"
     inkscape:label="Hair">
    <path
       style="fill:#783d0c;stroke:#000000;stroke-width:0.666667;stroke-dashoffset:1.8"
       d="m 87.376953,29.888661 c -0.07039,-0.151833 -0.211149,-0.455471 -0.915907,-0.122176 -0.704758,0.333296 -1.973418,1.303485 -2.729769,1.629048 -0.756351,0.325562 -1.000295,0.0065 -1.198416,-0.274607 -0.198121,-0.281064 -0.350396,-0.524056 -0.658508,-0.269362 -0.308112,0.254694 -0.772044,1.00706 -1.091866,1.541176 -0.319821,0.534117 -0.495499,0.849927 -0.805514,1.038092 -0.310014,0.188166 -0.754328,0.248662 -1.366789,0.434531 -0.612461,0.185868 -1.393011,0.49709 -1.836313,0.664067 -0.443302,0.166977 -0.549334,0.189699 -0.458445,0.25408 0.09089,0.06438 0.378697,0.170414 -0.0341,0.518822 -0.412793,0.348409 -1.526147,0.939168 -2.86297,1.480712 -1.336824,0.541545 -2.89703,1.033843 -3.639279,1.295146 -0.74225,0.261303 -0.666512,0.291599 -0.159046,0.340831 0.507465,0.04923 1.446621,0.117398 0.85583,0.859662 -0.590791,0.742264 -2.711464,2.15857 -4.139168,3.177277 -1.427704,1.018706 -2.162364,1.639759 -2.188866,1.840467 -0.0265,0.200709 0.655142,-0.01893 1.018689,-0.121181 0.363547,-0.10225 0.409003,-0.0871 -0.446875,0.598362 -0.855878,0.685458 -2.613008,2.041175 -3.502952,2.749342 -0.889944,0.708167 -0.912666,0.768757 -0.56047,0.662719 0.352196,-0.106039 1.079284,-0.378696 1.461771,-0.488518 0.382487,-0.109822 0.420355,-0.05681 -0.473392,0.961915 -0.893747,1.018721 -2.71904,3.003064 -3.590048,4.059634 -0.871008,1.05657 -0.787694,1.185328 -0.325673,0.93538 0.462022,-0.249948 1.302716,-0.878575 1.749582,-1.162599 0.446865,-0.284024 0.499882,-0.223435 -0.268894,0.916473 -0.768776,1.139908 -2.35928,3.359038 -3.135612,4.514071 -0.776333,1.155033 -0.738464,1.24592 -0.32946,1.030055 0.409003,-0.215864 1.189106,-0.738458 1.590528,-0.958104 0.401421,-0.219646 0.424145,-0.13633 -0.189359,1.007362 -0.613505,1.143693 -1.863186,3.347677 -2.446381,4.495138 -0.583194,1.147461 -0.499886,1.238343 -0.124966,0.916441 0.37492,-0.321903 1.041416,-1.056563 0.658916,-0.2234 -0.3825,0.833162 -1.813953,3.234066 -2.499398,4.445904 -0.685445,1.211838 -0.624856,1.23456 -0.07573,0.855854 0.549124,-0.378706 1.586737,-1.158809 2.128279,-1.518573 0.541541,-0.359764 0.586985,-0.299174 0.246148,0.24995 -0.340837,0.549123 -1.067925,1.586738 -1.408756,2.128276 -0.340831,0.541537 -0.295382,0.586988 -0.04922,0.480948 0.246158,-0.106039 0.693014,-0.363549 0.946743,-0.458223 0.25373,-0.09467 0.314319,-0.02651 0.07195,0.579418 -0.242373,0.60593 -0.78769,1.74958 -1.026268,2.347925 -0.238579,0.598346 -0.170415,0.651363 0.04545,0.511239 0.215862,-0.140124 0.579404,-0.473371 0.78769,-0.613489 0.208286,-0.140119 0.261303,-0.0871 -0.0038,0.545338 -0.265095,0.632441 -0.84828,1.844254 -1.124729,2.495618 -0.276449,0.651364 -0.246155,0.742245 0.02651,0.507448 0.272669,-0.234798 0.78769,-0.79526 1.068357,-1.069769 0.280667,-0.274508 0.326961,-0.263052 0.150608,0.184522 -0.176352,0.447575 -0.575337,1.331232 -0.760104,1.786461 -0.184766,0.455228 -0.155312,0.482003 0.02544,0.30794 0.180755,-0.174063 0.512796,-0.548945 0.70158,-0.723005 0.188784,-0.17406 0.23431,-0.147281 0.08971,0.408374 -0.144605,0.555655 -0.479324,1.640145 -0.627942,2.19445 -0.148617,0.554306 -0.111128,0.578406 0.05356,0.340076 0.164687,-0.238331 0.456563,-0.739072 0.621248,-0.977396 0.164686,-0.238324 0.202175,-0.214224 0.08435,0.119169 -0.117827,0.333393 -0.390957,0.976053 -0.518154,1.3081 -0.127197,0.332047 -0.108448,0.353476 0.0241,0.262427 0.132552,-0.09105 0.378904,-0.294558 0.515468,-0.38293 0.136565,-0.08837 0.163351,-0.06159 0.103101,0.20084 -0.06025,0.262429 -0.207528,0.760492 -0.270455,1.028275 -0.06293,0.267783 -0.0415,0.305271 0.04017,0.226273 0.08167,-0.079 0.223597,-0.274477 0.309295,-0.365518 0.0857,-0.09104 0.115133,-0.07766 0.101747,0.299918 -0.01338,0.37758 -0.06962,1.11932 -0.08435,1.500906 -0.01473,0.381587 0.01205,0.40301 0.08703,0.277151 0.07498,-0.125859 0.198156,-0.39899 0.279829,-0.530203 0.08167,-0.131214 0.121839,-0.120504 0.116483,0.207532 -0.0054,0.328037 -0.05623,0.973377 -0.06829,1.301405 -0.01206,0.328028 0.01474,0.338746 0.08837,0.24368 0.07363,-0.09507 0.194135,-0.295899 0.27314,-0.239582 0.07901,0.05632 0.116476,0.369469 0.07899,0.599102 -0.03749,0.229633 -0.149953,0.37557 -0.198818,0.449875 -0.04887,0.0743 -0.03412,0.07697 0.01942,0.207513 0.05354,0.130537 0.145922,0.388935 0.147931,0.760488 0.002,0.371552 -0.08636,0.856216 -0.143931,1.336891 -0.05757,0.480676 -0.08435,0.957305 0.01473,1.107267 0.09908,0.149961 0.324011,-0.02677 0.47129,0.02143 0.147279,0.0482 0.216902,0.321333 0.218124,0.726785 0.0012,0.405453 -0.06595,0.943135 0.05311,1.220076 0.119058,0.276941 0.424263,0.293005 0.635828,0.0868 0.211565,-0.206204 0.329377,-0.63461 0.420425,-0.848842 0.09105,-0.214232 0.155313,-0.214232 0.241005,0.08301 0.08569,0.297242 0.192801,0.891699 0.278492,1.172871 0.08569,0.281171 0.149958,0.249038 0.230293,-0.08034 0.08034,-0.329376 0.17673,-0.95594 0.251713,-1.274614 0.07498,-0.318674 0.128533,-0.329383 0.24368,-0.179422 0.115148,0.14996 0.291864,0.460552 0.40702,0.607845 0.115157,0.147293 0.168705,0.131228 0.182095,-0.05354 0.01339,-0.184774 -0.01338,-0.538237 -0.0027,-0.723005 0.01071,-0.184769 0.05891,-0.200834 0.168708,0.04554 0.109798,0.246376 0.281164,0.755123 0.396309,1.009515 0.115144,0.254392 0.174057,0.254392 0.197049,-0.01875 0.02299,-0.273143 0.01006,-0.819402 0.03305,-1.100572 0.02299,-0.28117 0.0819,-0.297236 0.214225,-0.08033 0.132325,0.216906 0.338053,0.666769 0.470374,0.878316 0.132322,0.211547 0.191232,0.184771 0.231401,-0.0241 0.04017,-0.208874 0.06159,-0.599819 0.0264,-1.085452 -0.03519,-0.485634 -0.126985,-1.065865 -0.03656,-0.988696 0.09043,0.07717 0.363086,0.811835 0.525927,1.165917 0.162842,0.354083 0.215857,0.327574 0.145797,-0.136339 -0.07006,-0.463914 -0.263195,-1.365207 -0.340826,-1.836687 -0.07763,-0.471479 -0.03977,-0.513133 0.09657,-0.463901 0.136334,0.04923 0.371119,0.189345 0.513132,0.265086 0.142014,0.07574 0.191244,0.0871 0.117398,-0.089 -0.07385,-0.176098 -0.270765,-0.53964 -0.357863,-0.732782 -0.0871,-0.193142 -0.06438,-0.215858 0.07195,-0.212071 0.136332,0.0038 0.386269,0.03408 0.53207,0.0303 0.1458,-0.0038 0.187454,-0.04165 0.106032,-0.266985 -0.08142,-0.225331 -0.285916,-0.638104 -0.380592,-0.869107 -0.09468,-0.231002 -0.07953,-0.280239 -0.06817,-0.359769 0.01136,-0.07953 0.01894,-0.189349 0.181783,-0.176093 0.162845,0.01326 0.480945,0.149586 0.662722,0.176091 0.181778,0.02651 0.227218,-0.0568 0.147689,-0.306747 -0.07953,-0.249947 -0.284021,-0.666507 -0.374908,-0.912662 -0.09089,-0.246156 -0.06816,-0.321892 0.166634,-0.291594 0.234799,0.0303 0.681655,0.166626 0.942957,0.196922 0.261302,0.03029 0.337042,-0.04545 0.181772,-0.325686 -0.15527,-0.280242 -0.541537,-0.764969 -0.738462,-1.052781 -0.196925,-0.287813 -0.204501,-0.378696 -0.08332,-0.408991 0.121185,-0.0303 0.371118,0 0.526385,-0.0038 0.155267,-0.0038 0.21586,-0.04166 0.155267,-0.21586 -0.06059,-0.174203 -0.242366,-0.484734 -0.295383,-0.67787 -0.05302,-0.193137 0.02272,-0.268873 0.249942,-0.231002 0.227223,0.03787 0.605916,0.189347 0.844501,0.276449 0.238584,0.0871 0.337038,0.109823 0.280231,-0.0871 -0.05681,-0.196928 -0.268874,-0.613488 -0.355975,-0.844493 -0.0871,-0.231005 -0.04923,-0.276453 0.246161,-0.13633 0.295389,0.140123 0.848278,0.465798 1.155025,0.594555 0.306747,0.128758 0.367339,0.06059 0.295384,-0.321902 -0.07196,-0.382493 -0.276448,-1.079284 -0.344612,-1.442836 -0.06816,-0.363553 -3e-6,-0.393848 0.21586,-0.295383 0.215863,0.09847 0.579406,0.32568 0.855858,0.443078 0.276452,0.117398 0.465797,0.124974 0.469583,-0.121183 0.0038,-0.246156 -0.177986,-0.746029 -0.242364,-1.056564 -0.06438,-0.310535 -0.01136,-0.431716 0.284028,-0.181768 0.29539,0.249947 0.833134,0.871003 1.143669,1.14745 0.310535,0.276446 0.393844,0.208285 0.318102,-0.219653 -0.07574,-0.427937 -0.310531,-1.215614 -0.386272,-1.624608 -0.07574,-0.408995 0.0076,-0.439292 0.242372,-0.291597 0.234798,0.147696 0.621063,0.473371 0.863431,0.624851 0.242367,0.15148 0.340829,0.12876 0.325679,-0.151482 -0.01515,-0.280242 -0.143906,-0.817985 -0.151478,-1.120946 -0.0076,-0.302961 0.106033,-0.371123 0.382489,-0.185556 0.276455,0.185567 0.715739,0.62485 0.977043,0.817984 0.261305,0.193135 0.344612,0.140121 0.299167,-0.28403 -0.04545,-0.42415 -0.219644,-1.219404 -0.272659,-1.632187 -0.05302,-0.412782 0.01514,-0.443075 0.257515,-0.265084 0.242373,0.177991 0.658935,0.564258 0.908879,0.757395 0.249944,0.193136 0.333254,0.193136 0.302956,-0.121191 -0.0303,-0.314327 -0.1742,-0.942953 -0.196922,-1.279996 -0.02272,-0.337042 0.07574,-0.382487 0.367342,-0.136327 0.291602,0.246159 0.776328,0.783903 1.067928,1.022481 0.2916,0.238578 0.390057,0.17799 0.329464,-0.234799 -0.06059,-0.412789 -0.280235,-1.177746 -0.352188,-1.579167 -0.07195,-0.401422 0.0038,-0.439292 0.208288,-0.333254 0.2045,0.106037 0.53775,0.355974 0.746033,0.46201 0.208284,0.106036 0.291599,0.06816 0.257514,-0.17042 -0.03409,-0.238585 -0.185561,-0.677865 -0.227216,-0.916446 -0.04166,-0.23858 0.02651,-0.276449 0.287815,-0.09846 0.261306,0.177991 0.715737,0.571831 0.9884,0.746032 0.272664,0.174201 0.36355,0.128757 0.276447,-0.159059 -0.0871,-0.287815 -0.352189,-0.817984 -0.465797,-1.117157 -0.113609,-0.299173 -0.07574,-0.367338 0.08332,-0.318105 0.159057,0.04923 0.439287,0.215855 0.617278,0.287809 0.177991,0.07195 0.253725,0.04923 0.185557,-0.166627 -0.06817,-0.215861 -0.280234,-0.624847 -0.371121,-0.893726 -0.09089,-0.26888 -0.06059,-0.397635 0.212078,-0.329466 0.27267,0.06817 0.78769,0.333254 1.075502,0.424141 0.287812,0.09089 0.348403,0.0076 0.19692,-0.261307 -0.151483,-0.268882 -0.515027,-0.723311 -0.685442,-1.007336 -0.170416,-0.284026 -0.147696,-0.397634 0.03408,-0.359762 0.181779,0.03787 0.522602,0.227218 0.761185,0.329467 0.238583,0.102248 0.374911,0.117395 0.299167,-0.231016 -0.07574,-0.34841 -0.363549,-1.060351 -0.469585,-1.446624 -0.106036,-0.386273 -0.03029,-0.446865 0.227225,-0.321891 0.25752,0.124975 0.696801,0.435501 0.961893,0.568045 0.265092,0.132544 0.355975,0.0871 0.295381,-0.367346 -0.06059,-0.454447 -0.272662,-1.317864 -0.340827,-1.772303 -0.06816,-0.45444 0.0076,-0.499883 0.227223,-0.340825 0.21965,0.159058 0.583193,0.522601 0.825561,0.681654 0.242367,0.159053 0.36355,0.11361 0.318103,-0.393856 -0.04545,-0.507467 -0.257513,-1.476917 -0.310529,-1.96544 -0.05302,-0.488524 0.05302,-0.4961 0.374915,-0.363555 0.321899,0.132546 0.859643,0.405204 1.200473,0.522601 0.34083,0.117397 0.484734,0.07953 0.412779,-0.348411 -0.07196,-0.427939 -0.359761,-1.245912 -0.450647,-1.666269 -0.09089,-0.420357 0.01514,-0.443079 0.310534,-0.355978 0.295391,0.0871 0.780118,0.284022 1.056568,0.359761 0.27645,0.07574 0.344615,0.0303 0.363549,-0.344623 0.01893,-0.37492 -0.01136,-1.079283 0.01515,-1.457985 0.02651,-0.378703 0.109817,-0.431716 0.549116,-0.242362 0.439299,0.189353 1.234552,0.621064 1.700354,0.821773 0.465802,0.20071 0.602127,0.170415 0.564257,-0.337052 -0.03787,-0.507467 -0.249938,-1.492064 -0.272658,-1.999521 -0.02272,-0.507456 0.143902,-0.537752 0.590774,-0.06058 0.446871,0.47717 1.173961,1.46177 1.590532,1.938929 0.416571,0.477159 0.522602,0.446864 0.49988,-0.310549 -0.02272,-0.757414 -0.1742,-2.241884 -0.189347,-2.991709 -0.01515,-0.749825 0.106035,-0.764971 0.492314,-0.355967 0.38628,0.409005 1.037629,1.242126 1.454199,1.65112 0.41657,0.408995 0.598345,0.393848 0.636212,-0.04545 0.03787,-0.439298 -0.06817,-1.302715 -0.07574,-1.74958 -0.0076,-0.446866 0.08331,-0.477161 0.484741,0.174215 0.401429,0.651377 1.113368,1.98437 1.55266,2.65088 0.439292,0.66651 0.605916,0.66651 0.552897,-0.09848 -0.05302,-0.764986 -0.325677,-2.2949 -0.378694,-3.059873 -0.05302,-0.764973 0.113606,-0.764973 0.613497,-0.310525 0.499892,0.454448 1.333013,1.363307 1.825322,1.810173 0.492308,0.446865 0.643788,0.431719 0.621064,-0.287823 -0.02272,-0.719542 -0.219644,-2.143422 -0.227215,-2.855376 -0.0076,-0.711953 0.174198,-0.711953 0.605922,0.06818 0.431724,0.780136 1.113368,2.340345 1.529938,3.11289 0.416569,0.772545 0.568048,0.757395 0.583195,-0.106057 0.01515,-0.863452 -0.106034,-2.575135 -0.06816,-3.484014 0.03787,-0.908879 0.234792,-1.014913 0.666515,-0.507446 0.431724,0.507467 1.098227,1.628396 1.522367,2.204019 0.42415,0.575623 0.60592,0.605919 0.65894,0.143899 0.053,-0.46202 -0.0227,-1.416327 0,-1.90106 0.0227,-0.484734 0.14391,-0.499881 0.46959,0.15907 0.32569,0.658951 0.85585,1.991945 1.18911,2.681178 0.33326,0.689232 0.46959,0.734675 0.46959,-0.106055 -1e-5,-0.84073 -0.13634,-2.567562 -0.13633,-3.43857 0,-0.871007 0.13633,-0.886154 0.54533,0.05304 0.409,0.939193 1.09064,2.832652 1.49207,3.779397 0.40142,0.946746 0.5226,0.946746 0.46958,-0.06061 -0.053,-1.007361 -0.28023,-3.021997 -0.31053,-4.052059 -0.0303,-1.030062 0.13633,-1.075504 0.75741,-0.325664 0.62108,0.749841 1.69656,2.294899 2.28733,3.037151 0.59077,0.742252 0.69681,0.681656 0.59834,-0.151497 -0.0985,-0.833154 -0.40141,-2.438805 -0.45443,-3.241648 -0.053,-0.802843 0.1439,-0.802843 0.53018,-0.196912 0.38628,0.605931 0.96189,1.817746 1.33302,2.484256 0.37112,0.666511 0.53775,0.787693 0.5529,0.106019 0.0151,-0.681673 -0.12119,-2.166143 -0.0757,-2.931115 0.0454,-0.764973 0.27266,-0.810417 0.77255,-0.0833 0.49989,0.727117 1.27242,2.226734 1.74201,3.022004 0.46959,0.795271 0.63621,0.886154 0.72709,0.212056 0.0909,-0.674099 0.10602,-2.113125 0.21205,-2.847803 0.10603,-0.734677 0.30295,-0.764973 0.74225,-0.159041 0.4393,0.605932 1.12094,1.848036 1.62082,2.506973 0.49989,0.658937 0.81799,0.734675 0.85586,0.121171 0.0379,-0.613505 -0.20449,-1.916204 -0.24994,-2.559993 -0.0454,-0.643788 0.10604,-0.628642 0.47717,0.06818 0.37113,0.696819 0.96189,2.075257 1.34059,2.764488 0.3787,0.689232 0.54532,0.689232 0.57562,-0.128775 0.0303,-0.818006 -0.0757,-2.453953 -0.0606,-3.188627 0.0151,-0.734674 0.15148,-0.568048 0.49989,0.02273 0.3484,0.590778 0.90887,1.605675 1.31029,2.12828 0.40143,0.522605 0.64379,0.552901 0.65136,0.04543 0.008,-0.507467 -0.21964,-1.552652 -0.24994,-2.082831 -0.0303,-0.530179 0.13633,-0.545325 0.63622,0.204514 0.49989,0.749839 1.33301,2.264607 1.82533,3.022004 0.49231,0.757397 0.64378,0.757397 0.54532,-0.04546 -0.0985,-0.802856 -0.44687,-2.408509 -0.53775,-3.203778 -0.0909,-0.795268 0.0757,-0.780122 0.6438,0.03788 0.56805,0.818005 1.5375,2.438806 2.07526,3.597633 0.53775,1.158827 0.64378,1.855618 0.78012,2.211594 0.13633,0.355977 0.30296,0.371124 0.35597,-0.159067 0.053,-0.53019 -0.008,-1.605673 -0.19692,-2.802375 -0.18935,-1.196703 -0.50745,-2.51455 -0.5529,-3.173485 -0.0454,-0.658936 0.18178,-0.658936 0.72711,0.08333 0.54534,0.742267 1.40875,2.226733 1.92379,2.991707 0.51503,0.764974 0.68165,0.810416 0.65135,0.01513 -0.0303,-0.795285 -0.25751,-2.431231 -0.28781,-3.279517 -0.0303,-0.848286 0.13634,-0.908878 0.55291,-0.34839 0.41657,0.560489 1.08307,1.742003 1.49964,2.340348 0.41658,0.598346 0.5832,0.613495 0.60592,0.05301 0.0227,-0.560486 -0.0985,-1.69656 -0.0909,-2.272182 0.008,-0.575621 0.14391,-0.590769 0.67409,1.3e-5 0.53018,0.590782 1.45419,1.787447 1.96923,2.370643 0.51503,0.583196 0.62106,0.552901 0.44685,-0.06818 -0.17421,-0.621079 -0.62863,-1.83289 -0.8104,-2.469107 -0.18178,-0.636218 -0.0909,-0.696804 0.46201,-0.401412 0.55292,0.295393 1.56781,0.946741 2.12828,1.189106 0.56048,0.242365 0.66651,0.07574 0.23479,-0.530188 -0.43173,-0.60593 -1.40118,-1.651117 -1.94651,-2.188871 -0.54533,-0.537753 -0.66651,-0.568049 -0.32567,-0.628642 0.34084,-0.06059 1.14366,-0.151478 1.54508,-0.242367 0.40143,-0.09089 0.40143,-0.181773 0.008,-0.590775 -0.39385,-0.409003 -1.18153,-1.136089 -2.12072,-1.855623 -0.93918,-0.719535 -2.02981,-1.431474 -2.62059,-1.810178 -0.59078,-0.378704 -0.68165,-0.424141 -0.16661,-0.340826 0.51504,0.08331 1.63597,0.295384 2.20401,0.355969 0.56805,0.06059 0.58318,-0.0303 -0.27271,-0.696815 -0.85588,-0.666519 -2.58271,-1.908626 -4.18841,-2.878103 -1.6057,-0.969478 -3.09017,-1.66627 -3.91574,-2.052543 -0.82556,-0.386273 -0.99219,-0.462015 -0.42412,-0.43929 0.56806,0.02272 1.87076,0.143905 2.51455,0.128752 0.6438,-0.01515 0.62866,-0.166627 -0.38626,-0.757406 -1.01493,-0.590779 -3.02957,-1.62082 -5.13516,-2.370649 -2.10559,-0.749829 -4.302,-1.219406 -5.40781,-1.514788 -1.10581,-0.295382 -1.12097,-0.416568 -0.58322,-0.469588 0.53776,-0.05302 1.62839,-0.03787 2.17372,-0.09847 0.54532,-0.06059 0.54532,-0.196923 -0.46204,-0.462016 -1.00736,-0.265093 -3.022,-0.658933 -4.66556,-0.878579 -1.64357,-0.219645 -2.91597,-0.265088 -3.65822,-0.325681 -0.74226,-0.06059 -0.95432,-0.13633 -0.918,-0.408238 0.0363,-0.271909 0.32103,-0.73996 0.44067,-1.034577 0.11963,-0.294618 0.0742,-0.415824 -1.55977,-0.518874 -1.63396,-0.103051 -4.85657,-0.187981 -7.72755,-0.165877 -2.870971,0.0221 -2.625078,0.0095 -7.133195,0.637862 -4.508116,0.628362 -4.334438,0.582482 -5.224048,0.817486 -0.889609,0.235005 -0.889607,0.235008 -0.959994,0.08318 z"
       id="fill"
       inkscape:path-effect="#path-effect28"
       inkscape:original-d="m 87.44734,30.040494 c -0.140774,-0.303666 -0.281536,-0.607304 -0.422309,-0.910966 -1.268743,0.970253 -2.537403,1.940442 -3.806145,2.910693 -0.243959,-0.319126 -0.487904,-0.638231 -0.731863,-0.957356 -0.152283,-0.243003 -0.304558,-0.485995 -0.456837,-0.728993 -0.463945,0.752386 -0.927877,1.504752 -1.391831,2.257154 -0.175689,0.315831 -0.351367,0.631641 -0.527056,0.947471 -0.44434,0.0605 -0.888654,0.120998 -1.332994,0.181498 -0.780582,0.311236 -1.561132,0.622458 -2.341699,0.933688 -0.106036,0.02273 -0.21207,0.04544 -0.318106,0.06817 0.287816,0.106036 0.575623,0.21207 0.863433,0.318106 -1.113397,0.59078 -2.22675,1.18154 -3.340123,1.77231 -1.560274,0.49232 -3.12048,0.984617 -4.68072,1.476927 0.07574,0.0303 0.15148,0.06059 0.22722,0.09089 0.93919,0.06817 1.878346,0.136333 2.81752,0.2045 -2.120757,1.41636 -4.24143,2.832666 -6.362144,4.249 -0.734693,0.62108 -1.469353,1.242133 -2.20403,1.8632 0.681674,-0.21965 1.363317,-0.43929 2.044977,-0.658937 0.04544,0.01513 0.09089,0.0303 0.13633,0.04545 -1.757197,1.355766 -3.514327,2.711483 -5.27149,4.067226 -0.02273,0.06059 -0.04544,0.121184 -0.06817,0.181774 0.727117,-0.272667 1.454204,-0.545327 2.181307,-0.81799 0.03787,0.05302 0.07574,0.106036 0.11361,0.159056 -1.825367,1.98442 -3.65066,3.968763 -5.475987,5.953147 0.08331,0.12876 0.166627,0.257516 0.24994,0.386273 0.84073,-0.628653 1.681424,-1.25728 2.522137,-1.88592 0.05302,0.06059 0.106033,0.121183 0.159053,0.181773 -1.59057,2.219224 -3.181073,4.438354 -4.77161,6.65753 0.03787,0.09089 0.07574,0.181777 0.11361,0.272664 0.780137,-0.522617 1.56024,-1.04521 2.34036,-1.567814 0.02273,0.08331 0.04545,0.166627 0.06817,0.24994 -1.24973,2.204074 -2.499413,4.408057 -3.74912,6.612087 0.08332,0.09089 0.166627,0.181773 0.24994,0.272663 0.666527,-0.734693 1.333023,-1.469353 1.999533,-2.20403 -1.431513,2.401 -2.862966,4.801904 -4.294446,7.202857 0.06059,0.02273 0.121183,0.04544 0.181773,0.06817 1.037657,-0.780137 2.07527,-1.56024 3.112907,-2.34036 0.04545,0.06059 0.09089,0.121183 0.136333,0.181773 -0.727117,1.037657 -1.454207,2.07527 -2.181307,3.112907 0.04544,0.04544 0.09089,0.09089 0.13633,0.136333 0.446874,-0.257523 0.89373,-0.515033 1.340597,-0.772547 0.06059,0.06817 0.121183,0.13633 0.181773,0.204497 -0.545336,1.143693 -1.090653,2.287343 -1.63598,3.431013 0.06817,0.05302 0.136334,0.106037 0.204497,0.159054 0.36356,-0.333264 0.727103,-0.66651 1.090653,-0.999767 0.05302,0.05302 0.106037,0.106037 0.159057,0.159053 -0.58321,1.211864 -1.166393,2.423677 -1.74959,3.635514 0.0303,0.09089 0.06059,0.181773 0.09089,0.272663 0.51504,-0.560487 1.03006,-1.12095 1.545093,-1.681423 0.0463,0.01147 0.0926,0.0229 0.138893,0.03437 -0.399,0.883693 -0.797986,1.76735 -1.19698,2.651027 0.02947,0.02677 0.05891,0.05356 0.08837,0.08033 0.332057,-0.3749 0.664097,-0.749783 0.996147,-1.124677 0.04552,0.02677 0.09104,0.05356 0.136566,0.08033 -0.334733,1.084533 -0.66945,2.169023 -1.004176,3.253533 0.03749,0.0241 0.07498,0.0482 0.112466,0.0723 0.291887,-0.50076 0.583764,-1.0015 0.875644,-1.50225 0.03749,0.0241 0.07498,0.0482 0.112466,0.0723 -0.27314,0.642687 -0.54627,1.285347 -0.819406,1.92802 0.01873,0.02143 0.03749,0.04285 0.05623,0.06427 0.246363,-0.20352 0.492717,-0.407026 0.739073,-0.61054 0.02677,0.02677 0.05356,0.05355 0.08034,0.08033 -0.147283,0.49808 -0.29456,0.996143 -0.44184,1.494216 0.02143,0.03749 0.04285,0.07498 0.06427,0.112467 0.141926,-0.195483 0.28385,-0.39096 0.425773,-0.58644 0.02947,0.0134 0.05891,0.02677 0.08837,0.04017 -0.05623,0.741766 -0.112467,1.483506 -0.1687,2.225256 0.02677,0.02143 0.05355,0.04285 0.08033,0.06427 0.12318,-0.273143 0.246357,-0.546273 0.369537,-0.81941 0.04017,0.0107 0.08033,0.02143 0.1205,0.03213 -0.05088,0.645363 -0.101757,1.290703 -0.152634,1.936053 0.02677,0.0107 0.05356,0.02143 0.08033,0.03213 0.120503,-0.200837 0.241003,-0.40167 0.361503,-0.602507 0.03751,0.31347 0.07498,0.626622 0.112471,0.939943 -0.11247,0.145945 -0.224934,0.291882 -0.337401,0.437824 0.01473,0.0027 0.02947,0.0054 0.04418,0.008 0.09239,0.258412 0.184766,0.516811 0.277152,0.775224 -0.08837,0.484692 -0.176733,0.969356 -0.265102,1.454048 -0.02678,0.476659 -0.05356,0.953288 -0.08034,1.429951 0.224941,-0.17674 0.449872,-0.353472 0.674807,-0.530206 0.06962,0.273135 0.139246,0.546267 0.208871,0.819408 -0.06718,0.537764 -0.134353,1.075446 -0.201541,1.61326 0.305304,0.01607 0.610509,0.03213 0.915808,0.0482 0.117831,-0.428477 0.235642,-0.856883 0.35347,-1.285347 0.06427,0 0.128534,0 0.192803,0 0.107114,0.594483 0.214224,1.18894 0.321337,1.783417 0.06427,-0.03213 0.128534,-0.06427 0.192803,-0.0964 0.0964,-0.62662 0.192798,-1.253183 0.289204,-1.87982 0.05356,-0.01071 0.10711,-0.02142 0.160666,-0.03213 0.176739,0.310631 0.353455,0.621223 0.530207,0.931877 0.05356,-0.01607 0.10711,-0.03213 0.160667,-0.0482 -0.02678,-0.35348 -0.05355,-0.706943 -0.08033,-1.060413 0.0482,-0.01607 0.0964,-0.03213 0.144604,-0.0482 0.171391,0.508819 0.342757,1.017566 0.514136,1.52635 0.05891,0 0.117823,0 0.176737,0 -0.01293,-0.546285 -0.02586,-1.092544 -0.03879,-1.638817 0.05891,-0.01607 0.117821,-0.03213 0.176734,-0.0482 0.205736,0.44988 0.411464,0.899743 0.617195,1.349613 0.05891,-0.02678 0.117823,-0.05355 0.176737,-0.08033 0.02142,-0.39097 0.04285,-0.781915 0.06427,-1.17288 -0.09181,-0.580301 -0.183599,-1.160533 -0.275411,-1.740881 0.272666,0.734686 0.545325,1.469352 0.817988,2.204028 0.05302,-0.02651 0.106035,-0.05302 0.159053,-0.07953 -0.193139,-0.901317 -0.386273,-1.80261 -0.579408,-2.703911 0.03787,-0.04166 0.07574,-0.08331 0.11361,-0.12497 0.234796,0.140121 0.469581,0.280235 0.704378,0.420357 0.04923,0.01136 0.09846,0.02272 0.147694,0.03408 -0.196927,-0.363557 -0.393845,-0.727099 -0.590769,-1.090651 0.02273,-0.02273 0.04544,-0.04545 0.06816,-0.06817 0.249946,0.0303 0.499883,0.06059 0.749826,0.09089 0.04166,-0.03787 0.08331,-0.07574 0.12497,-0.11361 -0.204503,-0.41279 -0.408996,-0.825563 -0.613493,-1.238343 0.01513,-0.04923 0.0303,-0.09846 0.04544,-0.147693 0.0076,-0.109827 0.01517,-0.219647 0.02273,-0.32947 0.318113,0.136336 0.636213,0.272663 0.95432,0.408996 0.04545,-0.08332 0.09089,-0.166626 0.136333,-0.249943 -0.204503,-0.416577 -0.408997,-0.833137 -0.613493,-1.249707 0.02273,-0.07574 0.04544,-0.15148 0.06817,-0.227216 0.446874,0.136333 0.89373,0.272663 1.340594,0.408993 0.07574,-0.07574 0.15148,-0.15148 0.22722,-0.22722 -0.38628,-0.484743 -0.772547,-0.96947 -1.15882,-1.454203 -0.0076,-0.09089 -0.01513,-0.181777 -0.02273,-0.272663 0.249947,0.0303 0.49988,0.06059 0.749824,0.09089 0.06059,-0.03787 0.121183,-0.07574 0.181773,-0.11361 -0.181777,-0.310536 -0.36355,-0.621066 -0.545323,-0.9316 0.07574,-0.07574 0.151476,-0.151476 0.227216,-0.227216 0.378707,0.15148 0.7574,0.302956 1.136097,0.454436 0.09847,0.02273 0.196927,0.04544 0.295387,0.06817 -0.212077,-0.416577 -0.424144,-0.833137 -0.636214,-1.249707 0.03787,-0.04544 0.07574,-0.09089 0.11361,-0.13633 0.55291,0.325687 1.1058,0.65136 1.6587,0.977044 0.06059,-0.06817 0.121184,-0.136334 0.181777,-0.2045 -0.204503,-0.69682 -0.408997,-1.39361 -0.613493,-2.090417 0.06817,-0.0303 0.136333,-0.06059 0.204496,-0.09089 0.36356,0.227227 0.727104,0.45444 1.090654,0.68166 0.189353,0.0076 0.3787,0.01513 0.56805,0.02273 -0.18178,-0.49989 -0.36355,-0.999763 -0.545327,-1.499646 0.05302,-0.121187 0.106037,-0.242367 0.159053,-0.36355 0.537764,0.621076 1.075507,1.242133 1.613257,1.863196 0.08332,-0.06817 0.16663,-0.13633 0.249943,-0.204496 -0.2348,-0.78771 -0.469586,-1.575387 -0.70438,-2.36308 0.08331,-0.0303 0.166627,-0.06059 0.24994,-0.09089 0.38628,0.32569 0.772547,0.651363 1.15882,0.977043 0.09846,-0.02273 0.196924,-0.04544 0.295384,-0.06816 -0.12876,-0.537764 -0.257514,-1.075507 -0.386274,-1.61326 0.113614,-0.06817 0.22722,-0.13633 0.34083,-0.204497 0.4393,0.4393 0.878584,0.878583 1.317874,1.317873 0.08332,-0.05302 0.166626,-0.106036 0.24994,-0.159053 -0.174204,-0.795283 -0.348404,-1.590537 -0.522604,-2.385803 0.06817,-0.0303 0.13633,-0.06059 0.204497,-0.09089 0.416577,0.38628 0.83314,0.772546 1.249707,1.15882 0.08332,0 0.16663,0 0.249943,0 -0.14391,-0.628654 -0.287813,-1.25728 -0.431717,-1.88592 0.09846,-0.04545 0.196924,-0.09089 0.295384,-0.136334 0.484743,0.537764 0.96947,1.075507 1.454203,1.613257 0.09847,-0.06059 0.196923,-0.121183 0.295387,-0.181773 -0.21965,-0.764987 -0.43929,-1.529944 -0.658937,-2.294917 0.07574,-0.03787 0.15148,-0.07574 0.22722,-0.11361 0.33326,0.249947 0.66651,0.499883 0.999767,0.749823 0.08331,-0.03787 0.166626,-0.07574 0.24994,-0.11361 -0.151484,-0.4393 -0.30296,-0.87858 -0.45444,-1.31787 0.06817,-0.03787 0.136333,-0.07574 0.2045,-0.11361 0.454446,0.393854 0.908876,0.787694 1.363316,1.18154 0.09089,-0.04544 0.181774,-0.09089 0.27266,-0.136333 -0.265093,-0.530187 -0.530176,-1.060357 -0.795266,-1.590533 0.03787,-0.06817 0.07574,-0.136334 0.11361,-0.2045 0.280243,0.166633 0.560473,0.333256 0.840713,0.499883 0.07574,-0.02273 0.151477,-0.04544 0.227217,-0.06816 -0.212074,-0.409004 -0.42414,-0.81799 -0.636214,-1.226987 0.0303,-0.12876 0.06059,-0.257517 0.09089,-0.386273 0.515043,0.265096 1.030063,0.53018 1.545093,0.79527 0.06059,-0.08332 0.121184,-0.16663 0.181777,-0.249944 -0.36356,-0.454446 -0.727103,-0.908876 -1.090653,-1.363316 0.02273,-0.11361 0.04544,-0.22722 0.06816,-0.34083 0.340837,0.189353 0.68166,0.3787 1.02249,0.56805 0.136333,0.01517 0.272663,0.0303 0.408993,0.04544 -0.287816,-0.711967 -0.575623,-1.423907 -0.863433,-2.135863 0.07574,-0.06059 0.15148,-0.121184 0.22722,-0.181774 0.4393,0.31054 0.87858,0.621067 1.317873,0.9316 0.09089,-0.04545 0.181774,-0.09089 0.272664,-0.136333 -0.212077,-0.86345 -0.424144,-1.726867 -0.636217,-2.5903 0.07574,-0.04545 0.15148,-0.09089 0.22722,-0.136333 0.36356,0.36356 0.727103,0.727103 1.090653,1.090653 0.121187,-0.04544 0.242367,-0.09089 0.36355,-0.13633 -0.212073,-0.96949 -0.42414,-1.93894 -0.636213,-2.90841 0.106037,-0.0076 0.212073,-0.01513 0.318107,-0.02273 0.537763,0.272666 1.075506,0.545326 1.61326,0.81799 0.143906,-0.03787 0.28781,-0.07574 0.431716,-0.11361 -0.287816,-0.818007 -0.575623,-1.63598 -0.863433,-2.45397 0.106037,-0.02273 0.21207,-0.04544 0.318107,-0.06817 0.484743,0.196927 0.96947,0.393847 1.454203,0.59077 0.06817,-0.04544 0.13633,-0.09089 0.204497,-0.13633 -0.0303,-0.704397 -0.06059,-1.40876 -0.09089,-2.113143 0.08332,-0.05302 0.166626,-0.106034 0.24994,-0.159054 0.795283,0.431727 1.590536,0.863437 2.385803,1.295154 0.136337,-0.0303 0.272663,-0.06059 0.408997,-0.09089 -0.212077,-0.984637 -0.424144,-1.969234 -0.636214,-2.95385 0.16663,-0.0303 0.333254,-0.06059 0.49988,-0.09089 0.727117,0.984636 1.454207,1.969236 2.181307,2.953853 0.10604,-0.0303 0.212073,-0.06059 0.31811,-0.09089 -0.151483,-1.48453 -0.30296,-2.969 -0.45444,-4.453503 0.121187,-0.01513 0.242367,-0.0303 0.36355,-0.04544 0.651377,0.833156 1.302727,1.666276 1.954087,2.499413 0.18178,-0.01513 0.363553,-0.0303 0.545326,-0.04544 -0.106036,-0.86345 -0.21207,-1.726867 -0.318106,-2.5903 0.09089,-0.0303 0.181776,-0.06059 0.272663,-0.09089 0.71197,1.33305 1.42391,2.666043 2.135863,3.999063 0.16663,0 0.333254,0 0.499884,0 -0.27267,-1.529973 -0.545327,-3.059887 -0.81799,-4.589833 0.16663,0 0.333253,0 0.49988,0 0.833156,0.908896 1.666276,1.817756 2.499416,2.726633 0.15148,-0.01513 0.302957,-0.0303 0.454437,-0.04544 -0.196927,-1.423937 -0.393847,-2.847817 -0.59077,-4.271724 0.18178,0 0.36355,0 0.545327,0 0.681673,1.56027 1.363316,3.12048 2.044973,4.68072 0.151483,-0.01513 0.30296,-0.0303 0.45444,-0.04545 -0.121187,-1.711754 -0.242367,-3.423437 -0.36355,-5.135157 0.196927,-0.10604 0.393847,-0.212073 0.59077,-0.318107 0.666523,1.12097 1.333028,2.241897 1.999538,3.362847 0.18178,0.0303 0.36355,0.06059 0.54533,0.09089 -0.0757,-0.95434 -0.15148,-1.908644 -0.22722,-2.862964 0.12118,-0.01517 0.24237,-0.0303 0.36355,-0.04544 0.53019,1.333047 1.06036,2.66604 1.59053,3.99906 0.13634,0.04545 0.27267,0.09089 0.409,0.136333 -0.13633,-1.726903 -0.27266,-3.453736 -0.409,-5.180603 0.13634,-0.01513 0.27267,-0.0303 0.409,-0.04544 0.68167,1.893533 1.36332,3.78699 2.04497,5.680483 0.12119,0 0.24237,0 0.36356,0 -0.22723,-2.01472 -0.45444,-4.029357 -0.68166,-6.044037 0.16663,-0.04544 0.33325,-0.09089 0.49988,-0.13633 1.07553,1.545124 2.15101,3.090184 3.22652,4.635277 0.10603,-0.06059 0.21207,-0.121183 0.3181,-0.181777 -0.30296,-1.605716 -0.60592,-3.211366 -0.90887,-4.817053 0.19692,0 0.39384,0 0.59077,0 0.57563,1.211863 1.15124,2.423677 1.72686,3.635513 0.16663,0.121187 0.33326,0.242367 0.49989,0.36355 -0.13634,-1.48453 -0.27267,-2.969 -0.409,-4.4535 0.22722,-0.04545 0.45444,-0.09089 0.68166,-0.136333 0.77256,1.49968 1.54509,2.999297 2.31764,4.498947 0.16663,0.09089 0.33325,0.181773 0.49988,0.272663 0.0151,-1.439087 0.0303,-2.878113 0.0454,-4.31717 0.19693,-0.0303 0.39385,-0.06059 0.59077,-0.09089 0.68168,1.242157 1.36332,2.484264 2.04498,3.726397 0.31811,0.07574 0.63621,0.15148 0.95432,0.22722 -0.24237,-1.30275 -0.48473,-2.60545 -0.7271,-3.908173 0.15148,0.01513 0.30296,0.0303 0.45444,0.04544 0.59078,1.378493 1.18154,2.75693 1.77231,4.135393 0.16663,0 0.33325,0 0.49988,0 -0.10604,-1.636013 -0.21207,-3.27196 -0.31811,-4.90794 0.13634,0.16663 0.27267,0.333257 0.409,0.499884 0.56048,1.014933 1.12095,2.029826 1.68142,3.04474 0.24238,0.0303 0.48474,0.06059 0.7271,0.09089 -0.22722,-1.04523 -0.45443,-2.090416 -0.68165,-3.135626 0.16663,-0.01513 0.33325,-0.0303 0.49988,-0.04544 0.83315,1.514827 1.66628,3.02959 2.49941,4.544387 0.15149,0 0.30296,0 0.45444,0 -0.34841,-1.605713 -0.6968,-3.211367 -1.04521,-4.81705 0.16663,0.01513 0.33326,0.0303 0.49989,0.04544 0.96948,1.620864 1.93893,3.241664 2.9084,4.862497 0.10604,0.69682 0.21208,1.39361 0.31811,2.090417 0.16663,0.01513 0.33326,0.0303 0.49988,0.04544 -0.0606,-1.075527 -0.12118,-2.15101 -0.18177,-3.226513 -0.31812,-1.3179 -0.63622,-2.635747 -0.95432,-3.95362 0.22722,0 0.45444,0 0.68165,0 0.86346,1.48453 1.72687,2.969 2.59031,4.453503 0.16663,0.04544 0.33325,0.09089 0.49988,0.13633 -0.22723,-1.636013 -0.45444,-3.27196 -0.68166,-4.90794 0.16663,-0.06059 0.33326,-0.121183 0.49988,-0.181773 0.66653,1.181563 1.33302,2.36308 1.99953,3.54462 0.16664,0.01513 0.33326,0.0303 0.49989,0.04545 -0.1212,-1.13612 -0.24237,-2.272196 -0.36355,-3.408293 0.13632,-0.01513 0.27266,-0.0303 0.40898,-0.04544 0.92404,1.196713 1.84805,2.393376 2.77208,3.590066 0.10604,-0.0303 0.21207,-0.06059 0.3181,-0.09089 -0.45444,-1.211864 -0.90887,-2.423674 -1.36331,-3.63551 0.0909,-0.06059 0.18177,-0.121187 0.27266,-0.181777 1.01494,0.651373 2.02983,1.302723 3.04474,1.954087 0.10604,-0.16663 0.21207,-0.333257 0.31811,-0.499884 -0.96949,-1.045229 -1.93894,-2.090416 -2.90841,-3.135626 -0.12119,-0.0303 -0.24237,-0.06059 -0.36355,-0.09089 0.80286,-0.09089 1.60568,-0.181773 2.40853,-0.272663 0,-0.09089 0,-0.181774 0,-0.272664 -0.78771,-0.727116 -1.57539,-1.454203 -2.36309,-2.181303 -1.09067,-0.71197 -2.1813,-1.42391 -3.27196,-2.135863 -0.0909,-0.04545 -0.18177,-0.09089 -0.27266,-0.136334 1.12097,0.212077 2.2419,0.424144 3.36285,0.636217 0.0152,-0.09089 0.0303,-0.181777 0.0454,-0.272663 -1.7269,-1.24216 -3.45373,-2.484267 -5.1806,-3.7264 -1.48453,-0.69682 -2.969,-1.393614 -4.4535,-2.090417 -0.16663,-0.07574 -0.33326,-0.15148 -0.49988,-0.22722 1.30275,0.121187 2.60545,0.242367 3.90817,0.36355 -0.0152,-0.151483 -0.0303,-0.30296 -0.0454,-0.45444 -2.01472,-1.03008 -4.02936,-2.06012 -6.04404,-3.090183 -2.1965,-0.469597 -4.39291,-0.939173 -6.58936,-1.40876 -0.0151,-0.121186 -0.0303,-0.242368 -0.0455,-0.363551 1.09068,0.01515 2.18131,0.0303 3.27196,0.04544 0,-0.136335 0,-0.272664 0,-0.408995 -2.01472,-0.393855 -4.02936,-0.787694 -6.04403,-1.181541 -1.27246,-0.04544 -2.54486,-0.09089 -3.81729,-0.136332 -0.21208,-0.07574 -0.42414,-0.15148 -0.63621,-0.227219 0.28472,-0.468075 0.56942,-0.936128 0.85413,-1.404193 -0.0454,-0.121184 -0.0909,-0.242372 -0.13633,-0.363551 -3.22247,-0.08493 -6.44508,-0.169856 -9.66774,-0.254787 -2.519291,0.12914 -2.273398,0.116535 -7.557698,0.387409 -3.731933,0.98585 -3.558255,0.93997 -5.337474,1.409979 z"
       sodipodi:nodetypes="cccccccccccccccccccccccccccccccccccccccccccccccccccccccccccccccccccccccccccccccccccccccccccccccccccccccccccccccccccccccccccccccccccccccccccccccccccccccccccccccccccccccccccccccccccccccccccccccccccccccccccccccccccccccccccccccccccccccccccccccccccccccccccccccccccccccccccccccccccccccccccccccccccccccccccccccccc"
       />
  </g>
</svg>
