<?xml version="1.0" encoding="UTF-8" standalone="no"?>
<svg
   width="600"
   height="900"
   viewBox="0 0 200 300"
   font-family="sans-serif"
   version="1.1"
   id="svg19"
   sodipodi:docname="avatar rig.svg"
   inkscape:export-filename="..\public\avatars\clothing\02.svg"
   inkscape:export-xdpi="96"
   inkscape:export-ydpi="96"
   inkscape:version="1.4.2 (f4327f4, 2025-05-13)"
   xml:space="preserve"
   xmlns:inkscape="http://www.inkscape.org/namespaces/inkscape"
   xmlns:sodipodi="http://sodipodi.sourceforge.net/DTD/sodipodi-0.dtd"
   xmlns="http://www.w3.org/2000/svg"
   xmlns:svg="http://www.w3.org/2000/svg"><defs
     id="defs19"><inkscape:path-effect
       effect="bspline"
       id="path-effect30"
       is_visible="true"
       lpeversion="1.3"
       weight="33.333333"
       steps="2"
       helper_size="0"
       apply_no_weight="true"
       apply_with_weight="true"
       only_selected="false"
       uniform="false" /><linearGradient
       id="swatch19"
       inkscape:swatch="solid"><stop
         style="stop-color:#000000;stop-opacity:1;"
         offset="0"
         id="stop19" /></linearGradient></defs><sodipodi:namedview
     id="namedview19"
     pagecolor="#ffffff"
     bordercolor="#000000"
     borderopacity="0.25"
     inkscape:showpageshadow="2"
     inkscape:pageopacity="0.0"
     inkscape:pagecheckerboard="0"
     inkscape:deskcolor="#d1d1d1"
     inkscape:zoom="3.667527"
     inkscape:cx="224.40189"
     inkscape:cy="243.07933"
     inkscape:window-width="2560"
     inkscape:window-height="1369"
     inkscape:window-x="-8"
     inkscape:window-y="-8"
     inkscape:window-maximized="1"
     inkscape:current-layer="layer4"><inkscape:page
       x="0"
       y="0"
       width="200"
       height="300"
       id="page2"
       margin="0"
       bleed="0" /></sodipodi:namedview><!-- ================================================================
       AVATAR RIG GUIDE -- reference only, never ships as a game asset.
       Canvas: 200 x 300, shared by every layer (body, hair, hats,
       clothing).

       Head is WIDER than the body and the two are directly connected
       -- no neck segment. The torso's top edge tucks up underneath the
       head circle's curve (inside its radius), so when the head paints
       on top of the torso in z-order, it fully covers the join and the
       two read as one continuous connected shape, the way the
       Cyanide & Happiness reference does it.

       Body is otherwise simple and symmetric -- no 3/4 perspective, no
       near/far limb split. Facing direction (screen-right, per the
       Slay the Spire reference -- player left, enemies right) is sold
       through hair shape and facial feature placement (eyes/eyebrows/
       mouth angled or offset, all procedural/code-side) rather than
       any change to this rig.

       Draw your asset directly on top of this file in Inkscape, using
       the shapes/crosshairs for alignment, then delete the "guides"
       group, the "labels" group, and the backdrop rect below --
       before saving your real asset, nothing from this file should
       remain except what you drew.
       ================================================================ --><!-- Backdrop --><!-- Anchor point markers + labels --><g
     inkscape:groupmode="layer"
     id="layer4"
     inkscape:label="Hair"><path
       style="fill:#ff8400;fill-opacity:1;stroke:#000000;stroke-width:1;stroke-dasharray:none;stroke-dashoffset:1.8"
       d="M 87.494622,48.776432 C 92.887299,46.049798 101.61234,42.8385 109.853,42.611275 c 8.24066,-0.227225 15.99609,2.529589 20.36964,3.930528 4.37355,1.400939 5.36466,1.445826 5.63791,1.065225 0.27324,-0.3806 -0.17142,-1.186637 -0.667,-2.102828 -0.49559,-0.916191 -1.04204,-1.942427 -3.04219,-3.773476 -2.00015,-1.831049 -5.45374,-4.466683 -8.72577,-6.390516 -3.27203,-1.923832 -6.36209,-3.135621 -10.31578,-4.211147 -3.9537,-1.075526 -8.77055,-2.01466 -14.072447,-1.832882 -5.301897,0.181779 -11.088184,1.484451 -15.164137,2.662963 -4.075953,1.178512 -6.441112,2.232737 -8.051055,2.738567 -1.609944,0.505831 -2.464589,0.463235 -3.524117,0.341826 -1.059529,-0.121409 -2.323925,-0.32163 -4.342303,-0.895641 -2.018378,-0.57401 -4.790693,-1.521798 -8.872758,-0.431582 -4.082065,1.090216 -9.473835,4.218433 -10.688895,10.351949 -1.215061,6.133516 1.746594,15.272308 3.529212,18.962812 1.782618,3.690503 2.386186,1.932689 3.235797,-0.577661 0.849612,-2.510349 1.945264,-5.773229 2.911072,-8.224282 0.965807,-2.451053 1.801761,-4.090261 1.936775,-4.401645 0.135014,-0.311385 -0.430914,0.705062 -0.912643,1.764055 -0.48173,1.058992 -0.87925,2.160506 -1.31426,3.428046 -0.43501,1.267541 -0.907507,2.701098 -1.492478,4.445299 -0.584971,1.744202 -1.282405,3.799016 -1.760263,5.468237 -0.477858,1.669222 -0.736135,2.952829 -0.789535,5.260944 -0.0534,2.308114 0.09808,5.640561 0.57686,8.710802 0.478785,3.070241 1.284824,5.877937 1.966497,6.423274 0.681672,0.545338 1.238905,-1.17178 1.724537,-2.777376 0.485631,-1.605597 0.899623,-3.099544 1.747925,-5.159707 0.848302,-2.060162 2.13084,-4.686353 3.756759,-6.241845 1.625918,-1.555493 3.595074,-2.040208 5.041957,-2.203925 1.446883,-0.163716 2.371319,-0.0064 3.219622,0.493479 0.848303,0.499893 1.620372,1.342316 2.277707,1.466863 0.657335,0.124546 1.199856,-0.468799 1.79203,-1.534692 0.592175,-1.065893 1.23393,-2.604201 1.750363,-4.170747 0.516433,-1.566546 0.907481,-3.161138 0.951533,-4.700748 0.04405,-1.53961 -0.258901,-3.024081 0.61968,-4.887281 0.878581,-1.8632 2.938701,-4.105097 8.331377,-6.831731 z"
       id="path29"
       inkscape:path-effect="#path-effect30"
       inkscape:original-d="m 84.162068,49.261166 c 8.725231,-3.211368 17.450272,-6.422668 26.175682,-9.6341 7.75591,2.756984 15.51134,5.513798 23.26726,8.270786 0.99118,0.04489 1.98229,0.08978 2.97347,0.134667 -0.44469,-0.80609 -0.88935,-1.612126 -1.33403,-2.418212 -0.54649,-1.026297 -1.09294,-2.052535 -1.63943,-3.078831 -3.45381,-2.635801 -6.9074,-5.271435 -10.36121,-7.907237 -3.09025,-1.211863 -6.18031,-2.423652 -9.27055,-3.635512 -4.81715,-0.939192 -9.634,-1.878327 -14.451156,-2.81752 -5.786638,1.302751 -11.572925,2.605423 -17.359564,3.908174 -2.365267,1.054273 -4.730426,2.108497 -7.095658,3.162755 -0.854655,-0.0426 -1.7093,-0.08519 -2.563951,-0.127788 -1.264406,-0.200222 -2.528802,-0.400443 -3.793213,-0.600666 -2.772345,-0.947798 -5.54466,-1.895586 -8.316999,-2.843382 -5.391791,3.128229 -10.783561,6.256445 -16.175342,9.384667 2.96166,9.13881 5.923315,18.277602 8.884981,27.41643 0.60357,-1.757821 1.207138,-3.515635 1.810707,-5.273452 1.095654,-3.262882 2.191306,-6.525762 3.28696,-9.788645 0.835961,-1.639223 1.671915,-3.278431 2.507882,-4.917666 -0.565939,1.016466 -1.131867,2.032913 -1.697803,3.049375 -0.397523,1.101523 -0.795042,2.203037 -1.192564,3.304555 -0.472499,1.433563 -0.944995,2.86712 -1.417497,4.30069 -0.69744,2.054833 -1.394875,4.109647 -2.092312,6.164469 -0.258279,1.283621 -0.516556,2.567228 -0.774838,3.850865 0.151482,3.332592 0.302957,6.665039 0.45444,9.997657 0.806087,2.807864 1.612126,5.61556 2.418214,8.423426 0.557257,-1.717191 1.11449,-3.434309 1.671737,-5.151468 0.414016,-1.494034 0.828008,-2.987981 1.242024,-4.482015 1.282588,-2.626291 2.565127,-5.252482 3.847689,-7.878722 1.969274,-0.484745 3.93843,-0.96946 5.907705,-1.454205 0.924491,0.157312 1.848927,0.314614 2.773418,0.471926 0.772115,0.842474 1.544184,1.684897 2.316299,2.527372 0.542555,-0.593382 1.085076,-1.186727 1.62763,-1.780109 0.641795,-1.538404 1.28355,-3.076712 1.925345,-4.615114 0.391071,-1.59469 0.782119,-3.189282 1.17319,-4.783971 -0.302966,-1.484531 -0.60592,-2.969002 -0.90888,-4.453503 2.060122,-2.241899 4.120242,-4.483796 6.180364,-6.725696 z"
       inkscape:label="fill"
       sodipodi:nodetypes="scccccccccsccccccccscccccccccccccccss" /></g></svg>
